NotoSansKhmer-Regular.ufo
<glyph name="quotedbl" format="2">
  <advance width="402"/>
  <unicode hex="0022"/>
  <note>
quotedbl
</note>
  <outline>
    <contour>
      <point x="85" y="456" type="line"/>
      <point x="141" y="456" type="line"/>
      <point x="161" y="714" type="line"/>
      <point x="65" y="714" type="line"/>
    </contour>
    <contour>
      <point x="261" y="456" type="line"/>
      <point x="317" y="456" type="line"/>
      <point x="337" y="714" type="line"/>
      <point x="241" y="714" type="line"/>
    </contour>
  </outline>
</glyph>
<glyph name="quotesingle" format="2">
  <advance width="226"/>
  <unicode hex="0027"/>
  <note>
quotesingle
</note>
  <outline>
    <contour>
      <point x="85" y="456" type="line"/>
      <point x="141" y="456" type="line"/>
      <point x="161" y="714" type="line"/>
      <point x="65" y="714" type="line"/>
    </contour>
  </outline>
</glyph>
<glyph name="uni00AD" format="2">
  <advance width="322"/>
  <unicode hex="00AD"/>
  <note>
uni00AD
</note>
  <outline>
    <contour>
      <point x="40" y="227" type="line"/>
      <point x="282" y="227" type="line"/>
      <point x="282" y="309" type="line"/>
      <point x="40" y="309" type="line"/>
    </contour>
  </outline>
</glyph>
<glyph name="uni1780" format="2">
  <advance width="636"/>
  <unicode hex="1780"/>
  <note>
uni1780
</note>
  <outline>
    <contour>
      <point x="98" y="519" type="line"/>
      <point x="538" y="519" type="line"/>
      <point x="538" y="586" type="line"/>
      <point x="98" y="586" type="line"/>
    </contour>
    <contour>
      <point x="98" y="0" type="line"/>
      <point x="190" y="0" type="line"/>
      <point x="190" y="293" type="line" smooth="yes"/>
      <point x="190" y="353"/>
      <point x="233" y="384"/>
      <point x="318" y="384" type="curve" smooth="yes"/>
      <point x="404" y="384"/>
      <point x="446" y="353"/>
      <point x="446" y="293" type="curve" smooth="yes"/>
      <point x="446" y="0" type="line"/>
      <point x="538" y="0" type="line"/>
      <point x="538" y="293" type="line" smooth="yes"/>
      <point x="538" y="398"/>
      <point x="465" y="451"/>
      <point x="318" y="451" type="curve" smooth="yes"/>
      <point x="172" y="451"/>
      <point x="98" y="398"/>
      <point x="98" y="293" type="curve" smooth="yes"/>
    </contour>
  </outline>
</glyph>
<glyph name="uni1781" format="2">
  <advance width="635"/>
  <unicode hex="1781"/>
  <note>
uni1781
</note>
  <outline>
    <contour>
      <point x="317" y="0" type="curve" smooth="yes"/>
      <point x="480" y="0"/>
      <point x="537" y="68"/>
      <point x="537" y="158" type="curve" smooth="yes"/>
      <point x="537" y="234" type="line"/>
      <point x="445" y="234" type="line"/>
      <point x="445" y="158" type="line" smooth="yes"/>
      <point x="445" y="98"/>
      <point x="412" y="67"/>
      <point x="317" y="67" type="curve" smooth="yes"/>
      <point x="223" y="67"/>
      <point x="190" y="98"/>
      <point x="190" y="158" type="curve" smooth="yes"/>
      <point x="190" y="231" type="line"/>
      <point x="276" y="244" type="line" smooth="yes"/>
      <point x="450" y="270"/>
      <point x="537" y="330"/>
      <point x="537" y="438" type="curve" smooth="yes"/>
      <point x="537" y="518"/>
      <point x="480" y="586"/>
      <point x="317" y="586" type="curve" smooth="yes"/>
      <point x="155" y="586"/>
      <point x="98" y="515"/>
      <point x="98" y="445" type="curve" smooth="yes"/>
      <point x="98" y="379"/>
      <point x="147" y="351"/>
      <point x="196" y="351" type="curve" smooth="yes"/>
      <point x="238" y="351" type="line"/>
      <point x="238" y="421" type="line"/>
      <point x="206" y="421"/>
      <point x="189" y="432"/>
      <point x="189" y="456" type="curve" smooth="yes"/>
      <point x="189" y="485"/>
      <point x="223" y="519"/>
      <point x="317" y="519" type="curve" smooth="yes"/>
      <point x="412" y="519"/>
      <point x="445" y="488"/>
      <point x="445" y="435" type="curve" smooth="yes"/>
      <point x="445" y="366"/>
      <point x="387" y="328"/>
      <point x="271" y="311" type="curve" smooth="yes"/>
      <point x="98" y="286" type="line"/>
      <point x="98" y="158" type="line" smooth="yes"/>
      <point x="98" y="68"/>
      <point x="155" y="0"/>
    </contour>
  </outline>
</glyph>
<glyph name="uni1783" format="2">
  <advance width="928"/>
  <unicode hex="1783"/>
  <note>
uni1783
</note>
  <outline>
    <contour>
      <point x="98" y="158" type="line" smooth="yes"/>
      <point x="98" y="53"/>
      <point x="167" y="0"/>
      <point x="305" y="0" type="curve" smooth="yes"/>
      <point x="378" y="0"/>
      <point x="432" y="16"/>
      <point x="467" y="48" type="curve"/>
      <point x="501" y="16"/>
      <point x="554" y="0"/>
      <point x="625" y="0" type="curve" smooth="yes"/>
      <point x="762" y="0"/>
      <point x="830" y="53"/>
      <point x="830" y="158" type="curve" smooth="yes"/>
      <point x="830" y="379" type="line"/>
      <point x="738" y="379" type="line"/>
      <point x="738" y="158" type="line" smooth="yes"/>
      <point x="738" y="98"/>
      <point x="701" y="67"/>
      <point x="625" y="67" type="curve" smooth="yes"/>
      <point x="550" y="67"/>
      <point x="513" y="98"/>
      <point x="513" y="158" type="curve" smooth="yes"/>
      <point x="513" y="372" type="line"/>
      <point x="421" y="372" type="line"/>
      <point x="421" y="158" type="line" smooth="yes"/>
      <point x="421" y="98"/>
      <point x="382" y="67"/>
      <point x="305" y="67" type="curve" smooth="yes"/>
      <point x="228" y="67"/>
      <point x="190" y="98"/>
      <point x="190" y="158" type="curve" smooth="yes"/>
      <point x="190" y="536" type="line" smooth="yes"/>
      <point x="190" y="569"/>
      <point x="165" y="586"/>
      <point x="116" y="586" type="curve" smooth="yes"/>
      <point x="29" y="586" type="line"/>
      <point x="29" y="519" type="line"/>
      <point x="75" y="519"/>
      <point x="98" y="510"/>
      <point x="98" y="486" type="curve" smooth="yes"/>
    </contour>
    <contour>
      <point x="738" y="361" type="line"/>
      <point x="830" y="361" type="line"/>
      <point x="830" y="410" type="line"/>
      <point x="733" y="518" type="line"/>
      <point x="733" y="519" type="line"/>
      <point x="854" y="519" type="line"/>
      <point x="854" y="586" type="line"/>
      <point x="733" y="586" type="line"/>
      <point x="679" y="515"/>
      <point x="669" y="502"/>
      <point x="669" y="491" type="curve" smooth="yes"/>
      <point x="669" y="478"/>
      <point x="675" y="471"/>
      <point x="738" y="394" type="curve"/>
    </contour>
    <contour>
      <point x="421" y="361" type="line"/>
      <point x="513" y="361" type="line"/>
      <point x="513" y="410" type="line"/>
      <point x="416" y="518" type="line"/>
      <point x="416" y="519" type="line"/>
      <point x="537" y="519" type="line"/>
      <point x="537" y="586" type="line"/>
      <point x="416" y="586" type="line"/>
      <point x="362" y="515"/>
      <point x="352" y="502"/>
      <point x="352" y="491" type="curve" smooth="yes"/>
      <point x="352" y="478"/>
      <point x="358" y="471"/>
      <point x="421" y="394" type="curve"/>
    </contour>
  </outline>
</glyph>
<glyph name="uni1787" format="2">
  <advance width="635"/>
  <unicode hex="1787"/>
  <note>
uni1787
</note>
  <outline>
    <contour>
      <point x="98" y="0" type="line"/>
      <point x="204" y="0" type="line"/>
      <point x="318" y="103" type="line"/>
      <point x="431" y="0" type="line"/>
      <point x="537" y="0" type="line"/>
      <point x="537" y="451" type="line"/>
      <point x="445" y="451" type="line"/>
      <point x="445" y="82" type="line"/>
      <point x="318" y="198" type="line"/>
      <point x="190" y="81" type="line"/>
      <point x="190" y="400" type="line"/>
      <point x="137" y="460"/>
      <point x="116" y="483"/>
      <point x="116" y="500" type="curve" smooth="yes"/>
      <point x="116" y="503"/>
      <point x="120" y="510"/>
      <point x="128" y="519" type="curve"/>
      <point x="415" y="519" type="line" smooth="yes"/>
      <point x="504" y="519"/>
      <point x="537" y="549"/>
      <point x="537" y="610" type="curve" smooth="yes"/>
      <point x="537" y="674" type="line"/>
      <point x="445" y="674" type="line"/>
      <point x="445" y="610" type="line" smooth="yes"/>
      <point x="445" y="594"/>
      <point x="427" y="586"/>
      <point x="405" y="586" type="curve" smooth="yes"/>
      <point x="126" y="586" type="line"/>
      <point x="56" y="493"/>
      <point x="49" y="493"/>
      <point x="49" y="466" type="curve" smooth="yes"/>
      <point x="49" y="449"/>
      <point x="63" y="428"/>
      <point x="98" y="384" type="curve"/>
    </contour>
  </outline>
</glyph>
<glyph name="uni1788" format="2">
  <advance width="1251"/>
  <unicode hex="1788"/>
  <note>
uni1788
</note>
  <outline>
    <contour>
      <point x="1154" y="379" type="line"/>
      <point x="1062" y="379" type="line"/>
      <point x="1062" y="158" type="line" smooth="yes"/>
      <point x="1062" y="98"/>
      <point x="1024" y="67"/>
      <point x="949" y="67" type="curve" smooth="yes"/>
      <point x="874" y="67"/>
      <point x="836" y="98"/>
      <point x="836" y="158" type="curve" smooth="yes"/>
      <point x="836" y="379" type="line"/>
      <point x="744" y="379" type="line"/>
      <point x="744" y="158" type="line" smooth="yes"/>
      <point x="744" y="98"/>
      <point x="706" y="67"/>
      <point x="628" y="67" type="curve" smooth="yes"/>
      <point x="551" y="67"/>
      <point x="513" y="98"/>
      <point x="513" y="158" type="curve" smooth="yes"/>
      <point x="513" y="428" type="line" smooth="yes"/>
      <point x="513" y="533"/>
      <point x="443" y="586"/>
      <point x="305" y="586" type="curve" smooth="yes"/>
      <point x="167" y="586"/>
      <point x="98" y="533"/>
      <point x="98" y="428" type="curve" smooth="yes"/>
      <point x="98" y="229" type="line"/>
      <point x="190" y="229" type="line"/>
      <point x="190" y="428" type="line" smooth="yes"/>
      <point x="190" y="488"/>
      <point x="228" y="519"/>
      <point x="305" y="519" type="curve" smooth="yes"/>
      <point x="382" y="519"/>
      <point x="421" y="488"/>
      <point x="421" y="428" type="curve" smooth="yes"/>
      <point x="421" y="158" type="line" smooth="yes"/>
      <point x="421" y="53"/>
      <point x="490" y="0"/>
      <point x="628" y="0" type="curve" smooth="yes"/>
      <point x="702" y="0"/>
      <point x="755" y="16"/>
      <point x="790" y="48" type="curve"/>
      <point x="825" y="16"/>
      <point x="877" y="0"/>
      <point x="949" y="0" type="curve" smooth="yes"/>
      <point x="1085" y="0"/>
      <point x="1154" y="53"/>
      <point x="1154" y="158" type="curve" smooth="yes"/>
    </contour>
    <contour>
      <point x="98" y="247" type="line"/>
      <point x="98" y="60" type="line" smooth="yes"/>
      <point x="98" y="20"/>
      <point x="128" y="0"/>
      <point x="164" y="0" type="curve" smooth="yes"/>
      <point x="192" y="0" type="line" smooth="yes"/>
      <point x="250" y="0"/>
      <point x="296" y="44"/>
      <point x="296" y="113" type="curve" smooth="yes"/>
      <point x="296" y="187"/>
      <point x="251" y="219"/>
      <point x="190" y="219" type="curve"/>
      <point x="190" y="247" type="line" smooth="yes"/>
    </contour>
    <contour>
      <point x="190" y="67" type="curve"/>
      <point x="190" y="151" type="line"/>
      <point x="220" y="150"/>
      <point x="234" y="136"/>
      <point x="234" y="112" type="curve" smooth="yes"/>
      <point x="234" y="84"/>
      <point x="220" y="67"/>
    </contour>
    <contour>
      <point x="1062" y="361" type="line"/>
      <point x="1154" y="361" type="line"/>
      <point x="1154" y="410" type="line"/>
      <point x="1057" y="518" type="line"/>
      <point x="1057" y="519" type="line"/>
      <point x="1178" y="519" type="line"/>
      <point x="1178" y="586" type="line"/>
      <point x="1057" y="586" type="line"/>
      <point x="1003" y="515"/>
      <point x="993" y="502"/>
      <point x="993" y="491" type="curve" smooth="yes"/>
      <point x="993" y="478"/>
      <point x="999" y="471"/>
      <point x="1062" y="394" type="curve"/>
    </contour>
    <contour>
      <point x="744" y="361" type="line"/>
      <point x="836" y="361" type="line"/>
      <point x="836" y="410" type="line"/>
      <point x="739" y="518" type="line"/>
      <point x="739" y="519" type="line"/>
      <point x="860" y="519" type="line"/>
      <point x="860" y="586" type="line"/>
      <point x="739" y="586" type="line"/>
      <point x="685" y="515"/>
      <point x="675" y="502"/>
      <point x="675" y="491" type="curve" smooth="yes"/>
      <point x="675" y="478"/>
      <point x="681" y="471"/>
      <point x="744" y="394" type="curve"/>
    </contour>
  </outline>
</glyph>
<glyph name="uni178B" format="2">
  <advance width="635"/>
  <unicode hex="178B"/>
  <note>
uni178B
</note>
  <outline>
    <contour>
      <point x="317" y="0" type="curve" smooth="yes"/>
      <point x="464" y="0"/>
      <point x="537" y="53"/>
      <point x="537" y="158" type="curve" smooth="yes"/>
      <point x="537" y="403" type="line"/>
      <point x="390" y="517" type="line"/>
      <point x="391" y="519" type="line"/>
      <point x="484" y="519" type="line" smooth="yes"/>
      <point x="533" y="519"/>
      <point x="547" y="542"/>
      <point x="547" y="594" type="curve" smooth="yes"/>
      <point x="547" y="674" type="line"/>
      <point x="455" y="674" type="line"/>
      <point x="455" y="616" type="line" smooth="yes"/>
      <point x="455" y="594"/>
      <point x="444" y="586"/>
      <point x="421" y="586" type="curve" smooth="yes"/>
      <point x="362" y="586" type="line"/>
      <point x="303" y="510"/>
      <point x="300" y="505"/>
      <point x="300" y="494" type="curve" smooth="yes"/>
      <point x="300" y="480"/>
      <point x="312" y="470"/>
      <point x="445" y="364" type="curve"/>
      <point x="445" y="158" type="line" smooth="yes"/>
      <point x="445" y="98"/>
      <point x="403" y="67"/>
      <point x="317" y="67" type="curve" smooth="yes"/>
      <point x="232" y="67"/>
      <point x="190" y="98"/>
      <point x="190" y="158" type="curve" smooth="yes"/>
      <point x="190" y="536" type="line" smooth="yes"/>
      <point x="190" y="569"/>
      <point x="165" y="586"/>
      <point x="116" y="586" type="curve" smooth="yes"/>
      <point x="39" y="586" type="line"/>
      <point x="39" y="519" type="line"/>
      <point x="78" y="519"/>
      <point x="98" y="511"/>
      <point x="98" y="486" type="curve" smooth="yes"/>
      <point x="98" y="158" type="line" smooth="yes"/>
      <point x="98" y="53"/>
      <point x="171" y="0"/>
    </contour>
  </outline>
</glyph>
<glyph name="uni178C" format="2">
  <advance width="635"/>
  <unicode hex="178C"/>
  <note>
uni178C
</note>
  <outline>
    <contour>
      <point x="445" y="-10" type="line"/>
      <point x="537" y="-10" type="line"/>
      <point x="537" y="234" type="line"/>
      <point x="445" y="234" type="line"/>
      <point x="445" y="186" type="line" smooth="yes"/>
      <point x="445" y="145"/>
      <point x="332" y="67"/>
      <point x="265" y="67" type="curve" smooth="yes"/>
      <point x="217" y="67"/>
      <point x="190" y="98"/>
      <point x="190" y="158" type="curve" smooth="yes"/>
      <point x="190" y="231" type="line"/>
      <point x="276" y="244" type="line" smooth="yes"/>
      <point x="450" y="270"/>
      <point x="537" y="330"/>
      <point x="537" y="458" type="curve" smooth="yes"/>
      <point x="537" y="521"/>
      <point x="498" y="586"/>
      <point x="426" y="586" type="curve" smooth="yes"/>
      <point x="385" y="586"/>
      <point x="349" y="565"/>
      <point x="319" y="525" type="curve"/>
      <point x="317" y="525" type="line"/>
      <point x="281" y="566"/>
      <point x="259" y="586"/>
      <point x="217" y="586" type="curve" smooth="yes"/>
      <point x="155" y="586"/>
      <point x="97" y="536"/>
      <point x="97" y="462" type="curve" smooth="yes"/>
      <point x="97" y="383"/>
      <point x="148" y="351"/>
      <point x="201" y="351" type="curve" smooth="yes"/>
      <point x="238" y="351" type="line"/>
      <point x="238" y="418" type="line"/>
      <point x="206" y="423"/>
      <point x="189" y="433"/>
      <point x="189" y="466" type="curve" smooth="yes"/>
      <point x="189" y="492"/>
      <point x="202" y="513"/>
      <point x="224" y="513" type="curve" smooth="yes"/>
      <point x="256" y="513"/>
      <point x="286" y="452"/>
      <point x="315" y="452" type="curve" smooth="yes"/>
      <point x="334" y="452"/>
      <point x="346" y="468"/>
      <point x="358" y="484" type="curve" smooth="yes"/>
      <point x="370" y="499"/>
      <point x="383" y="513"/>
      <point x="403" y="513" type="curve" smooth="yes"/>
      <point x="431" y="513"/>
      <point x="445" y="487"/>
      <point x="445" y="448" type="curve" smooth="yes"/>
      <point x="445" y="362"/>
      <point x="387" y="328"/>
      <point x="271" y="311" type="curve" smooth="yes"/>
      <point x="98" y="286" type="line"/>
      <point x="98" y="158" type="line" smooth="yes"/>
      <point x="98" y="68"/>
      <point x="155" y="0"/>
      <point x="254" y="0" type="curve" smooth="yes"/>
      <point x="325" y="0"/>
      <point x="379" y="32"/>
      <point x="444" y="75" type="curve"/>
      <point x="445" y="75" type="line"/>
    </contour>
  </outline>
</glyph>
<glyph name="uni178E" format="2">
  <advance width="1240"/>
  <unicode hex="178E"/>
  <note>
uni178E
</note>
  <outline>
    <contour>
      <point x="98" y="235" type="line"/>
      <point x="190" y="235" type="line"/>
      <point x="190" y="428" type="line" smooth="yes"/>
      <point x="190" y="488"/>
      <point x="227" y="519"/>
      <point x="302" y="519" type="curve" smooth="yes"/>
      <point x="377" y="519"/>
      <point x="415" y="488"/>
      <point x="415" y="428" type="curve" smooth="yes"/>
      <point x="415" y="0" type="line"/>
      <point x="521" y="0" type="line"/>
      <point x="620" y="89" type="line"/>
      <point x="718" y="0" type="line"/>
      <point x="824" y="0" type="line"/>
      <point x="824" y="428" type="line" smooth="yes"/>
      <point x="824" y="488"/>
      <point x="862" y="519"/>
      <point x="937" y="519" type="curve" smooth="yes"/>
      <point x="1012" y="519"/>
      <point x="1050" y="488"/>
      <point x="1050" y="428" type="curve" smooth="yes"/>
      <point x="1050" y="0" type="line"/>
      <point x="1142" y="0" type="line"/>
      <point x="1142" y="428" type="line" smooth="yes"/>
      <point x="1142" y="533"/>
      <point x="1073" y="586"/>
      <point x="937" y="586" type="curve" smooth="yes"/>
      <point x="801" y="586"/>
      <point x="732" y="533"/>
      <point x="732" y="428" type="curve" smooth="yes"/>
      <point x="732" y="82" type="line"/>
      <point x="620" y="184" type="line"/>
      <point x="507" y="81" type="line"/>
      <point x="507" y="428" type="line" smooth="yes"/>
      <point x="507" y="533"/>
      <point x="438" y="586"/>
      <point x="302" y="586" type="curve" smooth="yes"/>
      <point x="166" y="586"/>
      <point x="98" y="533"/>
      <point x="98" y="428" type="curve" smooth="yes"/>
    </contour>
    <contour>
      <point x="98" y="247" type="line"/>
      <point x="98" y="60" type="line" smooth="yes"/>
      <point x="98" y="20"/>
      <point x="128" y="0"/>
      <point x="164" y="0" type="curve" smooth="yes"/>
      <point x="192" y="0" type="line" smooth="yes"/>
      <point x="250" y="0"/>
      <point x="296" y="44"/>
      <point x="296" y="113" type="curve" smooth="yes"/>
      <point x="296" y="187"/>
      <point x="251" y="219"/>
      <point x="190" y="219" type="curve"/>
      <point x="190" y="247" type="line" smooth="yes"/>
    </contour>
    <contour>
      <point x="190" y="67" type="curve"/>
      <point x="190" y="151" type="line"/>
      <point x="220" y="150"/>
      <point x="234" y="136"/>
      <point x="234" y="112" type="curve" smooth="yes"/>
      <point x="234" y="84"/>
      <point x="220" y="67"/>
    </contour>
  </outline>
</glyph>
<glyph name="uni178F" format="2">
  <advance width="635"/>
  <unicode hex="178F"/>
  <note>
uni178F
</note>
  <outline>
    <contour>
      <point x="98" y="519" type="line"/>
      <point x="537" y="519" type="line"/>
      <point x="537" y="586" type="line"/>
      <point x="98" y="586" type="line"/>
    </contour>
    <contour>
      <point x="98" y="247" type="line"/>
      <point x="98" y="60" type="line" smooth="yes"/>
      <point x="98" y="20"/>
      <point x="128" y="0"/>
      <point x="164" y="0" type="curve" smooth="yes"/>
      <point x="192" y="0" type="line" smooth="yes"/>
      <point x="250" y="0"/>
      <point x="296" y="44"/>
      <point x="296" y="113" type="curve" smooth="yes"/>
      <point x="296" y="187"/>
      <point x="251" y="219"/>
      <point x="190" y="219" type="curve"/>
      <point x="190" y="247" type="line" smooth="yes"/>
    </contour>
    <contour>
      <point x="190" y="67" type="curve"/>
      <point x="190" y="151" type="line"/>
      <point x="220" y="150"/>
      <point x="234" y="136"/>
      <point x="234" y="112" type="curve" smooth="yes"/>
      <point x="234" y="84"/>
      <point x="220" y="67"/>
    </contour>
    <contour>
      <point x="98" y="229" type="line"/>
      <point x="190" y="229" type="line"/>
      <point x="190" y="293" type="line" smooth="yes"/>
      <point x="190" y="353"/>
      <point x="232" y="383"/>
      <point x="317" y="383" type="curve" smooth="yes"/>
      <point x="403" y="383"/>
      <point x="445" y="353"/>
      <point x="445" y="293" type="curve" smooth="yes"/>
      <point x="445" y="0" type="line"/>
      <point x="537" y="0" type="line"/>
      <point x="537" y="293" type="line" smooth="yes"/>
      <point x="537" y="398"/>
      <point x="464" y="451"/>
      <point x="317" y="451" type="curve" smooth="yes"/>
      <point x="171" y="451"/>
      <point x="98" y="398"/>
      <point x="98" y="293" type="curve" smooth="yes"/>
    </contour>
    <contour>
      <point x="98" y="247" type="line"/>
      <point x="98" y="60" type="line" smooth="yes"/>
      <point x="98" y="20"/>
      <point x="128" y="0"/>
      <point x="164" y="0" type="curve" smooth="yes"/>
      <point x="192" y="0" type="line" smooth="yes"/>
      <point x="250" y="0"/>
      <point x="296" y="44"/>
      <point x="296" y="113" type="curve" smooth="yes"/>
      <point x="296" y="187"/>
      <point x="251" y="219"/>
      <point x="190" y="219" type="curve"/>
      <point x="190" y="247" type="line" smooth="yes"/>
    </contour>
    <contour>
      <point x="190" y="67" type="curve"/>
      <point x="190" y="151" type="line"/>
      <point x="220" y="150"/>
      <point x="234" y="136"/>
      <point x="234" y="112" type="curve" smooth="yes"/>
      <point x="234" y="84"/>
      <point x="220" y="67"/>
    </contour>
  </outline>
</glyph>
<glyph name="uni1791" format="2">
  <advance width="599"/>
  <unicode hex="1791"/>
  <note>
uni1791
</note>
  <outline>
    <contour>
      <point x="296" y="0" type="curve" smooth="yes"/>
      <point x="425" y="0"/>
      <point x="489" y="53"/>
      <point x="489" y="158" type="curve" smooth="yes"/>
      <point x="489" y="230" type="line"/>
      <point x="504" y="236"/>
      <point x="519" y="257"/>
      <point x="519" y="286" type="curve" smooth="yes"/>
      <point x="519" y="314"/>
      <point x="495" y="343"/>
      <point x="458" y="343" type="curve" smooth="yes"/>
      <point x="430" y="343"/>
      <point x="409" y="329"/>
      <point x="401" y="303" type="curve"/>
      <point x="238" y="326"/>
      <point x="171" y="354"/>
      <point x="171" y="428" type="curve" smooth="yes"/>
      <point x="171" y="488"/>
      <point x="205" y="519"/>
      <point x="299" y="519" type="curve" smooth="yes"/>
      <point x="394" y="519"/>
      <point x="427" y="485"/>
      <point x="427" y="438" type="curve" smooth="yes"/>
      <point x="427" y="414" type="line"/>
      <point x="519" y="414" type="line"/>
      <point x="519" y="438" type="line" smooth="yes"/>
      <point x="519" y="515"/>
      <point x="462" y="586"/>
      <point x="299" y="586" type="curve" smooth="yes"/>
      <point x="137" y="586"/>
      <point x="80" y="518"/>
      <point x="80" y="428" type="curve" smooth="yes"/>
      <point x="80" y="318"/>
      <point x="172" y="268"/>
      <point x="397" y="235" type="curve"/>
      <point x="397" y="158" type="line" smooth="yes"/>
      <point x="397" y="98"/>
      <point x="363" y="67"/>
      <point x="296" y="67" type="curve" smooth="yes"/>
      <point x="230" y="67"/>
      <point x="196" y="98"/>
      <point x="196" y="158" type="curve" smooth="yes"/>
      <point x="196" y="234" type="line"/>
      <point x="104" y="234" type="line"/>
      <point x="104" y="158" type="line" smooth="yes"/>
      <point x="104" y="53"/>
      <point x="168" y="0"/>
    </contour>
  </outline>
</glyph>
<glyph name="uni1792" format="2">
  <advance width="635"/>
  <unicode hex="1792"/>
  <note>
uni1792
</note>
  <outline>
    <contour>
      <point x="537" y="215" type="line"/>
      <point x="445" y="215" type="line"/>
      <point x="445" y="82" type="line"/>
      <point x="318" y="198" type="line"/>
      <point x="190" y="81" type="line"/>
      <point x="190" y="400" type="line"/>
      <point x="137" y="460"/>
      <point x="116" y="483"/>
      <point x="116" y="500" type="curve" smooth="yes"/>
      <point x="116" y="503"/>
      <point x="119" y="507"/>
      <point x="128" y="519" type="curve"/>
      <point x="537" y="519" type="line"/>
      <point x="537" y="586" type="line"/>
      <point x="126" y="586" type="line"/>
      <point x="54" y="493"/>
      <point x="49" y="493"/>
      <point x="49" y="466" type="curve" smooth="yes"/>
      <point x="49" y="449"/>
      <point x="63" y="428"/>
      <point x="98" y="384" type="curve"/>
      <point x="98" y="0" type="line"/>
      <point x="204" y="0" type="line"/>
      <point x="318" y="103" type="line"/>
      <point x="431" y="0" type="line"/>
      <point x="537" y="0" type="line"/>
    </contour>
    <contour>
      <point x="537" y="198" type="line"/>
      <point x="537" y="380" type="line" smooth="yes"/>
      <point x="537" y="419"/>
      <point x="506" y="439"/>
      <point x="455" y="439" type="curve" smooth="yes"/>
      <point x="388" y="439"/>
      <point x="333" y="403"/>
      <point x="333" y="337" type="curve" smooth="yes"/>
      <point x="333" y="277"/>
      <point x="377" y="245"/>
      <point x="445" y="245" type="curve"/>
      <point x="445" y="198" type="line"/>
    </contour>
    <contour>
      <point x="445" y="313" type="line"/>
      <point x="416" y="313"/>
      <point x="400" y="322"/>
      <point x="400" y="342" type="curve" smooth="yes"/>
      <point x="400" y="362"/>
      <point x="416" y="372"/>
      <point x="445" y="372" type="curve"/>
    </contour>
  </outline>
</glyph>
<glyph name="uni1796" format="2">
  <advance width="635"/>
  <unicode hex="1796"/>
  <note>
uni1796
</note>
  <outline>
    <contour>
      <point x="98" y="234" type="line"/>
      <point x="190" y="234" type="line"/>
      <point x="190" y="451" type="line" smooth="yes"/>
      <point x="190" y="492"/>
      <point x="201" y="513"/>
      <point x="225" y="513" type="curve" smooth="yes"/>
      <point x="262" y="513"/>
      <point x="286" y="452"/>
      <point x="317" y="452" type="curve" smooth="yes"/>
      <point x="350" y="452"/>
      <point x="369" y="513"/>
      <point x="410" y="513" type="curve" smooth="yes"/>
      <point x="434" y="513"/>
      <point x="445" y="492"/>
      <point x="445" y="451" type="curve" smooth="yes"/>
      <point x="445" y="0" type="line"/>
      <point x="537" y="0" type="line"/>
      <point x="537" y="451" type="line" smooth="yes"/>
      <point x="537" y="524"/>
      <point x="511" y="586"/>
      <point x="437" y="586" type="curve" smooth="yes"/>
      <point x="388" y="586"/>
      <point x="356" y="565"/>
      <point x="319" y="525" type="curve"/>
      <point x="317" y="525" type="line"/>
      <point x="281" y="566"/>
      <point x="248" y="586"/>
      <point x="214" y="586" type="curve" smooth="yes"/>
      <point x="128" y="586"/>
      <point x="98" y="524"/>
      <point x="98" y="451" type="curve" smooth="yes"/>
    </contour>
    <contour>
      <point x="98" y="247" type="line"/>
      <point x="98" y="60" type="line" smooth="yes"/>
      <point x="98" y="20"/>
      <point x="128" y="0"/>
      <point x="164" y="0" type="curve" smooth="yes"/>
      <point x="192" y="0" type="line" smooth="yes"/>
      <point x="250" y="0"/>
      <point x="296" y="44"/>
      <point x="296" y="113" type="curve" smooth="yes"/>
      <point x="296" y="187"/>
      <point x="251" y="219"/>
      <point x="190" y="219" type="curve"/>
      <point x="190" y="247" type="line" smooth="yes"/>
    </contour>
    <contour>
      <point x="190" y="67" type="curve"/>
      <point x="190" y="151" type="line"/>
      <point x="220" y="150"/>
      <point x="234" y="136"/>
      <point x="234" y="112" type="curve" smooth="yes"/>
      <point x="234" y="84"/>
      <point x="220" y="67"/>
    </contour>
  </outline>
</glyph>
<glyph name="uni1797" format="2">
  <advance width="635"/>
  <unicode hex="1797"/>
  <note>
uni1797
</note>
  <outline>
    <contour>
      <point x="98" y="519" type="line"/>
      <point x="537" y="519" type="line"/>
      <point x="537" y="586" type="line"/>
      <point x="98" y="586" type="line"/>
    </contour>
    <contour>
      <point x="124" y="-4" type="curve"/>
      <point x="180" y="-4"/>
      <point x="224" y="28"/>
      <point x="224" y="105" type="curve" smooth="yes"/>
      <point x="224" y="186"/>
      <point x="189" y="220"/>
      <point x="189" y="279" type="curve" smooth="yes"/>
      <point x="189" y="339"/>
      <point x="232" y="383"/>
      <point x="317" y="383" type="curve" smooth="yes"/>
      <point x="403" y="383"/>
      <point x="445" y="353"/>
      <point x="445" y="293" type="curve" smooth="yes"/>
      <point x="445" y="0" type="line"/>
      <point x="537" y="0" type="line"/>
      <point x="537" y="293" type="line" smooth="yes"/>
      <point x="537" y="398"/>
      <point x="464" y="451"/>
      <point x="317" y="451" type="curve" smooth="yes"/>
      <point x="171" y="451"/>
      <point x="98" y="384"/>
      <point x="98" y="279" type="curve" smooth="yes"/>
      <point x="98" y="215"/>
      <point x="132" y="151"/>
      <point x="132" y="106" type="curve" smooth="yes"/>
      <point x="132" y="89"/>
      <point x="124" y="81"/>
      <point x="113" y="81" type="curve" smooth="yes"/>
      <point x="95" y="81"/>
      <point x="83" y="96"/>
      <point x="72" y="125" type="curve"/>
      <point x="20" y="105" type="line"/>
      <point x="33" y="32"/>
      <point x="67" y="-4"/>
    </contour>
  </outline>
</glyph>
<glyph name="uni179A" format="2">
  <advance width="288"/>
  <unicode hex="179A"/>
  <note>
uni179A
</note>
  <outline>
    <contour>
      <point x="137" y="361" type="line"/>
      <point x="229" y="361" type="line"/>
      <point x="229" y="410" type="line"/>
      <point x="132" y="518" type="line"/>
      <point x="132" y="519" type="line"/>
      <point x="253" y="519" type="line"/>
      <point x="253" y="586" type="line"/>
      <point x="132" y="586" type="line"/>
      <point x="78" y="515"/>
      <point x="68" y="502"/>
      <point x="68" y="491" type="curve" smooth="yes"/>
      <point x="68" y="478"/>
      <point x="74" y="471"/>
      <point x="137" y="394" type="curve"/>
    </contour>
    <contour>
      <point x="229" y="376" type="line"/>
      <point x="137" y="376" type="line"/>
      <point x="137" y="219" type="line"/>
      <point x="88" y="215"/>
      <point x="25" y="187"/>
      <point x="25" y="108" type="curve" smooth="yes"/>
      <point x="25" y="20"/>
      <point x="87" y="0"/>
      <point x="142" y="0" type="curve" smooth="yes"/>
      <point x="160" y="0" type="line" smooth="yes"/>
      <point x="204" y="0"/>
      <point x="229" y="20"/>
      <point x="229" y="69" type="curve" smooth="yes"/>
    </contour>
    <contour>
      <point x="137" y="67" type="line"/>
      <point x="116" y="67"/>
      <point x="92" y="77"/>
      <point x="92" y="109" type="curve" smooth="yes"/>
      <point x="92" y="141"/>
      <point x="118" y="151"/>
      <point x="137" y="151" type="curve"/>
    </contour>
  </outline>
</glyph>
<glyph name="uni179C" format="2">
  <advance width="326"/>
  <unicode hex="179C"/>
  <note>
uni179C
</note>
  <outline>
    <contour>
      <point x="137" y="354" type="line"/>
      <point x="229" y="354" type="line"/>
      <point x="229" y="410" type="line"/>
      <point x="107" y="518" type="line"/>
      <point x="107" y="519" type="line"/>
      <point x="156" y="519" type="line" smooth="yes"/>
      <point x="241" y="519"/>
      <point x="283" y="549"/>
      <point x="283" y="610" type="curve" smooth="yes"/>
      <point x="283" y="674" type="line"/>
      <point x="191" y="674" type="line"/>
      <point x="191" y="610" type="line" smooth="yes"/>
      <point x="191" y="594"/>
      <point x="180" y="586"/>
      <point x="156" y="586" type="curve" smooth="yes"/>
      <point x="107" y="586" type="line"/>
      <point x="55" y="518"/>
      <point x="45" y="505"/>
      <point x="45" y="494" type="curve" smooth="yes"/>
      <point x="45" y="482"/>
      <point x="53" y="474"/>
      <point x="137" y="394" type="curve"/>
    </contour>
    <contour>
      <point x="229" y="376" type="line"/>
      <point x="137" y="376" type="line"/>
      <point x="137" y="219" type="line"/>
      <point x="88" y="215"/>
      <point x="25" y="187"/>
      <point x="25" y="108" type="curve" smooth="yes"/>
      <point x="25" y="20"/>
      <point x="87" y="0"/>
      <point x="142" y="0" type="curve" smooth="yes"/>
      <point x="160" y="0" type="line" smooth="yes"/>
      <point x="204" y="0"/>
      <point x="229" y="20"/>
      <point x="229" y="69" type="curve" smooth="yes"/>
    </contour>
    <contour>
      <point x="137" y="67" type="line"/>
      <point x="116" y="67"/>
      <point x="92" y="77"/>
      <point x="92" y="109" type="curve" smooth="yes"/>
      <point x="92" y="141"/>
      <point x="118" y="151"/>
      <point x="137" y="151" type="curve"/>
    </contour>
  </outline>
</glyph>
<glyph name="uni179D" format="2">
  <advance width="636"/>
  <unicode hex="179D"/>
  <note>
uni179D
</note>
  <outline>
    <contour>
      <point x="376" y="128" type="line"/>
      <point x="596" y="128" type="line"/>
      <point x="596" y="195" type="line"/>
      <point x="376" y="195" type="line"/>
    </contour>
    <contour>
      <point x="98" y="519" type="line"/>
      <point x="537" y="519" type="line"/>
      <point x="537" y="586" type="line"/>
      <point x="98" y="586" type="line"/>
    </contour>
    <contour>
      <point x="98" y="0" type="line"/>
      <point x="189" y="0" type="line"/>
      <point x="189" y="42" type="line"/>
      <point x="203" y="97"/>
      <point x="224" y="128"/>
      <point x="291" y="128" type="curve" smooth="yes"/>
      <point x="342" y="128" type="line"/>
      <point x="342" y="195" type="line"/>
      <point x="280" y="195" type="line" smooth="yes"/>
      <point x="242" y="195"/>
      <point x="212" y="182"/>
      <point x="189" y="156" type="curve"/>
      <point x="189" y="293" type="line" smooth="yes"/>
      <point x="189" y="353"/>
      <point x="232" y="383"/>
      <point x="317" y="383" type="curve" smooth="yes"/>
      <point x="403" y="383"/>
      <point x="445" y="353"/>
      <point x="445" y="293" type="curve" smooth="yes"/>
      <point x="445" y="0" type="line"/>
      <point x="537" y="0" type="line"/>
      <point x="537" y="293" type="line" smooth="yes"/>
      <point x="537" y="398"/>
      <point x="464" y="451"/>
      <point x="317" y="451" type="curve" smooth="yes"/>
      <point x="171" y="451"/>
      <point x="98" y="398"/>
      <point x="98" y="293" type="curve" smooth="yes"/>
    </contour>
  </outline>
</glyph>
<glyph name="uni179E" format="2">
  <advance width="636"/>
  <unicode hex="179E"/>
  <note>
uni179E
</note>
  <outline>
    <contour>
      <point x="361" y="259" type="line"/>
      <point x="586" y="259" type="line"/>
      <point x="586" y="326" type="line"/>
      <point x="361" y="326" type="line"/>
    </contour>
    <contour>
      <point x="190" y="371" type="line"/>
      <point x="98" y="371" type="line"/>
      <point x="98" y="158" type="line" smooth="yes"/>
      <point x="98" y="53"/>
      <point x="171" y="0"/>
      <point x="317" y="0" type="curve" smooth="yes"/>
      <point x="464" y="0"/>
      <point x="537" y="53"/>
      <point x="537" y="158" type="curve" smooth="yes"/>
      <point x="537" y="372" type="line"/>
      <point x="445" y="372" type="line"/>
      <point x="445" y="158" type="line" smooth="yes"/>
      <point x="445" y="98"/>
      <point x="403" y="67"/>
      <point x="317" y="67" type="curve" smooth="yes"/>
      <point x="232" y="67"/>
      <point x="190" y="98"/>
      <point x="190" y="158" type="curve" smooth="yes"/>
    </contour>
    <contour>
      <point x="445" y="361" type="line"/>
      <point x="537" y="361" type="line"/>
      <point x="537" y="410" type="line"/>
      <point x="440" y="518" type="line"/>
      <point x="440" y="519" type="line"/>
      <point x="561" y="519" type="line"/>
      <point x="561" y="586" type="line"/>
      <point x="440" y="586" type="line"/>
      <point x="386" y="515"/>
      <point x="376" y="502"/>
      <point x="376" y="491" type="curve" smooth="yes"/>
      <point x="376" y="478"/>
      <point x="382" y="471"/>
      <point x="445" y="394" type="curve"/>
    </contour>
    <contour>
      <point x="98" y="361" type="line"/>
      <point x="190" y="361" type="line"/>
      <point x="190" y="410" type="line"/>
      <point x="93" y="518" type="line"/>
      <point x="93" y="519" type="line"/>
      <point x="214" y="519" type="line"/>
      <point x="214" y="586" type="line"/>
      <point x="93" y="586" type="line"/>
      <point x="39" y="515"/>
      <point x="29" y="502"/>
      <point x="29" y="491" type="curve" smooth="yes"/>
      <point x="29" y="478"/>
      <point x="35" y="471"/>
      <point x="98" y="394" type="curve"/>
    </contour>
  </outline>
</glyph>
<glyph name="uni17A0" format="2">
  <advance width="928"/>
  <unicode hex="17A0"/>
  <note>
uni17A0
</note>
  <outline>
    <contour>
      <point x="190" y="373" type="line"/>
      <point x="98" y="373" type="line"/>
      <point x="98" y="158" type="line" smooth="yes"/>
      <point x="98" y="68"/>
      <point x="159" y="0"/>
      <point x="305" y="0" type="curve" smooth="yes"/>
      <point x="452" y="0"/>
      <point x="513" y="68"/>
      <point x="513" y="158" type="curve" smooth="yes"/>
      <point x="513" y="428" type="line" smooth="yes"/>
      <point x="513" y="488"/>
      <point x="551" y="519"/>
      <point x="625" y="519" type="curve" smooth="yes"/>
      <point x="700" y="519"/>
      <point x="738" y="488"/>
      <point x="738" y="428" type="curve" smooth="yes"/>
      <point x="738" y="0" type="line"/>
      <point x="830" y="0" type="line"/>
      <point x="830" y="428" type="line" smooth="yes"/>
      <point x="830" y="533"/>
      <point x="761" y="586"/>
      <point x="623" y="586" type="curve" smooth="yes"/>
      <point x="484" y="586"/>
      <point x="421" y="518"/>
      <point x="421" y="428" type="curve" smooth="yes"/>
      <point x="421" y="158" type="line" smooth="yes"/>
      <point x="421" y="98"/>
      <point x="383" y="67"/>
      <point x="305" y="67" type="curve" smooth="yes"/>
      <point x="227" y="67"/>
      <point x="190" y="98"/>
      <point x="190" y="158" type="curve" smooth="yes"/>
    </contour>
    <contour>
      <point x="98" y="361" type="line"/>
      <point x="190" y="361" type="line"/>
      <point x="190" y="410" type="line"/>
      <point x="93" y="518" type="line"/>
      <point x="93" y="519" type="line"/>
      <point x="214" y="519" type="line"/>
      <point x="214" y="586" type="line"/>
      <point x="93" y="586" type="line"/>
      <point x="39" y="515"/>
      <point x="29" y="502"/>
      <point x="29" y="491" type="curve" smooth="yes"/>
      <point x="29" y="478"/>
      <point x="35" y="471"/>
      <point x="98" y="394" type="curve"/>
    </contour>
  </outline>
</glyph>
<glyph name="uni17A2" format="2">
  <advance width="635"/>
  <unicode hex="17A2"/>
  <note>
uni17A2
</note>
  <outline>
    <contour>
      <point x="548" y="375" type="line"/>
      <point x="456" y="375" type="line"/>
      <point x="456" y="327" type="line"/>
      <point x="201" y="327" type="line"/>
      <point x="201" y="375" type="line"/>
      <point x="109" y="375" type="line"/>
      <point x="109" y="95" type="line" smooth="yes"/>
      <point x="109" y="75"/>
      <point x="86" y="67"/>
      <point x="40" y="67" type="curve"/>
      <point x="40" y="0" type="line"/>
      <point x="127" y="0" type="line" smooth="yes"/>
      <point x="176" y="0"/>
      <point x="201" y="17"/>
      <point x="201" y="50" type="curve" smooth="yes"/>
      <point x="201" y="259" type="line"/>
      <point x="456" y="259" type="line"/>
      <point x="456" y="95" type="line" smooth="yes"/>
      <point x="456" y="75"/>
      <point x="433" y="67"/>
      <point x="387" y="67" type="curve"/>
      <point x="387" y="0" type="line"/>
      <point x="475" y="0" type="line" smooth="yes"/>
      <point x="524" y="0"/>
      <point x="548" y="17"/>
      <point x="548" y="50" type="curve" smooth="yes"/>
    </contour>
    <contour>
      <point x="456" y="361" type="line"/>
      <point x="548" y="361" type="line"/>
      <point x="548" y="410" type="line"/>
      <point x="451" y="518" type="line"/>
      <point x="451" y="519" type="line"/>
      <point x="572" y="519" type="line"/>
      <point x="572" y="586" type="line"/>
      <point x="451" y="586" type="line"/>
      <point x="397" y="515"/>
      <point x="387" y="502"/>
      <point x="387" y="491" type="curve" smooth="yes"/>
      <point x="387" y="478"/>
      <point x="393" y="471"/>
      <point x="456" y="394" type="curve"/>
    </contour>
    <contour>
      <point x="109" y="361" type="line"/>
      <point x="201" y="361" type="line"/>
      <point x="201" y="410" type="line"/>
      <point x="104" y="518" type="line"/>
      <point x="104" y="519" type="line"/>
      <point x="225" y="519" type="line"/>
      <point x="225" y="586" type="line"/>
      <point x="104" y="586" type="line"/>
      <point x="50" y="515"/>
      <point x="40" y="502"/>
      <point x="40" y="491" type="curve" smooth="yes"/>
      <point x="40" y="478"/>
      <point x="46" y="471"/>
      <point x="109" y="394" type="curve"/>
    </contour>
  </outline>
</glyph>
<glyph name="uni17A5" format="2">
  <advance width="635"/>
  <unicode hex="17A5"/>
  <note>
uni17A5
</note>
  <outline>
    <contour>
      <point x="94" y="394" type="curve"/>
      <point x="154" y="446" type="line"/>
      <point x="129" y="475"/>
      <point x="117" y="493"/>
      <point x="117" y="504" type="curve" smooth="yes"/>
      <point x="117" y="508"/>
      <point x="117" y="508"/>
      <point x="129" y="523" type="curve"/>
      <point x="392" y="523" type="line" smooth="yes"/>
      <point x="489" y="523"/>
      <point x="538" y="554"/>
      <point x="538" y="615" type="curve" smooth="yes"/>
      <point x="538" y="688" type="line"/>
      <point x="446" y="688" type="line"/>
      <point x="446" y="615" type="line" smooth="yes"/>
      <point x="446" y="599"/>
      <point x="428" y="590"/>
      <point x="406" y="590" type="curve" smooth="yes"/>
      <point x="127" y="590" type="line"/>
      <point x="59" y="500"/>
      <point x="50" y="497"/>
      <point x="50" y="475" type="curve" smooth="yes"/>
      <point x="50" y="458"/>
      <point x="69" y="427"/>
    </contour>
    <contour>
      <point x="98" y="229" type="line"/>
      <point x="190" y="229" type="line"/>
      <point x="190" y="293" type="line" smooth="yes"/>
      <point x="190" y="353"/>
      <point x="232" y="383"/>
      <point x="317" y="383" type="curve" smooth="yes"/>
      <point x="403" y="383"/>
      <point x="445" y="353"/>
      <point x="445" y="293" type="curve" smooth="yes"/>
      <point x="445" y="0" type="line"/>
      <point x="537" y="0" type="line"/>
      <point x="537" y="293" type="line" smooth="yes"/>
      <point x="537" y="398"/>
      <point x="464" y="451"/>
      <point x="317" y="451" type="curve" smooth="yes"/>
      <point x="171" y="451"/>
      <point x="98" y="398"/>
      <point x="98" y="293" type="curve" smooth="yes"/>
    </contour>
    <contour>
      <point x="98" y="247" type="line"/>
      <point x="98" y="60" type="line" smooth="yes"/>
      <point x="98" y="20"/>
      <point x="128" y="0"/>
      <point x="164" y="0" type="curve" smooth="yes"/>
      <point x="192" y="0" type="line" smooth="yes"/>
      <point x="250" y="0"/>
      <point x="296" y="44"/>
      <point x="296" y="113" type="curve" smooth="yes"/>
      <point x="296" y="187"/>
      <point x="251" y="219"/>
      <point x="190" y="219" type="curve"/>
      <point x="190" y="247" type="line" smooth="yes"/>
    </contour>
    <contour>
      <point x="190" y="67" type="curve"/>
      <point x="190" y="151" type="line"/>
      <point x="220" y="150"/>
      <point x="234" y="136"/>
      <point x="234" y="112" type="curve" smooth="yes"/>
      <point x="234" y="84"/>
      <point x="220" y="67"/>
    </contour>
  </outline>
</glyph>
<glyph name="uni17A6" format="2">
  <advance width="929"/>
  <unicode hex="17A6"/>
  <note>
uni17A6
</note>
  <outline>
    <contour>
      <point x="831" y="555" type="line"/>
      <point x="739" y="555" type="line"/>
      <point x="739" y="-127" type="line" smooth="yes"/>
      <point x="739" y="-160"/>
      <point x="706" y="-176"/>
      <point x="641" y="-176" type="curve" smooth="yes"/>
      <point x="555" y="-176"/>
      <point x="513" y="-163"/>
      <point x="513" y="-138" type="curve" smooth="yes"/>
      <point x="513" y="-74"/>
      <point x="462" y="-24"/>
      <point x="317" y="-24" type="curve" smooth="yes"/>
      <point x="173" y="-24"/>
      <point x="122" y="-74"/>
      <point x="122" y="-138" type="curve" smooth="yes"/>
      <point x="122" y="-208" type="line" smooth="yes"/>
      <point x="122" y="-232"/>
      <point x="144" y="-244"/>
      <point x="187" y="-244" type="curve" smooth="yes"/>
      <point x="256" y="-244" type="line"/>
      <point x="256" y="-195" type="line"/>
      <point x="221" y="-195"/>
      <point x="204" y="-190"/>
      <point x="204" y="-179" type="curve" smooth="yes"/>
      <point x="204" y="-138" type="line" smooth="yes"/>
      <point x="204" y="-95"/>
      <point x="233" y="-73"/>
      <point x="317" y="-73" type="curve" smooth="yes"/>
      <point x="401" y="-73"/>
      <point x="431" y="-95"/>
      <point x="431" y="-138" type="curve" smooth="yes"/>
      <point x="431" y="-209"/>
      <point x="501" y="-244"/>
      <point x="641" y="-244" type="curve" smooth="yes"/>
      <point x="767" y="-244"/>
      <point x="831" y="-205"/>
      <point x="831" y="-127" type="curve" smooth="yes"/>
    </contour>
    <contour>
      <point x="98" y="229" type="line"/>
      <point x="190" y="229" type="line"/>
      <point x="190" y="423" type="line" smooth="yes"/>
      <point x="190" y="483"/>
      <point x="232" y="513"/>
      <point x="317" y="513" type="curve" smooth="yes"/>
      <point x="403" y="513"/>
      <point x="445" y="483"/>
      <point x="445" y="423" type="curve" smooth="yes"/>
      <point x="445" y="0" type="line"/>
      <point x="537" y="0" type="line"/>
      <point x="537" y="423" type="line" smooth="yes"/>
      <point x="537" y="528"/>
      <point x="464" y="581"/>
      <point x="317" y="581" type="curve" smooth="yes"/>
      <point x="171" y="581"/>
      <point x="98" y="528"/>
      <point x="98" y="423" type="curve" smooth="yes"/>
    </contour>
    <contour>
      <point x="98" y="247" type="line"/>
      <point x="98" y="60" type="line" smooth="yes"/>
      <point x="98" y="20"/>
      <point x="128" y="0"/>
      <point x="164" y="0" type="curve" smooth="yes"/>
      <point x="192" y="0" type="line" smooth="yes"/>
      <point x="250" y="0"/>
      <point x="296" y="44"/>
      <point x="296" y="113" type="curve" smooth="yes"/>
      <point x="296" y="187"/>
      <point x="251" y="219"/>
      <point x="190" y="219" type="curve"/>
      <point x="190" y="247" type="line" smooth="yes"/>
    </contour>
    <contour>
      <point x="190" y="67" type="curve"/>
      <point x="190" y="151" type="line"/>
      <point x="220" y="150"/>
      <point x="234" y="136"/>
      <point x="234" y="112" type="curve" smooth="yes"/>
      <point x="234" y="84"/>
      <point x="220" y="67"/>
    </contour>
    <contour>
      <point x="739" y="538" type="line"/>
      <point x="831" y="538" type="line"/>
      <point x="831" y="611" type="line" smooth="yes"/>
      <point x="831" y="729"/>
      <point x="771" y="787"/>
      <point x="649" y="787" type="curve" smooth="yes"/>
      <point x="602" y="787"/>
      <point x="568" y="775"/>
      <point x="543" y="759" type="curve"/>
      <point x="543" y="929" type="line"/>
      <point x="451" y="929" type="line"/>
      <point x="451" y="685" type="line"/>
      <point x="543" y="685" type="line"/>
      <point x="563" y="710"/>
      <point x="593" y="724"/>
      <point x="632" y="724" type="curve" smooth="yes"/>
      <point x="697" y="724"/>
      <point x="739" y="686"/>
      <point x="739" y="611" type="curve" smooth="yes"/>
    </contour>
  </outline>
</glyph>
<glyph name="uni17A9" format="2">
  <advance width="734"/>
  <unicode hex="17A9"/>
  <note>
uni17A9
</note>
  <outline>
    <contour>
      <point x="582" y="-4" type="line"/>
      <point x="674" y="-4" type="line"/>
      <point x="674" y="234" type="line"/>
      <point x="582" y="234" type="line"/>
    </contour>
    <contour>
      <point x="445" y="-4" type="line"/>
      <point x="537" y="-4" type="line"/>
      <point x="537" y="234" type="line"/>
      <point x="445" y="234" type="line"/>
      <point x="445" y="179" type="line" smooth="yes"/>
      <point x="445" y="138"/>
      <point x="334" y="67"/>
      <point x="262" y="67" type="curve" smooth="yes"/>
      <point x="206" y="67"/>
      <point x="189" y="98"/>
      <point x="189" y="158" type="curve" smooth="yes"/>
      <point x="189" y="231" type="line"/>
      <point x="277" y="244" type="line" smooth="yes"/>
      <point x="451" y="270"/>
      <point x="537" y="330"/>
      <point x="537" y="433" type="curve" smooth="yes"/>
      <point x="537" y="518"/>
      <point x="480" y="586"/>
      <point x="317" y="586" type="curve" smooth="yes"/>
      <point x="155" y="586"/>
      <point x="98" y="524"/>
      <point x="98" y="447" type="curve" smooth="yes"/>
      <point x="98" y="393"/>
      <point x="140" y="351"/>
      <point x="210" y="351" type="curve" smooth="yes"/>
      <point x="238" y="351" type="line"/>
      <point x="238" y="421" type="line"/>
      <point x="206" y="421"/>
      <point x="189" y="435"/>
      <point x="189" y="458" type="curve" smooth="yes"/>
      <point x="189" y="489"/>
      <point x="223" y="519"/>
      <point x="317" y="519" type="curve" smooth="yes"/>
      <point x="412" y="519"/>
      <point x="445" y="486"/>
      <point x="445" y="435" type="curve" smooth="yes"/>
      <point x="445" y="366"/>
      <point x="387" y="328"/>
      <point x="271" y="311" type="curve" smooth="yes"/>
      <point x="98" y="286" type="line"/>
      <point x="98" y="158" type="line" smooth="yes"/>
      <point x="98" y="68"/>
      <point x="147" y="0"/>
      <point x="253" y="0" type="curve" smooth="yes"/>
      <point x="324" y="0"/>
      <point x="397" y="37"/>
      <point x="444" y="75" type="curve"/>
      <point x="445" y="75" type="line"/>
    </contour>
  </outline>
</glyph>
<glyph name="uni17AA" format="2">
  <advance width="636"/>
  <unicode hex="17AA"/>
  <note>
uni17AA
</note>
  <outline>
    <contour>
      <point x="94" y="536" type="curve"/>
      <point x="154" y="588" type="line"/>
      <point x="129" y="617"/>
      <point x="117" y="635"/>
      <point x="117" y="646" type="curve" smooth="yes"/>
      <point x="117" y="650"/>
      <point x="117" y="650"/>
      <point x="129" y="665" type="curve"/>
      <point x="392" y="665" type="line" smooth="yes"/>
      <point x="489" y="665"/>
      <point x="538" y="696"/>
      <point x="538" y="757" type="curve" smooth="yes"/>
      <point x="538" y="830" type="line"/>
      <point x="446" y="830" type="line"/>
      <point x="446" y="757" type="line" smooth="yes"/>
      <point x="446" y="741"/>
      <point x="428" y="732"/>
      <point x="406" y="732" type="curve" smooth="yes"/>
      <point x="127" y="732" type="line"/>
      <point x="59" y="642"/>
      <point x="50" y="639"/>
      <point x="50" y="617" type="curve" smooth="yes"/>
      <point x="50" y="600"/>
      <point x="69" y="569"/>
    </contour>
    <contour>
      <point x="446" y="-4" type="line"/>
      <point x="538" y="-4" type="line"/>
      <point x="538" y="234" type="line"/>
      <point x="446" y="234" type="line"/>
      <point x="446" y="179" type="line" smooth="yes"/>
      <point x="446" y="138"/>
      <point x="335" y="67"/>
      <point x="263" y="67" type="curve" smooth="yes"/>
      <point x="207" y="67"/>
      <point x="190" y="98"/>
      <point x="190" y="158" type="curve" smooth="yes"/>
      <point x="190" y="231" type="line"/>
      <point x="278" y="244" type="line" smooth="yes"/>
      <point x="452" y="270"/>
      <point x="538" y="330"/>
      <point x="538" y="433" type="curve" smooth="yes"/>
      <point x="538" y="518"/>
      <point x="481" y="586"/>
      <point x="318" y="586" type="curve" smooth="yes"/>
      <point x="156" y="586"/>
      <point x="99" y="524"/>
      <point x="99" y="447" type="curve" smooth="yes"/>
      <point x="99" y="393"/>
      <point x="141" y="351"/>
      <point x="211" y="351" type="curve" smooth="yes"/>
      <point x="239" y="351" type="line"/>
      <point x="239" y="421" type="line"/>
      <point x="207" y="421"/>
      <point x="190" y="435"/>
      <point x="190" y="458" type="curve" smooth="yes"/>
      <point x="190" y="489"/>
      <point x="224" y="519"/>
      <point x="318" y="519" type="curve" smooth="yes"/>
      <point x="413" y="519"/>
      <point x="446" y="486"/>
      <point x="446" y="435" type="curve" smooth="yes"/>
      <point x="446" y="366"/>
      <point x="388" y="328"/>
      <point x="272" y="311" type="curve" smooth="yes"/>
      <point x="99" y="286" type="line"/>
      <point x="99" y="158" type="line" smooth="yes"/>
      <point x="99" y="68"/>
      <point x="148" y="0"/>
      <point x="254" y="0" type="curve" smooth="yes"/>
      <point x="325" y="0"/>
      <point x="398" y="37"/>
      <point x="445" y="75" type="curve"/>
      <point x="446" y="75" type="line"/>
    </contour>
  </outline>
</glyph>
<glyph name="uni17AE" format="2">
  <advance width="708"/>
  <unicode hex="17AE"/>
  <note>
uni17AE
</note>
  <outline>
    <contour>
      <point x="98" y="234" type="line"/>
      <point x="190" y="234" type="line"/>
      <point x="190" y="451" type="line" smooth="yes"/>
      <point x="190" y="492"/>
      <point x="201" y="513"/>
      <point x="225" y="513" type="curve" smooth="yes"/>
      <point x="262" y="513"/>
      <point x="286" y="452"/>
      <point x="317" y="452" type="curve" smooth="yes"/>
      <point x="350" y="452"/>
      <point x="369" y="513"/>
      <point x="410" y="513" type="curve" smooth="yes"/>
      <point x="434" y="513"/>
      <point x="445" y="492"/>
      <point x="445" y="451" type="curve" smooth="yes"/>
      <point x="445" y="0" type="line"/>
      <point x="537" y="0" type="line"/>
      <point x="537" y="451" type="line" smooth="yes"/>
      <point x="537" y="524"/>
      <point x="511" y="586"/>
      <point x="437" y="586" type="curve" smooth="yes"/>
      <point x="388" y="586"/>
      <point x="356" y="565"/>
      <point x="319" y="525" type="curve"/>
      <point x="317" y="525" type="line"/>
      <point x="281" y="566"/>
      <point x="248" y="586"/>
      <point x="214" y="586" type="curve" smooth="yes"/>
      <point x="128" y="586"/>
      <point x="98" y="524"/>
      <point x="98" y="451" type="curve" smooth="yes"/>
    </contour>
    <contour>
      <point x="98" y="247" type="line"/>
      <point x="98" y="60" type="line" smooth="yes"/>
      <point x="98" y="20"/>
      <point x="128" y="0"/>
      <point x="164" y="0" type="curve" smooth="yes"/>
      <point x="192" y="0" type="line" smooth="yes"/>
      <point x="250" y="0"/>
      <point x="296" y="44"/>
      <point x="296" y="113" type="curve" smooth="yes"/>
      <point x="296" y="187"/>
      <point x="251" y="219"/>
      <point x="190" y="219" type="curve"/>
      <point x="190" y="247" type="line" smooth="yes"/>
    </contour>
    <contour>
      <point x="190" y="67" type="curve"/>
      <point x="190" y="151" type="line"/>
      <point x="220" y="150"/>
      <point x="234" y="136"/>
      <point x="234" y="112" type="curve" smooth="yes"/>
      <point x="234" y="84"/>
      <point x="220" y="67"/>
    </contour>
    <contour>
      <point x="470" y="-194" type="line"/>
      <point x="502" y="-226"/>
      <point x="541" y="-244"/>
      <point x="583" y="-244" type="curve" smooth="yes"/>
      <point x="611" y="-244" type="line"/>
      <point x="611" y="-186" type="line"/>
      <point x="588" y="-186" type="line" smooth="yes"/>
      <point x="560" y="-186"/>
      <point x="538" y="-169"/>
      <point x="520" y="-141" type="curve"/>
    </contour>
    <contour>
      <point x="99" y="-244" type="line"/>
      <point x="251" y="-244" type="line" smooth="yes"/>
      <point x="446" y="-244"/>
      <point x="538" y="-192"/>
      <point x="538" y="-51" type="curve" smooth="yes"/>
      <point x="538" y="-24" type="line"/>
      <point x="392" y="-24" type="line"/>
      <point x="392" y="-88" type="line"/>
      <point x="446" y="-88" type="line"/>
      <point x="444" y="-153"/>
      <point x="379" y="-186"/>
      <point x="245" y="-186" type="curve" smooth="yes"/>
      <point x="99" y="-186" type="line"/>
    </contour>
  </outline>
</glyph>
<glyph name="uni17AF" format="2">
  <advance width="635"/>
  <unicode hex="17AF"/>
  <note>
uni17AF
</note>
  <outline>
    <contour>
      <point x="98" y="0" type="line"/>
      <point x="204" y="0" type="line"/>
      <point x="318" y="103" type="line"/>
      <point x="431" y="0" type="line"/>
      <point x="537" y="0" type="line"/>
      <point x="537" y="438" type="line" smooth="yes"/>
      <point x="537" y="537"/>
      <point x="491" y="586"/>
      <point x="398" y="586" type="curve" smooth="yes"/>
      <point x="259" y="586" type="line" smooth="yes"/>
      <point x="213" y="586"/>
      <point x="190" y="610"/>
      <point x="190" y="643" type="curve" smooth="yes"/>
      <point x="190" y="742" type="line"/>
      <point x="98" y="742" type="line"/>
      <point x="98" y="643" type="line" smooth="yes"/>
      <point x="98" y="559"/>
      <point x="168" y="519"/>
      <point x="259" y="519" type="curve" smooth="yes"/>
      <point x="352" y="519" type="line" smooth="yes"/>
      <point x="414" y="519"/>
      <point x="445" y="492"/>
      <point x="445" y="438" type="curve" smooth="yes"/>
      <point x="445" y="82" type="line"/>
      <point x="318" y="198" type="line"/>
      <point x="190" y="81" type="line"/>
      <point x="190" y="392" type="line" smooth="yes"/>
      <point x="190" y="439"/>
      <point x="167" y="462"/>
      <point x="122" y="462" type="curve" smooth="yes"/>
      <point x="49" y="462" type="line"/>
      <point x="49" y="392" type="line"/>
      <point x="82" y="392"/>
      <point x="98" y="385"/>
      <point x="98" y="372" type="curve" smooth="yes"/>
    </contour>
  </outline>
</glyph>
<glyph name="uni17B0" format="2">
  <advance width="635"/>
  <unicode hex="17B0"/>
  <note>
uni17B0
</note>
  <outline>
    <contour>
      <point x="98" y="234" type="line"/>
      <point x="190" y="234" type="line"/>
      <point x="190" y="451" type="line" smooth="yes"/>
      <point x="190" y="492"/>
      <point x="201" y="513"/>
      <point x="225" y="513" type="curve" smooth="yes"/>
      <point x="262" y="513"/>
      <point x="286" y="452"/>
      <point x="317" y="452" type="curve" smooth="yes"/>
      <point x="350" y="452"/>
      <point x="369" y="513"/>
      <point x="410" y="513" type="curve" smooth="yes"/>
      <point x="434" y="513"/>
      <point x="445" y="492"/>
      <point x="445" y="451" type="curve" smooth="yes"/>
      <point x="445" y="0" type="line"/>
      <point x="537" y="0" type="line"/>
      <point x="537" y="451" type="line" smooth="yes"/>
      <point x="537" y="524"/>
      <point x="511" y="586"/>
      <point x="437" y="586" type="curve" smooth="yes"/>
      <point x="388" y="586"/>
      <point x="356" y="565"/>
      <point x="319" y="525" type="curve"/>
      <point x="317" y="525" type="line"/>
      <point x="281" y="566"/>
      <point x="248" y="586"/>
      <point x="214" y="586" type="curve" smooth="yes"/>
      <point x="128" y="586"/>
      <point x="98" y="524"/>
      <point x="98" y="451" type="curve" smooth="yes"/>
    </contour>
    <contour>
      <point x="98" y="247" type="line"/>
      <point x="98" y="60" type="line" smooth="yes"/>
      <point x="98" y="20"/>
      <point x="128" y="0"/>
      <point x="164" y="0" type="curve" smooth="yes"/>
      <point x="192" y="0" type="line" smooth="yes"/>
      <point x="250" y="0"/>
      <point x="296" y="44"/>
      <point x="296" y="113" type="curve" smooth="yes"/>
      <point x="296" y="187"/>
      <point x="251" y="219"/>
      <point x="190" y="219" type="curve"/>
      <point x="190" y="247" type="line" smooth="yes"/>
    </contour>
    <contour>
      <point x="190" y="67" type="curve"/>
      <point x="190" y="151" type="line"/>
      <point x="220" y="150"/>
      <point x="234" y="136"/>
      <point x="234" y="112" type="curve" smooth="yes"/>
      <point x="234" y="84"/>
      <point x="220" y="67"/>
    </contour>
    <contour>
      <point x="251" y="-212" type="curve" smooth="yes"/>
      <point x="323" y="-212"/>
      <point x="356" y="-182"/>
      <point x="365" y="-152" type="curve"/>
      <point x="379" y="-162"/>
      <point x="400" y="-173"/>
      <point x="434" y="-173" type="curve" smooth="yes"/>
      <point x="486" y="-173"/>
      <point x="537" y="-150"/>
      <point x="537" y="-64" type="curve" smooth="yes"/>
      <point x="537" y="8" type="line"/>
      <point x="456" y="8" type="line"/>
      <point x="434" y="-15"/>
      <point x="335" y="-36"/>
      <point x="146" y="-75" type="curve"/>
      <point x="146" y="-136" type="line" smooth="yes"/>
      <point x="146" y="-189"/>
      <point x="190" y="-212"/>
    </contour>
    <contour>
      <point x="263" y="-161" type="curve" smooth="yes"/>
      <point x="241" y="-161"/>
      <point x="228" y="-150"/>
      <point x="228" y="-131" type="curve" smooth="yes"/>
      <point x="228" y="-112" type="line"/>
      <point x="314" y="-93" type="line"/>
      <point x="314" y="-113" type="line" smooth="yes"/>
      <point x="314" y="-140"/>
      <point x="292" y="-161"/>
    </contour>
    <contour>
      <point x="455" y="-77" type="line" smooth="yes"/>
      <point x="455" y="-101"/>
      <point x="439" y="-118"/>
      <point x="409" y="-118" type="curve" smooth="yes"/>
      <point x="384" y="-118"/>
      <point x="369" y="-110"/>
      <point x="369" y="-96" type="curve" smooth="yes"/>
      <point x="369" y="-80" type="line"/>
      <point x="455" y="-60" type="line"/>
    </contour>
  </outline>
</glyph>
<glyph name="uni17B1" format="2">
  <advance width="645"/>
  <unicode hex="17B1"/>
  <note>
uni17B1
</note>
  <outline>
    <contour>
      <point x="98" y="544" type="curve"/>
      <point x="164" y="588" type="line"/>
      <point x="139" y="617"/>
      <point x="127" y="635"/>
      <point x="127" y="646" type="curve" smooth="yes"/>
      <point x="127" y="651"/>
      <point x="129" y="653"/>
      <point x="139" y="665" type="curve"/>
      <point x="441" y="665" type="line" smooth="yes"/>
      <point x="477" y="665"/>
      <point x="508" y="634"/>
      <point x="510" y="567" type="curve"/>
      <point x="587" y="597" type="line"/>
      <point x="571" y="687"/>
      <point x="522" y="732"/>
      <point x="441" y="732" type="curve" smooth="yes"/>
      <point x="137" y="732" type="line"/>
      <point x="69" y="642"/>
      <point x="60" y="631"/>
      <point x="60" y="613" type="curve" smooth="yes"/>
      <point x="60" y="600"/>
      <point x="73" y="577"/>
    </contour>
    <contour>
      <point x="456" y="-4" type="line"/>
      <point x="548" y="-4" type="line"/>
      <point x="548" y="234" type="line"/>
      <point x="456" y="234" type="line"/>
      <point x="456" y="179" type="line" smooth="yes"/>
      <point x="456" y="138"/>
      <point x="345" y="67"/>
      <point x="273" y="67" type="curve" smooth="yes"/>
      <point x="217" y="67"/>
      <point x="200" y="98"/>
      <point x="200" y="158" type="curve" smooth="yes"/>
      <point x="200" y="231" type="line"/>
      <point x="288" y="244" type="line" smooth="yes"/>
      <point x="462" y="270"/>
      <point x="548" y="330"/>
      <point x="548" y="433" type="curve" smooth="yes"/>
      <point x="548" y="518"/>
      <point x="491" y="586"/>
      <point x="328" y="586" type="curve" smooth="yes"/>
      <point x="166" y="586"/>
      <point x="109" y="524"/>
      <point x="109" y="447" type="curve" smooth="yes"/>
      <point x="109" y="393"/>
      <point x="151" y="351"/>
      <point x="221" y="351" type="curve" smooth="yes"/>
      <point x="249" y="351" type="line"/>
      <point x="249" y="421" type="line"/>
      <point x="217" y="421"/>
      <point x="200" y="435"/>
      <point x="200" y="458" type="curve" smooth="yes"/>
      <point x="200" y="489"/>
      <point x="234" y="519"/>
      <point x="328" y="519" type="curve" smooth="yes"/>
      <point x="423" y="519"/>
      <point x="456" y="486"/>
      <point x="456" y="435" type="curve" smooth="yes"/>
      <point x="456" y="366"/>
      <point x="398" y="328"/>
      <point x="282" y="311" type="curve" smooth="yes"/>
      <point x="109" y="286" type="line"/>
      <point x="109" y="158" type="line" smooth="yes"/>
      <point x="109" y="68"/>
      <point x="158" y="0"/>
      <point x="264" y="0" type="curve" smooth="yes"/>
      <point x="335" y="0"/>
      <point x="408" y="37"/>
      <point x="455" y="75" type="curve"/>
      <point x="456" y="75" type="line"/>
    </contour>
  </outline>
</glyph>
<glyph name="uni17B2" format="2">
  <advance width="580"/>
  <unicode hex="17B2"/>
  <note>
uni17B2
</note>
  <outline>
    <contour>
      <point x="295" y="0" type="curve" smooth="yes"/>
      <point x="458" y="0"/>
      <point x="527" y="68"/>
      <point x="527" y="172" type="curve" smooth="yes"/>
      <point x="527" y="224"/>
      <point x="513" y="249"/>
      <point x="487" y="284" type="curve"/>
      <point x="532" y="326"/>
      <point x="540" y="333"/>
      <point x="540" y="348" type="curve" smooth="yes"/>
      <point x="540" y="358"/>
      <point x="535" y="364"/>
      <point x="477" y="439" type="curve"/>
      <point x="292" y="439" type="line"/>
      <point x="292" y="372" type="line"/>
      <point x="477" y="372" type="line"/>
      <point x="313" y="227" type="line"/>
      <point x="369" y="176" type="line"/>
      <point x="420" y="221" type="line"/>
      <point x="427" y="210"/>
      <point x="435" y="197"/>
      <point x="435" y="159" type="curve" smooth="yes"/>
      <point x="435" y="99"/>
      <point x="390" y="67"/>
      <point x="295" y="67" type="curve" smooth="yes"/>
      <point x="201" y="67"/>
      <point x="168" y="98"/>
      <point x="168" y="158" type="curve" smooth="yes"/>
      <point x="168" y="428" type="line" smooth="yes"/>
      <point x="168" y="488"/>
      <point x="205" y="519"/>
      <point x="283" y="519" type="curve" smooth="yes"/>
      <point x="358" y="519"/>
      <point x="415" y="506"/>
      <point x="454" y="481" type="curve"/>
      <point x="491" y="541" type="line"/>
      <point x="445" y="571"/>
      <point x="376" y="586"/>
      <point x="283" y="586" type="curve" smooth="yes"/>
      <point x="137" y="586"/>
      <point x="76" y="518"/>
      <point x="76" y="428" type="curve" smooth="yes"/>
      <point x="76" y="158" type="line" smooth="yes"/>
      <point x="76" y="68"/>
      <point x="133" y="0"/>
    </contour>
  </outline>
</glyph>
<glyph name="uni17B3" format="2">
  <advance width="635"/>
  <unicode hex="17B3"/>
  <note>
uni17B3
</note>
  <outline>
    <contour>
      <point x="87" y="544" type="curve"/>
      <point x="153" y="588" type="line"/>
      <point x="128" y="617"/>
      <point x="116" y="635"/>
      <point x="116" y="646" type="curve" smooth="yes"/>
      <point x="116" y="651"/>
      <point x="118" y="653"/>
      <point x="128" y="665" type="curve"/>
      <point x="427" y="665" type="line"/>
      <point x="515" y="560" type="line"/>
      <point x="576" y="597" type="line"/>
      <point x="562" y="675"/>
      <point x="524" y="720"/>
      <point x="461" y="730" type="curve"/>
      <point x="425" y="772"/>
      <point x="420" y="785"/>
      <point x="420" y="809" type="curve" smooth="yes"/>
      <point x="420" y="833"/>
      <point x="429" y="856"/>
      <point x="454" y="890" type="curve"/>
      <point x="389" y="923" type="line"/>
      <point x="357" y="885"/>
      <point x="342" y="849"/>
      <point x="342" y="814" type="curve" smooth="yes"/>
      <point x="342" y="787"/>
      <point x="352" y="759"/>
      <point x="372" y="732" type="curve"/>
      <point x="126" y="732" type="line"/>
      <point x="58" y="642"/>
      <point x="49" y="630"/>
      <point x="49" y="616" type="curve" smooth="yes"/>
      <point x="49" y="600"/>
      <point x="62" y="577"/>
    </contour>
    <contour>
      <point x="445" y="-4" type="line"/>
      <point x="537" y="-4" type="line"/>
      <point x="537" y="234" type="line"/>
      <point x="445" y="234" type="line"/>
      <point x="445" y="179" type="line" smooth="yes"/>
      <point x="445" y="138"/>
      <point x="334" y="67"/>
      <point x="262" y="67" type="curve" smooth="yes"/>
      <point x="206" y="67"/>
      <point x="189" y="98"/>
      <point x="189" y="158" type="curve" smooth="yes"/>
      <point x="189" y="231" type="line"/>
      <point x="277" y="244" type="line" smooth="yes"/>
      <point x="451" y="270"/>
      <point x="537" y="330"/>
      <point x="537" y="433" type="curve" smooth="yes"/>
      <point x="537" y="518"/>
      <point x="480" y="586"/>
      <point x="317" y="586" type="curve" smooth="yes"/>
      <point x="155" y="586"/>
      <point x="98" y="524"/>
      <point x="98" y="447" type="curve" smooth="yes"/>
      <point x="98" y="393"/>
      <point x="140" y="351"/>
      <point x="210" y="351" type="curve" smooth="yes"/>
      <point x="238" y="351" type="line"/>
      <point x="238" y="421" type="line"/>
      <point x="206" y="421"/>
      <point x="189" y="435"/>
      <point x="189" y="458" type="curve" smooth="yes"/>
      <point x="189" y="489"/>
      <point x="223" y="519"/>
      <point x="317" y="519" type="curve" smooth="yes"/>
      <point x="412" y="519"/>
      <point x="445" y="486"/>
      <point x="445" y="435" type="curve" smooth="yes"/>
      <point x="445" y="366"/>
      <point x="387" y="328"/>
      <point x="271" y="311" type="curve" smooth="yes"/>
      <point x="98" y="286" type="line"/>
      <point x="98" y="158" type="line" smooth="yes"/>
      <point x="98" y="68"/>
      <point x="147" y="0"/>
      <point x="253" y="0" type="curve" smooth="yes"/>
      <point x="324" y="0"/>
      <point x="397" y="37"/>
      <point x="444" y="75" type="curve"/>
      <point x="445" y="75" type="line"/>
    </contour>
  </outline>
</glyph>
<glyph name="uni17B6" format="2">
  <advance width="288"/>
  <unicode hex="17B6"/>
  <note>
uni17B6
</note>
  <outline>
    <contour>
      <point x="98" y="0" type="line"/>
      <point x="190" y="0" type="line"/>
      <point x="190" y="458" type="line" smooth="yes"/>
      <point x="190" y="543"/>
      <point x="167" y="586"/>
      <point x="66" y="586" type="curve" smooth="yes"/>
      <point x="-118" y="586" type="line"/>
      <point x="-118" y="519" type="line"/>
      <point x="20" y="519" type="line" smooth="yes"/>
      <point x="82" y="519"/>
      <point x="98" y="504"/>
      <point x="98" y="458" type="curve" smooth="yes"/>
    </contour>
  </outline>
</glyph>
<glyph name="uni17B7" format="2">
  <unicode hex="17B7"/>
  <note>
uni17B7
</note>
  <outline>
    <contour>
      <point x="-451" y="684" type="curve" smooth="yes"/>
      <point x="-85" y="684" type="line"/>
      <point x="-85" y="757" type="line"/>
      <point x="-156" y="822"/>
      <point x="-251" y="879"/>
      <point x="-348" y="879" type="curve" smooth="yes"/>
      <point x="-446" y="879"/>
      <point x="-500" y="822"/>
      <point x="-500" y="757" type="curve" smooth="yes"/>
      <point x="-500" y="708"/>
      <point x="-484" y="684"/>
    </contour>
    <contour>
      <point x="-426" y="747" type="line"/>
      <point x="-426" y="799"/>
      <point x="-397" y="816"/>
      <point x="-348" y="816" type="curve" smooth="yes"/>
      <point x="-309" y="816"/>
      <point x="-251" y="799"/>
      <point x="-178" y="747" type="curve"/>
    </contour>
  </outline>
</glyph>
<glyph name="uni17B9" format="2">
  <unicode hex="17B9"/>
  <note>
uni17B9
</note>
  <outline>
    <contour>
      <point x="-278" y="865" type="curve"/>
      <point x="-111" y="764" type="line"/>
      <point x="-102" y="773"/>
      <point x="-82" y="808"/>
      <point x="-82" y="845" type="curve" smooth="yes"/>
      <point x="-82" y="894"/>
      <point x="-121" y="930"/>
      <point x="-175" y="930" type="curve" smooth="yes"/>
      <point x="-221" y="930"/>
      <point x="-260" y="902"/>
    </contour>
    <contour>
      <point x="-222" y="848" type="line"/>
      <point x="-208" y="864"/>
      <point x="-195" y="873"/>
      <point x="-175" y="873" type="curve" smooth="yes"/>
      <point x="-153" y="873"/>
      <point x="-140" y="858"/>
      <point x="-140" y="840" type="curve" smooth="yes"/>
      <point x="-140" y="826"/>
      <point x="-145" y="812"/>
      <point x="-151" y="806" type="curve"/>
    </contour>
    <contour>
      <point x="-451" y="684" type="curve" smooth="yes"/>
      <point x="-85" y="684" type="line"/>
      <point x="-85" y="757" type="line"/>
      <point x="-156" y="822"/>
      <point x="-251" y="879"/>
      <point x="-348" y="879" type="curve" smooth="yes"/>
      <point x="-446" y="879"/>
      <point x="-500" y="822"/>
      <point x="-500" y="757" type="curve" smooth="yes"/>
      <point x="-500" y="708"/>
      <point x="-484" y="684"/>
    </contour>
    <contour>
      <point x="-426" y="747" type="line"/>
      <point x="-426" y="799"/>
      <point x="-397" y="816"/>
      <point x="-348" y="816" type="curve" smooth="yes"/>
      <point x="-309" y="816"/>
      <point x="-251" y="799"/>
      <point x="-178" y="747" type="curve"/>
    </contour>
  </outline>
</glyph>
<glyph name="uni17BA" format="2">
  <unicode hex="17BA"/>
  <note>
uni17BA
</note>
  <outline>
    <contour>
      <point x="-152" y="903" type="line"/>
      <point x="-152" y="684" type="line"/>
      <point x="-85" y="684" type="line"/>
      <point x="-85" y="903" type="line"/>
    </contour>
    <contour>
      <point x="-259" y="928" type="line"/>
      <point x="-259" y="814" type="line"/>
      <point x="-192" y="814" type="line"/>
      <point x="-192" y="928" type="line"/>
    </contour>
    <contour>
      <point x="-451" y="684" type="curve" smooth="yes"/>
      <point x="-85" y="684" type="line"/>
      <point x="-85" y="757" type="line"/>
      <point x="-156" y="822"/>
      <point x="-251" y="879"/>
      <point x="-348" y="879" type="curve" smooth="yes"/>
      <point x="-446" y="879"/>
      <point x="-500" y="822"/>
      <point x="-500" y="757" type="curve" smooth="yes"/>
      <point x="-500" y="708"/>
      <point x="-484" y="684"/>
    </contour>
    <contour>
      <point x="-426" y="747" type="line"/>
      <point x="-426" y="799"/>
      <point x="-397" y="816"/>
      <point x="-348" y="816" type="curve" smooth="yes"/>
      <point x="-309" y="816"/>
      <point x="-251" y="799"/>
      <point x="-178" y="747" type="curve"/>
    </contour>
  </outline>
</glyph>
<glyph name="uni17BB" format="2">
  <unicode hex="17BB"/>
  <note>
uni17BB
</note>
  <outline>
    <contour>
      <point x="-321" y="-244" type="line"/>
      <point x="-229" y="-244" type="line"/>
      <point x="-229" y="-34" type="line"/>
      <point x="-373" y="-34" type="line"/>
      <point x="-373" y="-92" type="line"/>
      <point x="-321" y="-92" type="line"/>
    </contour>
  </outline>
</glyph>
<glyph name="uni17BC" format="2">
  <unicode hex="17BC"/>
  <note>
uni17BC
</note>
  <outline>
    <contour>
      <point x="-297" y="-244" type="curve" smooth="yes"/>
      <point x="-199" y="-244"/>
      <point x="-155" y="-205"/>
      <point x="-155" y="-137" type="curve" smooth="yes"/>
      <point x="-155" y="-34" type="line"/>
      <point x="-237" y="-34" type="line"/>
      <point x="-237" y="-137" type="line" smooth="yes"/>
      <point x="-237" y="-166"/>
      <point x="-257" y="-186"/>
      <point x="-297" y="-186" type="curve" smooth="yes"/>
      <point x="-337" y="-186"/>
      <point x="-357" y="-166"/>
      <point x="-357" y="-137" type="curve" smooth="yes"/>
      <point x="-357" y="-34" type="line"/>
      <point x="-439" y="-34" type="line"/>
      <point x="-439" y="-137" type="line" smooth="yes"/>
      <point x="-439" y="-205"/>
      <point x="-395" y="-244"/>
    </contour>
  </outline>
</glyph>
<glyph name="uni17BD" format="2">
  <unicode hex="17BD"/>
  <note>
uni17BD
</note>
  <outline>
    <contour>
      <point x="-456" y="-244" type="line"/>
      <point x="-358" y="-244" type="line"/>
      <point x="-297" y="-191" type="line"/>
      <point x="-236" y="-244" type="line"/>
      <point x="-139" y="-244" type="line"/>
      <point x="-139" y="-34" type="line"/>
      <point x="-226" y="-34" type="line"/>
      <point x="-226" y="-185" type="line"/>
      <point x="-297" y="-122" type="line"/>
      <point x="-369" y="-186" type="line"/>
      <point x="-369" y="-34" type="line"/>
      <point x="-456" y="-34" type="line"/>
    </contour>
  </outline>
</glyph>
<glyph name="uni17BE" format="2">
  <unicode hex="17BE"/>
  <note>
uni17BE
</note>
  <outline>
    <contour>
      <point x="782" y="654" type="line"/>
      <point x="782" y="873" type="line"/>
      <point x="715" y="873" type="line"/>
      <point x="715" y="654" type="line"/>
    </contour>
    <contour>
      <point x="416" y="654" type="curve" smooth="yes"/>
      <point x="782" y="654" type="line"/>
      <point x="782" y="727" type="line"/>
      <point x="711" y="792"/>
      <point x="616" y="849"/>
      <point x="519" y="849" type="curve" smooth="yes"/>
      <point x="421" y="849"/>
      <point x="367" y="792"/>
      <point x="367" y="727" type="curve" smooth="yes"/>
      <point x="367" y="678"/>
      <point x="383" y="654"/>
    </contour>
    <contour>
      <point x="441" y="717" type="line"/>
      <point x="441" y="769"/>
      <point x="470" y="786"/>
      <point x="519" y="786" type="curve" smooth="yes"/>
      <point x="558" y="786"/>
      <point x="616" y="769"/>
      <point x="689" y="717" type="curve"/>
    </contour>
    <contour>
      <point x="189" y="377" type="line"/>
      <point x="97" y="377" type="line"/>
      <point x="97" y="50" type="line" smooth="yes"/>
      <point x="97" y="17"/>
      <point x="122" y="0"/>
      <point x="171" y="0" type="curve" smooth="yes"/>
      <point x="268" y="0" type="line"/>
      <point x="268" y="67" type="line"/>
      <point x="221" y="67" type="line" smooth="yes"/>
      <point x="197" y="67"/>
      <point x="189" y="75"/>
      <point x="189" y="102" type="curve" smooth="yes"/>
    </contour>
    <contour>
      <point x="97" y="361" type="line"/>
      <point x="189" y="361" type="line"/>
      <point x="189" y="410" type="line"/>
      <point x="92" y="518" type="line"/>
      <point x="92" y="519" type="line"/>
      <point x="213" y="519" type="line"/>
      <point x="213" y="586" type="line"/>
      <point x="92" y="586" type="line"/>
      <point x="38" y="515"/>
      <point x="28" y="502"/>
      <point x="28" y="491" type="curve" smooth="yes"/>
      <point x="28" y="478"/>
      <point x="34" y="471"/>
      <point x="97" y="394" type="curve"/>
    </contour>
    <contour>
      <point x="367" y="267" type="curve" smooth="yes"/>
      <point x="380" y="267"/>
      <point x="391" y="278"/>
      <point x="391" y="291" type="curve" smooth="yes"/>
      <point x="391" y="304"/>
      <point x="380" y="315"/>
      <point x="367" y="315" type="curve" smooth="yes"/>
      <point x="354" y="315"/>
      <point x="343" y="304"/>
      <point x="343" y="291" type="curve" smooth="yes"/>
      <point x="343" y="278"/>
      <point x="354" y="267"/>
    </contour>
    <contour>
      <point x="393" y="368" type="curve" smooth="yes"/>
      <point x="406" y="368"/>
      <point x="417" y="379"/>
      <point x="417" y="392" type="curve" smooth="yes"/>
      <point x="417" y="405"/>
      <point x="406" y="416"/>
      <point x="393" y="416" type="curve" smooth="yes"/>
      <point x="380" y="416"/>
      <point x="369" y="405"/>
      <point x="369" y="392" type="curve" smooth="yes"/>
      <point x="369" y="379"/>
      <point x="380" y="368"/>
    </contour>
    <contour>
      <point x="464" y="438" type="curve" smooth="yes"/>
      <point x="477" y="438"/>
      <point x="488" y="449"/>
      <point x="488" y="462" type="curve" smooth="yes"/>
      <point x="488" y="475"/>
      <point x="477" y="486"/>
      <point x="464" y="486" type="curve" smooth="yes"/>
      <point x="451" y="486"/>
      <point x="440" y="475"/>
      <point x="440" y="462" type="curve" smooth="yes"/>
      <point x="440" y="449"/>
      <point x="451" y="438"/>
    </contour>
    <contour>
      <point x="561" y="462" type="curve" smooth="yes"/>
      <point x="574" y="462"/>
      <point x="585" y="473"/>
      <point x="585" y="486" type="curve" smooth="yes"/>
      <point x="585" y="499"/>
      <point x="574" y="510"/>
      <point x="561" y="510" type="curve" smooth="yes"/>
      <point x="548" y="510"/>
      <point x="537" y="499"/>
      <point x="537" y="486" type="curve" smooth="yes"/>
      <point x="537" y="473"/>
      <point x="548" y="462"/>
    </contour>
    <contour>
      <point x="658" y="438" type="curve" smooth="yes"/>
      <point x="671" y="438"/>
      <point x="682" y="449"/>
      <point x="682" y="462" type="curve" smooth="yes"/>
      <point x="682" y="475"/>
      <point x="671" y="486"/>
      <point x="658" y="486" type="curve" smooth="yes"/>
      <point x="645" y="486"/>
      <point x="634" y="475"/>
      <point x="634" y="462" type="curve" smooth="yes"/>
      <point x="634" y="449"/>
      <point x="645" y="438"/>
    </contour>
    <contour>
      <point x="728" y="366" type="curve" smooth="yes"/>
      <point x="741" y="366"/>
      <point x="752" y="377"/>
      <point x="752" y="390" type="curve" smooth="yes"/>
      <point x="752" y="403"/>
      <point x="741" y="414"/>
      <point x="728" y="414" type="curve" smooth="yes"/>
      <point x="715" y="414"/>
      <point x="704" y="403"/>
      <point x="704" y="390" type="curve" smooth="yes"/>
      <point x="704" y="377"/>
      <point x="715" y="366"/>
    </contour>
    <contour>
      <point x="758" y="267" type="curve" smooth="yes"/>
      <point x="771" y="267"/>
      <point x="782" y="278"/>
      <point x="782" y="291" type="curve" smooth="yes"/>
      <point x="782" y="304"/>
      <point x="771" y="315"/>
      <point x="758" y="315" type="curve" smooth="yes"/>
      <point x="745" y="315"/>
      <point x="734" y="304"/>
      <point x="734" y="291" type="curve" smooth="yes"/>
      <point x="734" y="278"/>
      <point x="745" y="267"/>
    </contour>
    <contour>
      <point x="730" y="173" type="curve" smooth="yes"/>
      <point x="743" y="173"/>
      <point x="754" y="184"/>
      <point x="754" y="197" type="curve" smooth="yes"/>
      <point x="754" y="210"/>
      <point x="743" y="221"/>
      <point x="730" y="221" type="curve" smooth="yes"/>
      <point x="717" y="221"/>
      <point x="706" y="210"/>
      <point x="706" y="197" type="curve" smooth="yes"/>
      <point x="706" y="184"/>
      <point x="717" y="173"/>
    </contour>
    <contour>
      <point x="659" y="101" type="curve" smooth="yes"/>
      <point x="672" y="101"/>
      <point x="683" y="112"/>
      <point x="683" y="125" type="curve" smooth="yes"/>
      <point x="683" y="138"/>
      <point x="672" y="149"/>
      <point x="659" y="149" type="curve" smooth="yes"/>
      <point x="646" y="149"/>
      <point x="635" y="138"/>
      <point x="635" y="125" type="curve" smooth="yes"/>
      <point x="635" y="112"/>
      <point x="646" y="101"/>
    </contour>
    <contour>
      <point x="561" y="73" type="curve" smooth="yes"/>
      <point x="574" y="73"/>
      <point x="585" y="84"/>
      <point x="585" y="97" type="curve" smooth="yes"/>
      <point x="585" y="110"/>
      <point x="574" y="121"/>
      <point x="561" y="121" type="curve" smooth="yes"/>
      <point x="548" y="121"/>
      <point x="537" y="110"/>
      <point x="537" y="97" type="curve" smooth="yes"/>
      <point x="537" y="84"/>
      <point x="548" y="73"/>
    </contour>
    <contour>
      <point x="464" y="100" type="curve" smooth="yes"/>
      <point x="477" y="100"/>
      <point x="488" y="111"/>
      <point x="488" y="124" type="curve" smooth="yes"/>
      <point x="488" y="137"/>
      <point x="477" y="148"/>
      <point x="464" y="148" type="curve" smooth="yes"/>
      <point x="451" y="148"/>
      <point x="440" y="137"/>
      <point x="440" y="124" type="curve" smooth="yes"/>
      <point x="440" y="111"/>
      <point x="451" y="100"/>
    </contour>
    <contour>
      <point x="391" y="172" type="curve" smooth="yes"/>
      <point x="404" y="172"/>
      <point x="415" y="183"/>
      <point x="415" y="196" type="curve" smooth="yes"/>
      <point x="415" y="209"/>
      <point x="404" y="220"/>
      <point x="391" y="220" type="curve" smooth="yes"/>
      <point x="378" y="220"/>
      <point x="367" y="209"/>
      <point x="367" y="196" type="curve" smooth="yes"/>
      <point x="367" y="183"/>
      <point x="378" y="172"/>
    </contour>
  </outline>
</glyph>
<glyph name="uni17BF" format="2">
  <advance width="1171"/>
  <unicode hex="17BF"/>
  <note>
uni17BF
</note>
  <outline>
    <contour>
      <point x="189" y="377" type="line"/>
      <point x="97" y="377" type="line"/>
      <point x="97" y="50" type="line" smooth="yes"/>
      <point x="97" y="17"/>
      <point x="122" y="0"/>
      <point x="171" y="0" type="curve" smooth="yes"/>
      <point x="268" y="0" type="line"/>
      <point x="268" y="67" type="line"/>
      <point x="221" y="67" type="line" smooth="yes"/>
      <point x="197" y="67"/>
      <point x="189" y="75"/>
      <point x="189" y="102" type="curve" smooth="yes"/>
    </contour>
    <contour>
      <point x="97" y="361" type="line"/>
      <point x="189" y="361" type="line"/>
      <point x="189" y="410" type="line"/>
      <point x="92" y="518" type="line"/>
      <point x="92" y="519" type="line"/>
      <point x="213" y="519" type="line"/>
      <point x="213" y="586" type="line"/>
      <point x="92" y="586" type="line"/>
      <point x="38" y="515"/>
      <point x="28" y="502"/>
      <point x="28" y="491" type="curve" smooth="yes"/>
      <point x="28" y="478"/>
      <point x="34" y="471"/>
      <point x="97" y="394" type="curve"/>
    </contour>
    <contour>
      <point x="402" y="267" type="curve" smooth="yes"/>
      <point x="415" y="267"/>
      <point x="426" y="278"/>
      <point x="426" y="291" type="curve" smooth="yes"/>
      <point x="426" y="304"/>
      <point x="415" y="315"/>
      <point x="402" y="315" type="curve" smooth="yes"/>
      <point x="389" y="315"/>
      <point x="378" y="304"/>
      <point x="378" y="291" type="curve" smooth="yes"/>
      <point x="378" y="278"/>
      <point x="389" y="267"/>
    </contour>
    <contour>
      <point x="428" y="368" type="curve" smooth="yes"/>
      <point x="441" y="368"/>
      <point x="452" y="379"/>
      <point x="452" y="392" type="curve" smooth="yes"/>
      <point x="452" y="405"/>
      <point x="441" y="416"/>
      <point x="428" y="416" type="curve" smooth="yes"/>
      <point x="415" y="416"/>
      <point x="404" y="405"/>
      <point x="404" y="392" type="curve" smooth="yes"/>
      <point x="404" y="379"/>
      <point x="415" y="368"/>
    </contour>
    <contour>
      <point x="499" y="438" type="curve" smooth="yes"/>
      <point x="512" y="438"/>
      <point x="523" y="449"/>
      <point x="523" y="462" type="curve" smooth="yes"/>
      <point x="523" y="475"/>
      <point x="512" y="486"/>
      <point x="499" y="486" type="curve" smooth="yes"/>
      <point x="486" y="486"/>
      <point x="475" y="475"/>
      <point x="475" y="462" type="curve" smooth="yes"/>
      <point x="475" y="449"/>
      <point x="486" y="438"/>
    </contour>
    <contour>
      <point x="596" y="462" type="curve" smooth="yes"/>
      <point x="609" y="462"/>
      <point x="620" y="473"/>
      <point x="620" y="486" type="curve" smooth="yes"/>
      <point x="620" y="499"/>
      <point x="609" y="510"/>
      <point x="596" y="510" type="curve" smooth="yes"/>
      <point x="583" y="510"/>
      <point x="572" y="499"/>
      <point x="572" y="486" type="curve" smooth="yes"/>
      <point x="572" y="473"/>
      <point x="583" y="462"/>
    </contour>
    <contour>
      <point x="693" y="438" type="curve" smooth="yes"/>
      <point x="706" y="438"/>
      <point x="717" y="449"/>
      <point x="717" y="462" type="curve" smooth="yes"/>
      <point x="717" y="475"/>
      <point x="706" y="486"/>
      <point x="693" y="486" type="curve" smooth="yes"/>
      <point x="680" y="486"/>
      <point x="669" y="475"/>
      <point x="669" y="462" type="curve" smooth="yes"/>
      <point x="669" y="449"/>
      <point x="680" y="438"/>
    </contour>
    <contour>
      <point x="763" y="366" type="curve" smooth="yes"/>
      <point x="776" y="366"/>
      <point x="787" y="377"/>
      <point x="787" y="390" type="curve" smooth="yes"/>
      <point x="787" y="403"/>
      <point x="776" y="414"/>
      <point x="763" y="414" type="curve" smooth="yes"/>
      <point x="750" y="414"/>
      <point x="739" y="403"/>
      <point x="739" y="390" type="curve" smooth="yes"/>
      <point x="739" y="377"/>
      <point x="750" y="366"/>
    </contour>
    <contour>
      <point x="793" y="267" type="curve" smooth="yes"/>
      <point x="806" y="267"/>
      <point x="817" y="278"/>
      <point x="817" y="291" type="curve" smooth="yes"/>
      <point x="817" y="304"/>
      <point x="806" y="315"/>
      <point x="793" y="315" type="curve" smooth="yes"/>
      <point x="780" y="315"/>
      <point x="769" y="304"/>
      <point x="769" y="291" type="curve" smooth="yes"/>
      <point x="769" y="278"/>
      <point x="780" y="267"/>
    </contour>
    <contour>
      <point x="765" y="173" type="curve" smooth="yes"/>
      <point x="778" y="173"/>
      <point x="789" y="184"/>
      <point x="789" y="197" type="curve" smooth="yes"/>
      <point x="789" y="210"/>
      <point x="778" y="221"/>
      <point x="765" y="221" type="curve" smooth="yes"/>
      <point x="752" y="221"/>
      <point x="741" y="210"/>
      <point x="741" y="197" type="curve" smooth="yes"/>
      <point x="741" y="184"/>
      <point x="752" y="173"/>
    </contour>
    <contour>
      <point x="694" y="101" type="curve" smooth="yes"/>
      <point x="707" y="101"/>
      <point x="718" y="112"/>
      <point x="718" y="125" type="curve" smooth="yes"/>
      <point x="718" y="138"/>
      <point x="707" y="149"/>
      <point x="694" y="149" type="curve" smooth="yes"/>
      <point x="681" y="149"/>
      <point x="670" y="138"/>
      <point x="670" y="125" type="curve" smooth="yes"/>
      <point x="670" y="112"/>
      <point x="681" y="101"/>
    </contour>
    <contour>
      <point x="596" y="73" type="curve" smooth="yes"/>
      <point x="609" y="73"/>
      <point x="620" y="84"/>
      <point x="620" y="97" type="curve" smooth="yes"/>
      <point x="620" y="110"/>
      <point x="609" y="121"/>
      <point x="596" y="121" type="curve" smooth="yes"/>
      <point x="583" y="121"/>
      <point x="572" y="110"/>
      <point x="572" y="97" type="curve" smooth="yes"/>
      <point x="572" y="84"/>
      <point x="583" y="73"/>
    </contour>
    <contour>
      <point x="499" y="100" type="curve" smooth="yes"/>
      <point x="512" y="100"/>
      <point x="523" y="111"/>
      <point x="523" y="124" type="curve" smooth="yes"/>
      <point x="523" y="137"/>
      <point x="512" y="148"/>
      <point x="499" y="148" type="curve" smooth="yes"/>
      <point x="486" y="148"/>
      <point x="475" y="137"/>
      <point x="475" y="124" type="curve" smooth="yes"/>
      <point x="475" y="111"/>
      <point x="486" y="100"/>
    </contour>
    <contour>
      <point x="426" y="172" type="curve" smooth="yes"/>
      <point x="439" y="172"/>
      <point x="450" y="183"/>
      <point x="450" y="196" type="curve" smooth="yes"/>
      <point x="450" y="209"/>
      <point x="439" y="220"/>
      <point x="426" y="220" type="curve" smooth="yes"/>
      <point x="413" y="220"/>
      <point x="402" y="209"/>
      <point x="402" y="196" type="curve" smooth="yes"/>
      <point x="402" y="183"/>
      <point x="413" y="172"/>
    </contour>
    <contour>
      <point x="1073" y="581" type="line"/>
      <point x="981" y="581" type="line"/>
      <point x="981" y="-127" type="line" smooth="yes"/>
      <point x="981" y="-160"/>
      <point x="948" y="-177"/>
      <point x="883" y="-177" type="curve" smooth="yes"/>
      <point x="818" y="-177"/>
      <point x="786" y="-160"/>
      <point x="786" y="-127" type="curve" smooth="yes"/>
      <point x="786" y="-107" type="line"/>
      <point x="811" y="-107" type="line"/>
      <point x="811" y="-49" type="line"/>
      <point x="694" y="-49" type="line"/>
      <point x="694" y="-127" type="line" smooth="yes"/>
      <point x="694" y="-205"/>
      <point x="757" y="-244"/>
      <point x="883" y="-244" type="curve" smooth="yes"/>
      <point x="1009" y="-244"/>
      <point x="1073" y="-205"/>
      <point x="1073" y="-127" type="curve" smooth="yes"/>
    </contour>
    <contour>
      <point x="981" y="578" type="line"/>
      <point x="1073" y="578" type="line"/>
      <point x="1073" y="630" type="line" smooth="yes"/>
      <point x="1073" y="703"/>
      <point x="1039" y="774"/>
      <point x="952" y="832" type="curve" smooth="yes"/>
      <point x="851" y="899"/>
      <point x="810" y="918"/>
      <point x="752" y="918" type="curve" smooth="yes"/>
      <point x="667" y="918"/>
      <point x="629" y="855"/>
      <point x="629" y="804" type="curve" smooth="yes"/>
      <point x="629" y="750"/>
      <point x="645" y="723"/>
      <point x="700" y="723" type="curve" smooth="yes"/>
      <point x="883" y="723" type="line" smooth="yes"/>
      <point x="948" y="723"/>
      <point x="981" y="692"/>
      <point x="981" y="630" type="curve" smooth="yes"/>
    </contour>
    <contour>
      <point x="702" y="786" type="line"/>
      <point x="702" y="831"/>
      <point x="727" y="854"/>
      <point x="759" y="854" type="curve" smooth="yes"/>
      <point x="797" y="854"/>
      <point x="843" y="827"/>
      <point x="891" y="786" type="curve"/>
    </contour>
    <contour>
      <point x="873" y="863" type="line"/>
      <point x="873" y="967" type="line"/>
      <point x="806" y="967" type="line"/>
      <point x="806" y="894" type="line"/>
    </contour>
    <contour>
      <point x="981" y="802" type="line"/>
      <point x="981" y="942" type="line"/>
      <point x="913" y="942" type="line"/>
      <point x="913" y="839" type="line"/>
    </contour>
  </outline>
</glyph>
<glyph name="uni17C0" format="2">
  <advance width="1170"/>
  <unicode hex="17C0"/>
  <note>
uni17C0
</note>
  <outline>
    <contour>
      <point x="189" y="377" type="line"/>
      <point x="97" y="377" type="line"/>
      <point x="97" y="50" type="line" smooth="yes"/>
      <point x="97" y="17"/>
      <point x="122" y="0"/>
      <point x="171" y="0" type="curve" smooth="yes"/>
      <point x="268" y="0" type="line"/>
      <point x="268" y="67" type="line"/>
      <point x="221" y="67" type="line" smooth="yes"/>
      <point x="197" y="67"/>
      <point x="189" y="75"/>
      <point x="189" y="102" type="curve" smooth="yes"/>
    </contour>
    <contour>
      <point x="97" y="361" type="line"/>
      <point x="189" y="361" type="line"/>
      <point x="189" y="410" type="line"/>
      <point x="92" y="518" type="line"/>
      <point x="92" y="519" type="line"/>
      <point x="213" y="519" type="line"/>
      <point x="213" y="586" type="line"/>
      <point x="92" y="586" type="line"/>
      <point x="38" y="515"/>
      <point x="28" y="502"/>
      <point x="28" y="491" type="curve" smooth="yes"/>
      <point x="28" y="478"/>
      <point x="34" y="471"/>
      <point x="97" y="394" type="curve"/>
    </contour>
    <contour>
      <point x="394" y="267" type="curve" smooth="yes"/>
      <point x="407" y="267"/>
      <point x="418" y="278"/>
      <point x="418" y="291" type="curve" smooth="yes"/>
      <point x="418" y="304"/>
      <point x="407" y="315"/>
      <point x="394" y="315" type="curve" smooth="yes"/>
      <point x="381" y="315"/>
      <point x="370" y="304"/>
      <point x="370" y="291" type="curve" smooth="yes"/>
      <point x="370" y="278"/>
      <point x="381" y="267"/>
    </contour>
    <contour>
      <point x="420" y="368" type="curve" smooth="yes"/>
      <point x="433" y="368"/>
      <point x="444" y="379"/>
      <point x="444" y="392" type="curve" smooth="yes"/>
      <point x="444" y="405"/>
      <point x="433" y="416"/>
      <point x="420" y="416" type="curve" smooth="yes"/>
      <point x="407" y="416"/>
      <point x="396" y="405"/>
      <point x="396" y="392" type="curve" smooth="yes"/>
      <point x="396" y="379"/>
      <point x="407" y="368"/>
    </contour>
    <contour>
      <point x="491" y="438" type="curve" smooth="yes"/>
      <point x="504" y="438"/>
      <point x="515" y="449"/>
      <point x="515" y="462" type="curve" smooth="yes"/>
      <point x="515" y="475"/>
      <point x="504" y="486"/>
      <point x="491" y="486" type="curve" smooth="yes"/>
      <point x="478" y="486"/>
      <point x="467" y="475"/>
      <point x="467" y="462" type="curve" smooth="yes"/>
      <point x="467" y="449"/>
      <point x="478" y="438"/>
    </contour>
    <contour>
      <point x="588" y="462" type="curve" smooth="yes"/>
      <point x="601" y="462"/>
      <point x="612" y="473"/>
      <point x="612" y="486" type="curve" smooth="yes"/>
      <point x="612" y="499"/>
      <point x="601" y="510"/>
      <point x="588" y="510" type="curve" smooth="yes"/>
      <point x="575" y="510"/>
      <point x="564" y="499"/>
      <point x="564" y="486" type="curve" smooth="yes"/>
      <point x="564" y="473"/>
      <point x="575" y="462"/>
    </contour>
    <contour>
      <point x="685" y="438" type="curve" smooth="yes"/>
      <point x="698" y="438"/>
      <point x="709" y="449"/>
      <point x="709" y="462" type="curve" smooth="yes"/>
      <point x="709" y="475"/>
      <point x="698" y="486"/>
      <point x="685" y="486" type="curve" smooth="yes"/>
      <point x="672" y="486"/>
      <point x="661" y="475"/>
      <point x="661" y="462" type="curve" smooth="yes"/>
      <point x="661" y="449"/>
      <point x="672" y="438"/>
    </contour>
    <contour>
      <point x="755" y="366" type="curve" smooth="yes"/>
      <point x="768" y="366"/>
      <point x="779" y="377"/>
      <point x="779" y="390" type="curve" smooth="yes"/>
      <point x="779" y="403"/>
      <point x="768" y="414"/>
      <point x="755" y="414" type="curve" smooth="yes"/>
      <point x="742" y="414"/>
      <point x="731" y="403"/>
      <point x="731" y="390" type="curve" smooth="yes"/>
      <point x="731" y="377"/>
      <point x="742" y="366"/>
    </contour>
    <contour>
      <point x="785" y="267" type="curve" smooth="yes"/>
      <point x="798" y="267"/>
      <point x="809" y="278"/>
      <point x="809" y="291" type="curve" smooth="yes"/>
      <point x="809" y="304"/>
      <point x="798" y="315"/>
      <point x="785" y="315" type="curve" smooth="yes"/>
      <point x="772" y="315"/>
      <point x="761" y="304"/>
      <point x="761" y="291" type="curve" smooth="yes"/>
      <point x="761" y="278"/>
      <point x="772" y="267"/>
    </contour>
    <contour>
      <point x="757" y="173" type="curve" smooth="yes"/>
      <point x="770" y="173"/>
      <point x="781" y="184"/>
      <point x="781" y="197" type="curve" smooth="yes"/>
      <point x="781" y="210"/>
      <point x="770" y="221"/>
      <point x="757" y="221" type="curve" smooth="yes"/>
      <point x="744" y="221"/>
      <point x="733" y="210"/>
      <point x="733" y="197" type="curve" smooth="yes"/>
      <point x="733" y="184"/>
      <point x="744" y="173"/>
    </contour>
    <contour>
      <point x="686" y="101" type="curve" smooth="yes"/>
      <point x="699" y="101"/>
      <point x="710" y="112"/>
      <point x="710" y="125" type="curve" smooth="yes"/>
      <point x="710" y="138"/>
      <point x="699" y="149"/>
      <point x="686" y="149" type="curve" smooth="yes"/>
      <point x="673" y="149"/>
      <point x="662" y="138"/>
      <point x="662" y="125" type="curve" smooth="yes"/>
      <point x="662" y="112"/>
      <point x="673" y="101"/>
    </contour>
    <contour>
      <point x="588" y="73" type="curve" smooth="yes"/>
      <point x="601" y="73"/>
      <point x="612" y="84"/>
      <point x="612" y="97" type="curve" smooth="yes"/>
      <point x="612" y="110"/>
      <point x="601" y="121"/>
      <point x="588" y="121" type="curve" smooth="yes"/>
      <point x="575" y="121"/>
      <point x="564" y="110"/>
      <point x="564" y="97" type="curve" smooth="yes"/>
      <point x="564" y="84"/>
      <point x="575" y="73"/>
    </contour>
    <contour>
      <point x="491" y="100" type="curve" smooth="yes"/>
      <point x="504" y="100"/>
      <point x="515" y="111"/>
      <point x="515" y="124" type="curve" smooth="yes"/>
      <point x="515" y="137"/>
      <point x="504" y="148"/>
      <point x="491" y="148" type="curve" smooth="yes"/>
      <point x="478" y="148"/>
      <point x="467" y="137"/>
      <point x="467" y="124" type="curve" smooth="yes"/>
      <point x="467" y="111"/>
      <point x="478" y="100"/>
    </contour>
    <contour>
      <point x="418" y="172" type="curve" smooth="yes"/>
      <point x="431" y="172"/>
      <point x="442" y="183"/>
      <point x="442" y="196" type="curve" smooth="yes"/>
      <point x="442" y="209"/>
      <point x="431" y="220"/>
      <point x="418" y="220" type="curve" smooth="yes"/>
      <point x="405" y="220"/>
      <point x="394" y="209"/>
      <point x="394" y="196" type="curve" smooth="yes"/>
      <point x="394" y="183"/>
      <point x="405" y="172"/>
    </contour>
    <contour>
      <point x="1072" y="578" type="line"/>
      <point x="980" y="578" type="line"/>
      <point x="980" y="-123" type="line" smooth="yes"/>
      <point x="980" y="-156"/>
      <point x="947" y="-177"/>
      <point x="882" y="-177" type="curve" smooth="yes"/>
      <point x="817" y="-177"/>
      <point x="785" y="-156"/>
      <point x="785" y="-123" type="curve" smooth="yes"/>
      <point x="785" y="-107" type="line"/>
      <point x="810" y="-107" type="line"/>
      <point x="810" y="-49" type="line"/>
      <point x="693" y="-49" type="line"/>
      <point x="693" y="-127" type="line" smooth="yes"/>
      <point x="693" y="-205"/>
      <point x="756" y="-244"/>
      <point x="882" y="-244" type="curve" smooth="yes"/>
      <point x="1008" y="-244"/>
      <point x="1072" y="-205"/>
      <point x="1072" y="-127" type="curve" smooth="yes"/>
    </contour>
    <contour>
      <point x="980" y="576" type="line"/>
      <point x="1072" y="576" type="line"/>
      <point x="1072" y="649" type="line" smooth="yes"/>
      <point x="1072" y="767"/>
      <point x="1012" y="825"/>
      <point x="890" y="825" type="curve" smooth="yes"/>
      <point x="843" y="825"/>
      <point x="809" y="813"/>
      <point x="784" y="797" type="curve"/>
      <point x="784" y="967" type="line"/>
      <point x="692" y="967" type="line"/>
      <point x="692" y="723" type="line"/>
      <point x="784" y="723" type="line"/>
      <point x="804" y="748"/>
      <point x="834" y="762"/>
      <point x="873" y="762" type="curve" smooth="yes"/>
      <point x="938" y="762"/>
      <point x="980" y="724"/>
      <point x="980" y="649" type="curve" smooth="yes"/>
    </contour>
  </outline>
</glyph>
<glyph name="uni17C1" format="2">
  <advance width="288"/>
  <unicode hex="17C1"/>
  <note>
uni17C1
</note>
  <outline>
    <contour>
      <point x="189" y="377" type="line"/>
      <point x="97" y="377" type="line"/>
      <point x="97" y="50" type="line" smooth="yes"/>
      <point x="97" y="17"/>
      <point x="122" y="0"/>
      <point x="171" y="0" type="curve" smooth="yes"/>
      <point x="268" y="0" type="line"/>
      <point x="268" y="67" type="line"/>
      <point x="221" y="67" type="line" smooth="yes"/>
      <point x="197" y="67"/>
      <point x="189" y="75"/>
      <point x="189" y="102" type="curve" smooth="yes"/>
    </contour>
    <contour>
      <point x="97" y="361" type="line"/>
      <point x="189" y="361" type="line"/>
      <point x="189" y="410" type="line"/>
      <point x="92" y="518" type="line"/>
      <point x="92" y="519" type="line"/>
      <point x="213" y="519" type="line"/>
      <point x="213" y="586" type="line"/>
      <point x="92" y="586" type="line"/>
      <point x="38" y="515"/>
      <point x="28" y="502"/>
      <point x="28" y="491" type="curve" smooth="yes"/>
      <point x="28" y="478"/>
      <point x="34" y="471"/>
      <point x="97" y="394" type="curve"/>
    </contour>
  </outline>
</glyph>
<glyph name="uni17C2" format="2">
  <advance width="288"/>
  <unicode hex="17C2"/>
  <note>
uni17C2
</note>
  <outline>
    <contour>
      <point x="115" y="635" type="curve" smooth="yes"/>
      <point x="215" y="635"/>
      <point x="283" y="705"/>
      <point x="283" y="854" type="curve"/>
      <point x="210" y="854" type="line"/>
      <point x="210" y="750"/>
      <point x="171" y="698"/>
      <point x="110" y="698" type="curve" smooth="yes"/>
      <point x="84" y="698"/>
      <point x="75" y="710"/>
      <point x="75" y="723" type="curve" smooth="yes"/>
      <point x="75" y="743"/>
      <point x="94" y="752"/>
      <point x="130" y="752" type="curve"/>
      <point x="130" y="815" type="line"/>
      <point x="43" y="815"/>
      <point x="0" y="782"/>
      <point x="0" y="724" type="curve" smooth="yes"/>
      <point x="0" y="662"/>
      <point x="56" y="635"/>
    </contour>
    <contour>
      <point x="189" y="377" type="line"/>
      <point x="97" y="377" type="line"/>
      <point x="97" y="50" type="line" smooth="yes"/>
      <point x="97" y="17"/>
      <point x="122" y="0"/>
      <point x="171" y="0" type="curve" smooth="yes"/>
      <point x="268" y="0" type="line"/>
      <point x="268" y="67" type="line"/>
      <point x="221" y="67" type="line" smooth="yes"/>
      <point x="197" y="67"/>
      <point x="189" y="75"/>
      <point x="189" y="102" type="curve" smooth="yes"/>
    </contour>
    <contour>
      <point x="97" y="361" type="line"/>
      <point x="189" y="361" type="line"/>
      <point x="189" y="410" type="line"/>
      <point x="92" y="518" type="line"/>
      <point x="92" y="519" type="line"/>
      <point x="213" y="519" type="line"/>
      <point x="213" y="586" type="line"/>
      <point x="92" y="586" type="line"/>
      <point x="38" y="515"/>
      <point x="28" y="502"/>
      <point x="28" y="491" type="curve" smooth="yes"/>
      <point x="28" y="478"/>
      <point x="34" y="471"/>
      <point x="97" y="394" type="curve"/>
    </contour>
  </outline>
</glyph>
<glyph name="uni17C3" format="2">
  <advance width="288"/>
  <unicode hex="17C3"/>
  <note>
uni17C3
</note>
  <outline>
    <contour>
      <point x="24" y="635" type="line"/>
      <point x="135" y="635" type="line" smooth="yes"/>
      <point x="225" y="635"/>
      <point x="264" y="673"/>
      <point x="264" y="735" type="curve" smooth="yes"/>
      <point x="264" y="798"/>
      <point x="224" y="836"/>
      <point x="162" y="836" type="curve" smooth="yes"/>
      <point x="132" y="836"/>
      <point x="110" y="827"/>
      <point x="98" y="816" type="curve"/>
      <point x="98" y="879" type="line" smooth="yes"/>
      <point x="98" y="913"/>
      <point x="88" y="928"/>
      <point x="48" y="928" type="curve" smooth="yes"/>
      <point x="0" y="928" type="line"/>
      <point x="0" y="874" type="line"/>
      <point x="16" y="874"/>
      <point x="24" y="868"/>
      <point x="24" y="852" type="curve" smooth="yes"/>
      <point x="24" y="747" type="line"/>
      <point x="98" y="747" type="line"/>
      <point x="107" y="762"/>
      <point x="118" y="776"/>
      <point x="146" y="776" type="curve" smooth="yes"/>
      <point x="173" y="776"/>
      <point x="186" y="763"/>
      <point x="186" y="739" type="curve" smooth="yes"/>
      <point x="186" y="718"/>
      <point x="176" y="698"/>
      <point x="120" y="698" type="curve" smooth="yes"/>
      <point x="24" y="698" type="line"/>
    </contour>
    <contour>
      <point x="189" y="377" type="line"/>
      <point x="97" y="377" type="line"/>
      <point x="97" y="50" type="line" smooth="yes"/>
      <point x="97" y="17"/>
      <point x="122" y="0"/>
      <point x="171" y="0" type="curve" smooth="yes"/>
      <point x="268" y="0" type="line"/>
      <point x="268" y="67" type="line"/>
      <point x="221" y="67" type="line" smooth="yes"/>
      <point x="197" y="67"/>
      <point x="189" y="75"/>
      <point x="189" y="102" type="curve" smooth="yes"/>
    </contour>
    <contour>
      <point x="97" y="361" type="line"/>
      <point x="189" y="361" type="line"/>
      <point x="189" y="410" type="line"/>
      <point x="92" y="518" type="line"/>
      <point x="92" y="519" type="line"/>
      <point x="213" y="519" type="line"/>
      <point x="213" y="586" type="line"/>
      <point x="92" y="586" type="line"/>
      <point x="38" y="515"/>
      <point x="28" y="502"/>
      <point x="28" y="491" type="curve" smooth="yes"/>
      <point x="28" y="478"/>
      <point x="34" y="471"/>
      <point x="97" y="394" type="curve"/>
    </contour>
  </outline>
</glyph>
<glyph name="uni17C4" format="2">
  <advance width="1069"/>
  <unicode hex="17C4"/>
  <note>
uni17C4
</note>
  <outline>
    <contour>
      <point x="879" y="0" type="line"/>
      <point x="971" y="0" type="line"/>
      <point x="971" y="458" type="line" smooth="yes"/>
      <point x="971" y="543"/>
      <point x="948" y="586"/>
      <point x="847" y="586" type="curve" smooth="yes"/>
      <point x="663" y="586" type="line"/>
      <point x="663" y="519" type="line"/>
      <point x="801" y="519" type="line" smooth="yes"/>
      <point x="863" y="519"/>
      <point x="879" y="504"/>
      <point x="879" y="458" type="curve" smooth="yes"/>
    </contour>
    <contour>
      <point x="189" y="377" type="line"/>
      <point x="97" y="377" type="line"/>
      <point x="97" y="50" type="line" smooth="yes"/>
      <point x="97" y="17"/>
      <point x="122" y="0"/>
      <point x="171" y="0" type="curve" smooth="yes"/>
      <point x="268" y="0" type="line"/>
      <point x="268" y="67" type="line"/>
      <point x="221" y="67" type="line" smooth="yes"/>
      <point x="197" y="67"/>
      <point x="189" y="75"/>
      <point x="189" y="102" type="curve" smooth="yes"/>
    </contour>
    <contour>
      <point x="97" y="361" type="line"/>
      <point x="189" y="361" type="line"/>
      <point x="189" y="410" type="line"/>
      <point x="92" y="518" type="line"/>
      <point x="92" y="519" type="line"/>
      <point x="213" y="519" type="line"/>
      <point x="213" y="586" type="line"/>
      <point x="92" y="586" type="line"/>
      <point x="38" y="515"/>
      <point x="28" y="502"/>
      <point x="28" y="491" type="curve" smooth="yes"/>
      <point x="28" y="478"/>
      <point x="34" y="471"/>
      <point x="97" y="394" type="curve"/>
    </contour>
    <contour>
      <point x="334" y="267" type="curve" smooth="yes"/>
      <point x="347" y="267"/>
      <point x="358" y="278"/>
      <point x="358" y="291" type="curve" smooth="yes"/>
      <point x="358" y="304"/>
      <point x="347" y="315"/>
      <point x="334" y="315" type="curve" smooth="yes"/>
      <point x="321" y="315"/>
      <point x="310" y="304"/>
      <point x="310" y="291" type="curve" smooth="yes"/>
      <point x="310" y="278"/>
      <point x="321" y="267"/>
    </contour>
    <contour>
      <point x="360" y="368" type="curve" smooth="yes"/>
      <point x="373" y="368"/>
      <point x="384" y="379"/>
      <point x="384" y="392" type="curve" smooth="yes"/>
      <point x="384" y="405"/>
      <point x="373" y="416"/>
      <point x="360" y="416" type="curve" smooth="yes"/>
      <point x="347" y="416"/>
      <point x="336" y="405"/>
      <point x="336" y="392" type="curve" smooth="yes"/>
      <point x="336" y="379"/>
      <point x="347" y="368"/>
    </contour>
    <contour>
      <point x="431" y="438" type="curve" smooth="yes"/>
      <point x="444" y="438"/>
      <point x="455" y="449"/>
      <point x="455" y="462" type="curve" smooth="yes"/>
      <point x="455" y="475"/>
      <point x="444" y="486"/>
      <point x="431" y="486" type="curve" smooth="yes"/>
      <point x="418" y="486"/>
      <point x="407" y="475"/>
      <point x="407" y="462" type="curve" smooth="yes"/>
      <point x="407" y="449"/>
      <point x="418" y="438"/>
    </contour>
    <contour>
      <point x="528" y="462" type="curve" smooth="yes"/>
      <point x="541" y="462"/>
      <point x="552" y="473"/>
      <point x="552" y="486" type="curve" smooth="yes"/>
      <point x="552" y="499"/>
      <point x="541" y="510"/>
      <point x="528" y="510" type="curve" smooth="yes"/>
      <point x="515" y="510"/>
      <point x="504" y="499"/>
      <point x="504" y="486" type="curve" smooth="yes"/>
      <point x="504" y="473"/>
      <point x="515" y="462"/>
    </contour>
    <contour>
      <point x="625" y="438" type="curve" smooth="yes"/>
      <point x="638" y="438"/>
      <point x="649" y="449"/>
      <point x="649" y="462" type="curve" smooth="yes"/>
      <point x="649" y="475"/>
      <point x="638" y="486"/>
      <point x="625" y="486" type="curve" smooth="yes"/>
      <point x="612" y="486"/>
      <point x="601" y="475"/>
      <point x="601" y="462" type="curve" smooth="yes"/>
      <point x="601" y="449"/>
      <point x="612" y="438"/>
    </contour>
    <contour>
      <point x="695" y="366" type="curve" smooth="yes"/>
      <point x="708" y="366"/>
      <point x="719" y="377"/>
      <point x="719" y="390" type="curve" smooth="yes"/>
      <point x="719" y="403"/>
      <point x="708" y="414"/>
      <point x="695" y="414" type="curve" smooth="yes"/>
      <point x="682" y="414"/>
      <point x="671" y="403"/>
      <point x="671" y="390" type="curve" smooth="yes"/>
      <point x="671" y="377"/>
      <point x="682" y="366"/>
    </contour>
    <contour>
      <point x="725" y="267" type="curve" smooth="yes"/>
      <point x="738" y="267"/>
      <point x="749" y="278"/>
      <point x="749" y="291" type="curve" smooth="yes"/>
      <point x="749" y="304"/>
      <point x="738" y="315"/>
      <point x="725" y="315" type="curve" smooth="yes"/>
      <point x="712" y="315"/>
      <point x="701" y="304"/>
      <point x="701" y="291" type="curve" smooth="yes"/>
      <point x="701" y="278"/>
      <point x="712" y="267"/>
    </contour>
    <contour>
      <point x="697" y="173" type="curve" smooth="yes"/>
      <point x="710" y="173"/>
      <point x="721" y="184"/>
      <point x="721" y="197" type="curve" smooth="yes"/>
      <point x="721" y="210"/>
      <point x="710" y="221"/>
      <point x="697" y="221" type="curve" smooth="yes"/>
      <point x="684" y="221"/>
      <point x="673" y="210"/>
      <point x="673" y="197" type="curve" smooth="yes"/>
      <point x="673" y="184"/>
      <point x="684" y="173"/>
    </contour>
    <contour>
      <point x="626" y="101" type="curve" smooth="yes"/>
      <point x="639" y="101"/>
      <point x="650" y="112"/>
      <point x="650" y="125" type="curve" smooth="yes"/>
      <point x="650" y="138"/>
      <point x="639" y="149"/>
      <point x="626" y="149" type="curve" smooth="yes"/>
      <point x="613" y="149"/>
      <point x="602" y="138"/>
      <point x="602" y="125" type="curve" smooth="yes"/>
      <point x="602" y="112"/>
      <point x="613" y="101"/>
    </contour>
    <contour>
      <point x="528" y="73" type="curve" smooth="yes"/>
      <point x="541" y="73"/>
      <point x="552" y="84"/>
      <point x="552" y="97" type="curve" smooth="yes"/>
      <point x="552" y="110"/>
      <point x="541" y="121"/>
      <point x="528" y="121" type="curve" smooth="yes"/>
      <point x="515" y="121"/>
      <point x="504" y="110"/>
      <point x="504" y="97" type="curve" smooth="yes"/>
      <point x="504" y="84"/>
      <point x="515" y="73"/>
    </contour>
    <contour>
      <point x="431" y="100" type="curve" smooth="yes"/>
      <point x="444" y="100"/>
      <point x="455" y="111"/>
      <point x="455" y="124" type="curve" smooth="yes"/>
      <point x="455" y="137"/>
      <point x="444" y="148"/>
      <point x="431" y="148" type="curve" smooth="yes"/>
      <point x="418" y="148"/>
      <point x="407" y="137"/>
      <point x="407" y="124" type="curve" smooth="yes"/>
      <point x="407" y="111"/>
      <point x="418" y="100"/>
    </contour>
    <contour>
      <point x="358" y="172" type="curve" smooth="yes"/>
      <point x="371" y="172"/>
      <point x="382" y="183"/>
      <point x="382" y="196" type="curve" smooth="yes"/>
      <point x="382" y="209"/>
      <point x="371" y="220"/>
      <point x="358" y="220" type="curve" smooth="yes"/>
      <point x="345" y="220"/>
      <point x="334" y="209"/>
      <point x="334" y="196" type="curve" smooth="yes"/>
      <point x="334" y="183"/>
      <point x="345" y="172"/>
    </contour>
  </outline>
</glyph>
<glyph name="uni17C6" format="2">
  <unicode hex="17C6"/>
  <note>
uni17C6
</note>
  <outline>
    <contour>
      <point x="-296" y="684" type="curve" smooth="yes"/>
      <point x="-234" y="684"/>
      <point x="-183" y="735"/>
      <point x="-183" y="797" type="curve" smooth="yes"/>
      <point x="-183" y="859"/>
      <point x="-234" y="910"/>
      <point x="-296" y="910" type="curve" smooth="yes"/>
      <point x="-358" y="910"/>
      <point x="-409" y="859"/>
      <point x="-409" y="797" type="curve" smooth="yes"/>
      <point x="-409" y="735"/>
      <point x="-358" y="684"/>
    </contour>
    <contour>
      <point x="-297" y="745" type="curve" smooth="yes"/>
      <point x="-325" y="745"/>
      <point x="-349" y="768"/>
      <point x="-349" y="797" type="curve" smooth="yes"/>
      <point x="-349" y="828"/>
      <point x="-326" y="851"/>
      <point x="-297" y="851" type="curve" smooth="yes"/>
      <point x="-267" y="851"/>
      <point x="-244" y="826"/>
      <point x="-244" y="797" type="curve" smooth="yes"/>
      <point x="-244" y="767"/>
      <point x="-268" y="745"/>
    </contour>
  </outline>
</glyph>
<glyph name="uni17C7" format="2">
  <advance width="386"/>
  <unicode hex="17C7"/>
  <note>
uni17C7
</note>
  <outline>
    <contour>
      <point x="193" y="363" type="curve" smooth="yes"/>
      <point x="255" y="363"/>
      <point x="306" y="414"/>
      <point x="306" y="476" type="curve" smooth="yes"/>
      <point x="306" y="538"/>
      <point x="255" y="589"/>
      <point x="193" y="589" type="curve" smooth="yes"/>
      <point x="131" y="589"/>
      <point x="80" y="538"/>
      <point x="80" y="476" type="curve" smooth="yes"/>
      <point x="80" y="414"/>
      <point x="131" y="363"/>
    </contour>
    <contour>
      <point x="192" y="424" type="curve" smooth="yes"/>
      <point x="164" y="424"/>
      <point x="140" y="447"/>
      <point x="140" y="476" type="curve" smooth="yes"/>
      <point x="140" y="507"/>
      <point x="163" y="530"/>
      <point x="192" y="530" type="curve" smooth="yes"/>
      <point x="222" y="530"/>
      <point x="245" y="505"/>
      <point x="245" y="476" type="curve" smooth="yes"/>
      <point x="245" y="446"/>
      <point x="221" y="424"/>
    </contour>
    <contour>
      <point x="193" y="-3" type="curve" smooth="yes"/>
      <point x="255" y="-3"/>
      <point x="306" y="48"/>
      <point x="306" y="110" type="curve" smooth="yes"/>
      <point x="306" y="172"/>
      <point x="255" y="223"/>
      <point x="193" y="223" type="curve" smooth="yes"/>
      <point x="131" y="223"/>
      <point x="80" y="172"/>
      <point x="80" y="110" type="curve" smooth="yes"/>
      <point x="80" y="48"/>
      <point x="131" y="-3"/>
    </contour>
    <contour>
      <point x="192" y="58" type="curve" smooth="yes"/>
      <point x="164" y="58"/>
      <point x="140" y="81"/>
      <point x="140" y="110" type="curve" smooth="yes"/>
      <point x="140" y="141"/>
      <point x="163" y="164"/>
      <point x="192" y="164" type="curve" smooth="yes"/>
      <point x="222" y="164"/>
      <point x="245" y="139"/>
      <point x="245" y="110" type="curve" smooth="yes"/>
      <point x="245" y="80"/>
      <point x="221" y="58"/>
    </contour>
  </outline>
</glyph>
<glyph name="uni17C8" format="2">
  <advance width="283"/>
  <unicode hex="17C8"/>
  <note>
uni17C8
</note>
  <outline>
    <contour>
      <point x="137" y="422" type="curve" smooth="yes"/>
      <point x="160" y="422"/>
      <point x="186" y="441"/>
      <point x="186" y="471" type="curve" smooth="yes"/>
      <point x="186" y="498"/>
      <point x="164" y="520"/>
      <point x="137" y="520" type="curve" smooth="yes"/>
      <point x="109" y="520"/>
      <point x="88" y="498"/>
      <point x="88" y="471" type="curve" smooth="yes"/>
      <point x="88" y="448"/>
      <point x="108" y="422"/>
    </contour>
    <contour>
      <point x="137" y="56" type="curve" smooth="yes"/>
      <point x="160" y="56"/>
      <point x="186" y="75"/>
      <point x="186" y="105" type="curve" smooth="yes"/>
      <point x="186" y="132"/>
      <point x="164" y="154"/>
      <point x="137" y="154" type="curve" smooth="yes"/>
      <point x="109" y="154"/>
      <point x="88" y="132"/>
      <point x="88" y="105" type="curve" smooth="yes"/>
      <point x="88" y="82"/>
      <point x="108" y="56"/>
    </contour>
  </outline>
</glyph>
<glyph name="uni17C9" format="2">
  <unicode hex="17C9"/>
  <note>
uni17C9
</note>
  <outline>
    <contour>
      <point x="-410" y="684" type="line"/>
      <point x="-336" y="684" type="line"/>
      <point x="-336" y="879" type="line"/>
      <point x="-410" y="879" type="line"/>
    </contour>
    <contour>
      <point x="-258" y="684" type="line"/>
      <point x="-184" y="684" type="line"/>
      <point x="-184" y="879" type="line"/>
      <point x="-258" y="879" type="line"/>
    </contour>
  </outline>
</glyph>
<glyph name="uni17CA" format="2">
  <unicode hex="17CA"/>
  <note>
uni17CA
</note>
  <outline>
    <contour>
      <point x="-517" y="684" type="line"/>
      <point x="-77" y="684" type="line"/>
      <point x="-77" y="751" type="line"/>
      <point x="-249" y="751" type="line"/>
      <point x="-297" y="698" type="line"/>
      <point x="-345" y="751" type="line"/>
      <point x="-517" y="751" type="line"/>
    </contour>
  </outline>
</glyph>
<glyph name="uni17CB" format="2">
  <unicode hex="17CB"/>
  <note>
uni17CB
</note>
  <outline>
    <contour>
      <point x="-334" y="684" type="line"/>
      <point x="-261" y="684" type="line"/>
      <point x="-261" y="879" type="line"/>
      <point x="-334" y="879" type="line"/>
    </contour>
  </outline>
</glyph>
<glyph name="uni17CC" format="2">
  <unicode hex="17CC"/>
  <note>
uni17CC
</note>
  <outline>
    <contour>
      <point x="-432" y="695" type="line"/>
      <point x="-385" y="732"/>
      <point x="-346" y="748"/>
      <point x="-301" y="748" type="curve" smooth="yes"/>
      <point x="-258" y="748"/>
      <point x="-219" y="737"/>
      <point x="-181" y="691" type="curve"/>
      <point x="-125" y="735" type="line"/>
      <point x="-167" y="788"/>
      <point x="-229" y="810"/>
      <point x="-298" y="801" type="curve"/>
      <point x="-271" y="837"/>
      <point x="-253" y="859"/>
      <point x="-223" y="919" type="curve"/>
      <point x="-282" y="938" type="line"/>
      <point x="-302" y="877"/>
      <point x="-374" y="808"/>
      <point x="-472" y="747" type="curve"/>
    </contour>
  </outline>
</glyph>
<glyph name="uni17CD" format="2">
  <unicode hex="17CD"/>
  <note>
uni17CD
</note>
  <outline>
    <contour>
      <point x="-369" y="684" type="curve" smooth="yes"/>
      <point x="-337" y="684" type="line"/>
      <point x="-337" y="741" type="line"/>
      <point x="-364" y="741" type="line" smooth="yes"/>
      <point x="-399" y="741"/>
      <point x="-415" y="749"/>
      <point x="-415" y="767" type="curve" smooth="yes"/>
      <point x="-415" y="784"/>
      <point x="-393" y="791"/>
      <point x="-364" y="791" type="curve" smooth="yes"/>
      <point x="-290" y="791" type="line" smooth="yes"/>
      <point x="-194" y="791"/>
      <point x="-123" y="844"/>
      <point x="-123" y="928" type="curve"/>
      <point x="-209" y="928" type="line"/>
      <point x="-209" y="879"/>
      <point x="-226" y="855"/>
      <point x="-301" y="855" type="curve" smooth="yes"/>
      <point x="-357" y="855" type="line" smooth="yes"/>
      <point x="-452" y="855"/>
      <point x="-488" y="818"/>
      <point x="-488" y="771" type="curve" smooth="yes"/>
      <point x="-488" y="709"/>
      <point x="-448" y="684"/>
    </contour>
  </outline>
</glyph>
<glyph name="uni17CE" format="2">
  <unicode hex="17CE"/>
  <note>
uni17CE
</note>
  <outline>
    <contour>
      <point x="-333" y="684" type="line"/>
      <point x="-261" y="684" type="line"/>
      <point x="-261" y="775" type="line"/>
      <point x="-172" y="775" type="line"/>
      <point x="-172" y="843" type="line"/>
      <point x="-261" y="843" type="line"/>
      <point x="-261" y="934" type="line"/>
      <point x="-333" y="934" type="line"/>
      <point x="-333" y="843" type="line"/>
      <point x="-422" y="843" type="line"/>
      <point x="-422" y="775" type="line"/>
      <point x="-333" y="775" type="line"/>
    </contour>
  </outline>
</glyph>
<glyph name="uni17CF" format="2">
  <unicode hex="17CF"/>
  <note>
uni17CF
</note>
  <outline>
    <contour>
      <point x="-492" y="684" type="line"/>
      <point x="-409" y="684" type="line"/>
      <point x="-297" y="735" type="line"/>
      <point x="-179" y="684" type="line"/>
      <point x="-101" y="684" type="line"/>
      <point x="-101" y="787" type="line"/>
      <point x="-174" y="787" type="line"/>
      <point x="-174" y="739" type="line"/>
      <point x="-296" y="792" type="line"/>
      <point x="-418" y="740" type="line"/>
      <point x="-418" y="790" type="line" smooth="yes"/>
      <point x="-418" y="810"/>
      <point x="-412" y="824"/>
      <point x="-387" y="824" type="curve" smooth="yes"/>
      <point x="-217" y="824" type="line" smooth="yes"/>
      <point x="-149" y="824"/>
      <point x="-101" y="868"/>
      <point x="-101" y="914" type="curve" smooth="yes"/>
      <point x="-101" y="928" type="line"/>
      <point x="-174" y="928" type="line"/>
      <point x="-174" y="897"/>
      <point x="-217" y="881"/>
      <point x="-303" y="881" type="curve" smooth="yes"/>
      <point x="-370" y="881" type="line" smooth="yes"/>
      <point x="-451" y="881"/>
      <point x="-492" y="848"/>
      <point x="-492" y="782" type="curve" smooth="yes"/>
    </contour>
  </outline>
</glyph>
<glyph name="uni17D0" format="2">
  <unicode hex="17D0"/>
  <note>
uni17D0
</note>
  <outline>
    <contour>
      <point x="-324.1" y="682" type="curve" smooth="yes"/>
      <point x="-187.3" y="682"/>
      <point x="-101.8" y="770"/>
      <point x="-101.8" y="902" type="curve"/>
      <point x="-177.4" y="902" type="line"/>
      <point x="-177.4" y="798"/>
      <point x="-233.2" y="745"/>
      <point x="-315.1" y="745" type="curve" smooth="yes"/>
      <point x="-365.5" y="745"/>
      <point x="-379.9" y="760"/>
      <point x="-379.9" y="782" type="curve" smooth="yes"/>
      <point x="-379.9" y="808"/>
      <point x="-352" y="821"/>
      <point x="-297.1" y="821" type="curve"/>
      <point x="-297.1" y="880" type="line"/>
      <point x="-394.3" y="880"/>
      <point x="-453.7" y="849"/>
      <point x="-453.7" y="776" type="curve" smooth="yes"/>
      <point x="-453.7" y="719"/>
      <point x="-414.1" y="682"/>
    </contour>
  </outline>
</glyph>
<glyph name="uni17D1" format="2">
  <unicode hex="17D1"/>
  <note>
uni17D1
</note>
  <outline>
    <contour>
      <point x="-507" y="684" type="line"/>
      <point x="-87" y="684" type="line"/>
      <point x="-87" y="751" type="line"/>
      <point x="-507" y="751" type="line"/>
    </contour>
  </outline>
</glyph>
<glyph name="uni17D2" format="2">
  <unicode hex="17D2"/>
  <note>
uni17D2
</note>
  <outline>
    <contour>
      <point x="-334" y="-244" type="line"/>
      <point x="-261" y="-244" type="line"/>
      <point x="-261" y="-164" type="line"/>
      <point x="-163" y="-164" type="line"/>
      <point x="-163" y="-104" type="line"/>
      <point x="-261" y="-104" type="line"/>
      <point x="-261" y="-24" type="line"/>
      <point x="-334" y="-24" type="line"/>
      <point x="-334" y="-104" type="line"/>
      <point x="-432" y="-104" type="line"/>
      <point x="-432" y="-164" type="line"/>
      <point x="-334" y="-164" type="line"/>
    </contour>
  </outline>
</glyph>
<glyph name="uni17D3" format="2">
  <unicode hex="17D3"/>
  <note>
uni17D3
</note>
  <outline>
    <contour>
      <point x="-297" y="685" type="curve" smooth="yes"/>
      <point x="-193" y="685"/>
      <point x="-102" y="728"/>
      <point x="-102" y="807" type="curve" smooth="yes"/>
      <point x="-102" y="882"/>
      <point x="-193" y="929"/>
      <point x="-297" y="929" type="curve" smooth="yes"/>
      <point x="-401" y="929"/>
      <point x="-493" y="884"/>
      <point x="-493" y="807" type="curve" smooth="yes"/>
      <point x="-493" y="733"/>
      <point x="-401" y="685"/>
    </contour>
    <contour>
      <point x="-297" y="750" type="curve" smooth="yes"/>
      <point x="-353" y="750"/>
      <point x="-403" y="771"/>
      <point x="-403" y="807" type="curve" smooth="yes"/>
      <point x="-403" y="841"/>
      <point x="-356" y="864"/>
      <point x="-297" y="864" type="curve" smooth="yes"/>
      <point x="-239" y="864"/>
      <point x="-191" y="844"/>
      <point x="-191" y="807" type="curve" smooth="yes"/>
      <point x="-191" y="772"/>
      <point x="-235" y="750"/>
    </contour>
  </outline>
</glyph>
<glyph name="uni17D4" format="2">
  <advance width="586"/>
  <unicode hex="17D4"/>
  <note>
uni17D4
</note>
  <outline>
    <contour>
      <point x="396" y="0" type="line"/>
      <point x="488" y="0" type="line"/>
      <point x="488" y="586" type="line"/>
      <point x="396" y="586" type="line"/>
      <point x="338" y="488"/>
      <point x="299" y="455"/>
      <point x="233" y="455" type="curve" smooth="yes"/>
      <point x="202" y="455"/>
      <point x="189" y="471"/>
      <point x="189" y="489" type="curve" smooth="yes"/>
      <point x="189" y="505"/>
      <point x="202" y="519"/>
      <point x="226" y="519" type="curve" smooth="yes"/>
      <point x="242" y="519" type="line"/>
      <point x="242" y="586" type="line"/>
      <point x="216" y="586" type="line" smooth="yes"/>
      <point x="148" y="586"/>
      <point x="98" y="557"/>
      <point x="98" y="488" type="curve" smooth="yes"/>
      <point x="98" y="436"/>
      <point x="137" y="388"/>
      <point x="228" y="388" type="curve" smooth="yes"/>
      <point x="302" y="388"/>
      <point x="361" y="415"/>
      <point x="396" y="462" type="curve"/>
    </contour>
  </outline>
</glyph>
<glyph name="uni17D6" format="2">
  <advance width="477"/>
  <unicode hex="17D6"/>
  <note>
uni17D6
</note>
  <outline>
    <contour>
      <point x="80" y="259" type="line"/>
      <point x="397" y="259" type="line"/>
      <point x="397" y="326" type="line"/>
      <point x="80" y="326" type="line"/>
    </contour>
    <contour>
      <point x="240" y="-3" type="curve" smooth="yes"/>
      <point x="302" y="-3"/>
      <point x="353" y="48"/>
      <point x="353" y="110" type="curve" smooth="yes"/>
      <point x="353" y="172"/>
      <point x="302" y="223"/>
      <point x="240" y="223" type="curve" smooth="yes"/>
      <point x="178" y="223"/>
      <point x="127" y="172"/>
      <point x="127" y="110" type="curve" smooth="yes"/>
      <point x="127" y="48"/>
      <point x="178" y="-3"/>
    </contour>
    <contour>
      <point x="239" y="58" type="curve" smooth="yes"/>
      <point x="211" y="58"/>
      <point x="187" y="81"/>
      <point x="187" y="110" type="curve" smooth="yes"/>
      <point x="187" y="141"/>
      <point x="210" y="164"/>
      <point x="239" y="164" type="curve" smooth="yes"/>
      <point x="269" y="164"/>
      <point x="292" y="139"/>
      <point x="292" y="110" type="curve" smooth="yes"/>
      <point x="292" y="80"/>
      <point x="268" y="58"/>
    </contour>
    <contour>
      <point x="240" y="363" type="curve" smooth="yes"/>
      <point x="302" y="363"/>
      <point x="353" y="414"/>
      <point x="353" y="476" type="curve" smooth="yes"/>
      <point x="353" y="538"/>
      <point x="302" y="589"/>
      <point x="240" y="589" type="curve" smooth="yes"/>
      <point x="178" y="589"/>
      <point x="127" y="538"/>
      <point x="127" y="476" type="curve" smooth="yes"/>
      <point x="127" y="414"/>
      <point x="178" y="363"/>
    </contour>
    <contour>
      <point x="239" y="424" type="curve" smooth="yes"/>
      <point x="211" y="424"/>
      <point x="187" y="447"/>
      <point x="187" y="476" type="curve" smooth="yes"/>
      <point x="187" y="507"/>
      <point x="210" y="530"/>
      <point x="239" y="530" type="curve" smooth="yes"/>
      <point x="269" y="530"/>
      <point x="292" y="505"/>
      <point x="292" y="476" type="curve" smooth="yes"/>
      <point x="292" y="446"/>
      <point x="268" y="424"/>
    </contour>
  </outline>
</glyph>
<glyph name="uni17D7" format="2">
  <advance width="586"/>
  <unicode hex="17D7"/>
  <note>
uni17D7
</note>
  <outline>
    <contour>
      <point x="269" y="-195" type="line"/>
      <point x="294" y="-195" type="line" smooth="yes"/>
      <point x="428" y="-195"/>
      <point x="488" y="-141"/>
      <point x="488" y="-39" type="curve" smooth="yes"/>
      <point x="488" y="586" type="line"/>
      <point x="396" y="586" type="line"/>
      <point x="360" y="533"/>
      <point x="333" y="506"/>
      <point x="308" y="506" type="curve" smooth="yes"/>
      <point x="276" y="506"/>
      <point x="262" y="586"/>
      <point x="183" y="586" type="curve" smooth="yes"/>
      <point x="122" y="586"/>
      <point x="73" y="542"/>
      <point x="73" y="478" type="curve" smooth="yes"/>
      <point x="73" y="422"/>
      <point x="117" y="375"/>
      <point x="189" y="375" type="curve" smooth="yes"/>
      <point x="214" y="375" type="line"/>
      <point x="214" y="446" type="line"/>
      <point x="205" y="446" type="line" smooth="yes"/>
      <point x="178" y="446"/>
      <point x="165" y="462"/>
      <point x="165" y="481" type="curve" smooth="yes"/>
      <point x="165" y="497"/>
      <point x="174" y="513"/>
      <point x="197" y="513" type="curve" smooth="yes"/>
      <point x="237" y="513"/>
      <point x="240" y="441"/>
      <point x="305" y="441" type="curve" smooth="yes"/>
      <point x="333" y="441"/>
      <point x="362" y="456"/>
      <point x="395" y="485" type="curve"/>
      <point x="396" y="485" type="line"/>
      <point x="396" y="-39" type="line" smooth="yes"/>
      <point x="396" y="-96"/>
      <point x="374" y="-128"/>
      <point x="276" y="-128" type="curve" smooth="yes"/>
      <point x="269" y="-128" type="line"/>
    </contour>
  </outline>
</glyph>
<glyph name="uni17D8" format="2">
  <advance width="1960"/>
  <unicode hex="17D8"/>
  <note>
uni17D8
</note>
  <outline>
    <contour>
      <point x="396" y="0" type="line"/>
      <point x="488" y="0" type="line"/>
      <point x="488" y="586" type="line"/>
      <point x="396" y="586" type="line"/>
      <point x="338" y="488"/>
      <point x="299" y="455"/>
      <point x="233" y="455" type="curve" smooth="yes"/>
      <point x="202" y="455"/>
      <point x="189" y="471"/>
      <point x="189" y="489" type="curve" smooth="yes"/>
      <point x="189" y="505"/>
      <point x="202" y="519"/>
      <point x="226" y="519" type="curve" smooth="yes"/>
      <point x="242" y="519" type="line"/>
      <point x="242" y="586" type="line"/>
      <point x="216" y="586" type="line" smooth="yes"/>
      <point x="148" y="586"/>
      <point x="98" y="557"/>
      <point x="98" y="488" type="curve" smooth="yes"/>
      <point x="98" y="436"/>
      <point x="137" y="388"/>
      <point x="228" y="388" type="curve" smooth="yes"/>
      <point x="302" y="388"/>
      <point x="361" y="415"/>
      <point x="396" y="462" type="curve"/>
    </contour>
    <contour>
      <point x="1340" y="379" type="line"/>
      <point x="1248" y="379" type="line"/>
      <point x="1248" y="158" type="line" smooth="yes"/>
      <point x="1248" y="98"/>
      <point x="1211" y="67"/>
      <point x="1135" y="67" type="curve" smooth="yes"/>
      <point x="1060" y="67"/>
      <point x="1023" y="98"/>
      <point x="1023" y="158" type="curve" smooth="yes"/>
      <point x="1023" y="428" type="line" smooth="yes"/>
      <point x="1023" y="533"/>
      <point x="953" y="586"/>
      <point x="815" y="586" type="curve" smooth="yes"/>
      <point x="677" y="586"/>
      <point x="608" y="533"/>
      <point x="608" y="428" type="curve" smooth="yes"/>
      <point x="608" y="235" type="line"/>
      <point x="700" y="235" type="line"/>
      <point x="700" y="428" type="line" smooth="yes"/>
      <point x="700" y="488"/>
      <point x="738" y="519"/>
      <point x="815" y="519" type="curve" smooth="yes"/>
      <point x="892" y="519"/>
      <point x="931" y="488"/>
      <point x="931" y="428" type="curve" smooth="yes"/>
      <point x="931" y="158" type="line" smooth="yes"/>
      <point x="931" y="53"/>
      <point x="999" y="0"/>
      <point x="1135" y="0" type="curve" smooth="yes"/>
      <point x="1272" y="0"/>
      <point x="1340" y="53"/>
      <point x="1340" y="158" type="curve" smooth="yes"/>
    </contour>
    <contour>
      <point x="608" y="247" type="line"/>
      <point x="608" y="60" type="line" smooth="yes"/>
      <point x="608" y="20"/>
      <point x="638" y="0"/>
      <point x="674" y="0" type="curve" smooth="yes"/>
      <point x="702" y="0" type="line" smooth="yes"/>
      <point x="760" y="0"/>
      <point x="806" y="44"/>
      <point x="806" y="113" type="curve" smooth="yes"/>
      <point x="806" y="187"/>
      <point x="761" y="219"/>
      <point x="700" y="219" type="curve"/>
      <point x="700" y="247" type="line" smooth="yes"/>
    </contour>
    <contour>
      <point x="700" y="67" type="curve"/>
      <point x="700" y="151" type="line"/>
      <point x="730" y="150"/>
      <point x="744" y="136"/>
      <point x="744" y="112" type="curve" smooth="yes"/>
      <point x="744" y="84"/>
      <point x="730" y="67"/>
    </contour>
    <contour>
      <point x="1248" y="361" type="line"/>
      <point x="1340" y="361" type="line"/>
      <point x="1340" y="410" type="line"/>
      <point x="1243" y="518" type="line"/>
      <point x="1243" y="519" type="line"/>
      <point x="1364" y="519" type="line"/>
      <point x="1364" y="586" type="line"/>
      <point x="1243" y="586" type="line"/>
      <point x="1189" y="515"/>
      <point x="1179" y="502"/>
      <point x="1179" y="491" type="curve" smooth="yes"/>
      <point x="1179" y="478"/>
      <point x="1185" y="471"/>
      <point x="1248" y="394" type="curve"/>
    </contour>
    <contour>
      <point x="1742" y="0" type="line"/>
      <point x="1834" y="0" type="line"/>
      <point x="1834" y="586" type="line"/>
      <point x="1742" y="586" type="line"/>
      <point x="1684" y="488"/>
      <point x="1645" y="455"/>
      <point x="1579" y="455" type="curve" smooth="yes"/>
      <point x="1548" y="455"/>
      <point x="1535" y="471"/>
      <point x="1535" y="489" type="curve" smooth="yes"/>
      <point x="1535" y="505"/>
      <point x="1548" y="519"/>
      <point x="1572" y="519" type="curve" smooth="yes"/>
      <point x="1588" y="519" type="line"/>
      <point x="1588" y="586" type="line"/>
      <point x="1562" y="586" type="line" smooth="yes"/>
      <point x="1494" y="586"/>
      <point x="1444" y="557"/>
      <point x="1444" y="488" type="curve" smooth="yes"/>
      <point x="1444" y="436"/>
      <point x="1483" y="388"/>
      <point x="1574" y="388" type="curve" smooth="yes"/>
      <point x="1648" y="388"/>
      <point x="1707" y="415"/>
      <point x="1742" y="462" type="curve"/>
    </contour>
  </outline>
</glyph>
<glyph name="uni17D9" format="2">
  <advance width="732"/>
  <unicode hex="17D9"/>
  <note>
uni17D9
</note>
  <outline>
    <contour>
      <point x="366" y="0" type="curve" smooth="yes"/>
      <point x="545" y="0"/>
      <point x="635" y="98"/>
      <point x="635" y="293" type="curve" smooth="yes"/>
      <point x="635" y="488"/>
      <point x="545" y="586"/>
      <point x="366" y="586" type="curve" smooth="yes"/>
      <point x="187" y="586"/>
      <point x="98" y="488"/>
      <point x="98" y="293" type="curve" smooth="yes"/>
      <point x="98" y="98"/>
      <point x="187" y="0"/>
    </contour>
    <contour>
      <point x="366" y="49" type="curve" smooth="yes"/>
      <point x="232" y="49"/>
      <point x="165" y="130"/>
      <point x="165" y="293" type="curve" smooth="yes"/>
      <point x="165" y="456"/>
      <point x="232" y="537"/>
      <point x="366" y="537" type="curve" smooth="yes"/>
      <point x="500" y="537"/>
      <point x="568" y="456"/>
      <point x="568" y="293" type="curve" smooth="yes"/>
      <point x="568" y="130"/>
      <point x="500" y="49"/>
    </contour>
    <contour>
      <point x="366" y="98" type="curve" smooth="yes"/>
      <point x="456" y="98"/>
      <point x="500" y="163"/>
      <point x="500" y="293" type="curve" smooth="yes"/>
      <point x="500" y="423"/>
      <point x="456" y="488"/>
      <point x="366" y="488" type="curve" smooth="yes"/>
      <point x="277" y="488"/>
      <point x="232" y="423"/>
      <point x="232" y="293" type="curve" smooth="yes"/>
      <point x="232" y="163"/>
      <point x="277" y="98"/>
    </contour>
    <contour>
      <point x="366" y="146" type="curve" smooth="yes"/>
      <point x="322" y="146"/>
      <point x="299" y="195"/>
      <point x="299" y="293" type="curve" smooth="yes"/>
      <point x="299" y="391"/>
      <point x="322" y="439"/>
      <point x="366" y="439" type="curve" smooth="yes"/>
      <point x="411" y="439"/>
      <point x="434" y="391"/>
      <point x="434" y="293" type="curve" smooth="yes"/>
      <point x="434" y="195"/>
      <point x="411" y="146"/>
    </contour>
  </outline>
</glyph>
<glyph name="uni17DA" format="2">
  <advance width="1399"/>
  <unicode hex="17DA"/>
  <note>
uni17DA
</note>
  <outline>
    <contour>
      <point x="328" y="0" type="curve" smooth="yes"/>
      <point x="472" y="0"/>
      <point x="516" y="87"/>
      <point x="607" y="265" type="curve" smooth="yes"/>
      <point x="704" y="454" type="line"/>
      <point x="831" y="53" type="line"/>
      <point x="912" y="53" type="line"/>
      <point x="1013" y="403" type="line"/>
      <point x="1094" y="106" type="line"/>
      <point x="1167" y="106" type="line"/>
      <point x="1227" y="255" type="line"/>
      <point x="1319" y="255" type="line"/>
      <point x="1319" y="319" type="line"/>
      <point x="1191" y="319" type="line"/>
      <point x="1135" y="199" type="line"/>
      <point x="1053" y="478" type="line"/>
      <point x="972" y="478" type="line"/>
      <point x="871" y="143" type="line"/>
      <point x="748" y="531" type="line"/>
      <point x="667" y="531" type="line"/>
      <point x="548" y="292" type="line" smooth="yes"/>
      <point x="466" y="127"/>
      <point x="414" y="63"/>
      <point x="332" y="63" type="curve" smooth="yes"/>
      <point x="277" y="63"/>
      <point x="189" y="115"/>
      <point x="189" y="295" type="curve" smooth="yes"/>
      <point x="189" y="463"/>
      <point x="260" y="523"/>
      <point x="327" y="523" type="curve" smooth="yes"/>
      <point x="393" y="523"/>
      <point x="415" y="477"/>
      <point x="415" y="441" type="curve" smooth="yes"/>
      <point x="415" y="397"/>
      <point x="393" y="357"/>
      <point x="333" y="357" type="curve"/>
      <point x="333" y="297" type="line"/>
      <point x="435" y="297"/>
      <point x="507" y="350"/>
      <point x="507" y="440" type="curve" smooth="yes"/>
      <point x="507" y="523"/>
      <point x="442" y="586"/>
      <point x="326" y="586" type="curve" smooth="yes"/>
      <point x="228" y="586"/>
      <point x="98" y="533"/>
      <point x="98" y="296" type="curve" smooth="yes"/>
      <point x="98" y="127"/>
      <point x="176" y="0"/>
    </contour>
  </outline>
</glyph>
<glyph name="uni17DB" format="2">
  <advance width="332"/>
  <unicode hex="17DB"/>
  <note>
uni17DB
</note>
  <outline>
    <contour>
      <point x="78" y="259" type="line"/>
      <point x="292" y="259" type="line"/>
      <point x="292" y="327" type="line"/>
      <point x="78" y="327" type="line"/>
    </contour>
    <contour>
      <point x="152" y="361" type="line"/>
      <point x="244" y="361" type="line"/>
      <point x="244" y="410" type="line"/>
      <point x="147" y="518" type="line"/>
      <point x="147" y="519" type="line"/>
      <point x="268" y="519" type="line"/>
      <point x="268" y="586" type="line"/>
      <point x="147" y="586" type="line"/>
      <point x="93" y="515"/>
      <point x="83" y="502"/>
      <point x="83" y="491" type="curve" smooth="yes"/>
      <point x="83" y="478"/>
      <point x="89" y="471"/>
      <point x="152" y="394" type="curve"/>
    </contour>
    <contour>
      <point x="244" y="376" type="line"/>
      <point x="152" y="376" type="line"/>
      <point x="152" y="219" type="line"/>
      <point x="103" y="215"/>
      <point x="40" y="187"/>
      <point x="40" y="108" type="curve" smooth="yes"/>
      <point x="40" y="20"/>
      <point x="102" y="0"/>
      <point x="157" y="0" type="curve" smooth="yes"/>
      <point x="175" y="0" type="line" smooth="yes"/>
      <point x="219" y="0"/>
      <point x="244" y="20"/>
      <point x="244" y="69" type="curve" smooth="yes"/>
    </contour>
    <contour>
      <point x="152" y="67" type="line"/>
      <point x="131" y="67"/>
      <point x="107" y="77"/>
      <point x="107" y="109" type="curve" smooth="yes"/>
      <point x="107" y="141"/>
      <point x="133" y="151"/>
      <point x="152" y="151" type="curve"/>
    </contour>
  </outline>
</glyph>
<glyph name="uni17DC" format="2">
  <advance width="733"/>
  <unicode hex="17DC"/>
  <note>
uni17DC
</note>
  <outline>
    <contour>
      <point x="353" y="0" type="curve" smooth="yes"/>
      <point x="522" y="0"/>
      <point x="603" y="72"/>
      <point x="603" y="197" type="curve" smooth="yes"/>
      <point x="603" y="300"/>
      <point x="528" y="350"/>
      <point x="373" y="381" type="curve" smooth="yes"/>
      <point x="268" y="402"/>
      <point x="223" y="418"/>
      <point x="223" y="497" type="curve" smooth="yes"/>
      <point x="223" y="581"/>
      <point x="292" y="618"/>
      <point x="380" y="618" type="curve" smooth="yes"/>
      <point x="446" y="618"/>
      <point x="514" y="594"/>
      <point x="514" y="550" type="curve" smooth="yes"/>
      <point x="514" y="520"/>
      <point x="500" y="506"/>
      <point x="481" y="506" type="curve"/>
      <point x="481" y="439" type="line"/>
      <point x="540" y="439"/>
      <point x="598" y="479"/>
      <point x="598" y="559" type="curve" smooth="yes"/>
      <point x="598" y="630"/>
      <point x="517" y="684"/>
      <point x="372" y="684" type="curve" smooth="yes"/>
      <point x="233" y="684"/>
      <point x="130" y="614"/>
      <point x="130" y="492" type="curve" smooth="yes"/>
      <point x="130" y="359"/>
      <point x="221" y="337"/>
      <point x="353" y="308" type="curve" smooth="yes"/>
      <point x="488" y="278"/>
      <point x="515" y="250"/>
      <point x="515" y="188" type="curve" smooth="yes"/>
      <point x="515" y="128"/>
      <point x="473" y="73"/>
      <point x="363" y="73" type="curve" smooth="yes"/>
      <point x="281" y="73"/>
      <point x="225" y="87"/>
      <point x="225" y="139" type="curve" smooth="yes"/>
      <point x="225" y="177"/>
      <point x="255" y="187"/>
      <point x="274" y="187" type="curve"/>
      <point x="274" y="254" type="line"/>
      <point x="193" y="254"/>
      <point x="130" y="223"/>
      <point x="130" y="135" type="curve" smooth="yes"/>
      <point x="130" y="50"/>
      <point x="218" y="0"/>
    </contour>
  </outline>
</glyph>
<glyph name="uni17E0" format="2">
  <advance width="635"/>
  <unicode hex="17E0"/>
  <note>
uni17E0
</note>
  <outline>
    <contour>
      <point x="317" y="0" type="curve" smooth="yes"/>
      <point x="464" y="0"/>
      <point x="537" y="62"/>
      <point x="537" y="186" type="curve" smooth="yes"/>
      <point x="537" y="400" type="line" smooth="yes"/>
      <point x="537" y="524"/>
      <point x="464" y="586"/>
      <point x="317" y="586" type="curve" smooth="yes"/>
      <point x="171" y="586"/>
      <point x="98" y="524"/>
      <point x="98" y="400" type="curve" smooth="yes"/>
      <point x="98" y="186" type="line" smooth="yes"/>
      <point x="98" y="62"/>
      <point x="171" y="0"/>
    </contour>
    <contour>
      <point x="317" y="67" type="curve" smooth="yes"/>
      <point x="232" y="67"/>
      <point x="189" y="107"/>
      <point x="189" y="186" type="curve" smooth="yes"/>
      <point x="189" y="400" type="line" smooth="yes"/>
      <point x="189" y="479"/>
      <point x="232" y="519"/>
      <point x="317" y="519" type="curve" smooth="yes"/>
      <point x="403" y="519"/>
      <point x="445" y="479"/>
      <point x="445" y="400" type="curve" smooth="yes"/>
      <point x="445" y="186" type="line" smooth="yes"/>
      <point x="445" y="107"/>
      <point x="403" y="67"/>
    </contour>
  </outline>
</glyph>
<glyph name="uni17E1" format="2">
  <advance width="635"/>
  <unicode hex="17E1"/>
  <note>
uni17E1
</note>
  <outline>
    <contour>
      <point x="317" y="0" type="curve" smooth="yes"/>
      <point x="464" y="0"/>
      <point x="537" y="52"/>
      <point x="537" y="156" type="curve" smooth="yes"/>
      <point x="537" y="430" type="line" smooth="yes"/>
      <point x="537" y="534"/>
      <point x="464" y="586"/>
      <point x="317" y="586" type="curve" smooth="yes"/>
      <point x="171" y="586"/>
      <point x="98" y="534"/>
      <point x="98" y="430" type="curve" smooth="yes"/>
      <point x="98" y="371" type="line" smooth="yes"/>
      <point x="98" y="293"/>
      <point x="149" y="254"/>
      <point x="251" y="254" type="curve" smooth="yes"/>
      <point x="317" y="254" type="line"/>
      <point x="317" y="330" type="line"/>
      <point x="251" y="330" type="line" smooth="yes"/>
      <point x="210" y="330"/>
      <point x="189" y="345"/>
      <point x="189" y="371" type="curve" smooth="yes"/>
      <point x="189" y="430" type="line" smooth="yes"/>
      <point x="189" y="489"/>
      <point x="232" y="519"/>
      <point x="317" y="519" type="curve" smooth="yes"/>
      <point x="403" y="519"/>
      <point x="445" y="489"/>
      <point x="445" y="430" type="curve" smooth="yes"/>
      <point x="445" y="156" type="line" smooth="yes"/>
      <point x="445" y="97"/>
      <point x="403" y="67"/>
      <point x="317" y="67" type="curve" smooth="yes"/>
      <point x="232" y="67"/>
      <point x="189" y="97"/>
      <point x="189" y="156" type="curve"/>
      <point x="98" y="156" type="line"/>
      <point x="98" y="52"/>
      <point x="171" y="0"/>
    </contour>
  </outline>
</glyph>
<glyph name="uni17E2" format="2">
  <advance width="752"/>
  <unicode hex="17E2"/>
  <note>
uni17E2
</note>
  <outline>
    <contour>
      <point x="375" y="0" type="curve" smooth="yes"/>
      <point x="561" y="0"/>
      <point x="654" y="65"/>
      <point x="654" y="195" type="curve" smooth="yes"/>
      <point x="654" y="586" type="line"/>
      <point x="562" y="586" type="line"/>
      <point x="462" y="501" type="line"/>
      <point x="361" y="586" type="line"/>
      <point x="269" y="586" type="line"/>
      <point x="269" y="293" type="line"/>
      <point x="386" y="293" type="line"/>
      <point x="386" y="360" type="line"/>
      <point x="361" y="360" type="line"/>
      <point x="361" y="504" type="line"/>
      <point x="462" y="419" type="line"/>
      <point x="562" y="504" type="line"/>
      <point x="562" y="195" type="line" smooth="yes"/>
      <point x="562" y="110"/>
      <point x="500" y="67"/>
      <point x="375" y="67" type="curve" smooth="yes"/>
      <point x="251" y="67"/>
      <point x="190" y="110"/>
      <point x="190" y="195" type="curve" smooth="yes"/>
      <point x="190" y="667" type="line" smooth="yes"/>
      <point x="190" y="694"/>
      <point x="176" y="708"/>
      <point x="144" y="708" type="curve" smooth="yes"/>
      <point x="49" y="708" type="line"/>
      <point x="49" y="641" type="line"/>
      <point x="98" y="641" type="line"/>
      <point x="98" y="195" type="line" smooth="yes"/>
      <point x="98" y="65"/>
      <point x="190" y="0"/>
    </contour>
  </outline>
</glyph>
<glyph name="uni17E3" format="2">
  <advance width="861"/>
  <unicode hex="17E3"/>
  <note>
uni17E3
</note>
  <outline>
    <contour>
      <point x="98" y="0" type="line"/>
      <point x="238" y="0" type="line"/>
      <point x="238" y="67" type="line"/>
      <point x="190" y="67" type="line"/>
      <point x="190" y="410" type="line" smooth="yes"/>
      <point x="190" y="482"/>
      <point x="222" y="519"/>
      <point x="287" y="519" type="curve" smooth="yes"/>
      <point x="352" y="519"/>
      <point x="385" y="482"/>
      <point x="385" y="425" type="curve" smooth="yes"/>
      <point x="385" y="0" type="line"/>
      <point x="477" y="0" type="line"/>
      <point x="477" y="425" type="line" smooth="yes"/>
      <point x="477" y="482"/>
      <point x="509" y="519"/>
      <point x="574" y="519" type="curve" smooth="yes"/>
      <point x="639" y="519"/>
      <point x="672" y="482"/>
      <point x="672" y="410" type="curve" smooth="yes"/>
      <point x="672" y="0" type="line"/>
      <point x="764" y="0" type="line"/>
      <point x="764" y="410" type="line" smooth="yes"/>
      <point x="764" y="527"/>
      <point x="701" y="586"/>
      <point x="574" y="586" type="curve" smooth="yes"/>
      <point x="509" y="586"/>
      <point x="461" y="571"/>
      <point x="430" y="542" type="curve"/>
      <point x="399" y="571"/>
      <point x="352" y="586"/>
      <point x="287" y="586" type="curve" smooth="yes"/>
      <point x="161" y="586"/>
      <point x="98" y="529"/>
      <point x="98" y="415" type="curve" smooth="yes"/>
    </contour>
  </outline>
</glyph>
<glyph name="uni17E4" format="2">
  <advance width="635"/>
  <unicode hex="17E4"/>
  <note>
uni17E4
</note>
  <outline>
    <contour>
      <point x="317" y="0" type="curve" smooth="yes"/>
      <point x="513" y="0" type="line"/>
      <point x="537" y="67" type="line"/>
      <point x="434" y="243" type="line"/>
      <point x="434" y="391" type="line"/>
      <point x="537" y="391" type="line"/>
      <point x="537" y="458" type="line"/>
      <point x="439" y="458" type="line" smooth="yes"/>
      <point x="375" y="458"/>
      <point x="342" y="439"/>
      <point x="342" y="391" type="curve" smooth="yes"/>
      <point x="342" y="219" type="line"/>
      <point x="474" y="67" type="line"/>
      <point x="317" y="67" type="line" smooth="yes"/>
      <point x="232" y="67"/>
      <point x="189" y="110"/>
      <point x="189" y="195" type="curve" smooth="yes"/>
      <point x="189" y="640" type="line" smooth="yes"/>
      <point x="189" y="688"/>
      <point x="178" y="713"/>
      <point x="137" y="713" type="curve" smooth="yes"/>
      <point x="49" y="713" type="line"/>
      <point x="49" y="646" type="line"/>
      <point x="98" y="646" type="line"/>
      <point x="98" y="195" type="line" smooth="yes"/>
      <point x="98" y="65"/>
      <point x="171" y="0"/>
    </contour>
  </outline>
</glyph>
<glyph name="uni17E5" format="2">
  <advance width="635"/>
  <unicode hex="17E5"/>
  <note>
uni17E5
</note>
  <outline>
    <contour>
      <point x="317" y="0" type="curve" smooth="yes"/>
      <point x="512" y="0" type="line"/>
      <point x="537" y="67" type="line"/>
      <point x="434" y="194" type="line"/>
      <point x="434" y="323" type="line"/>
      <point x="537" y="323" type="line"/>
      <point x="537" y="391" type="line"/>
      <point x="434" y="391" type="line" smooth="yes"/>
      <point x="376" y="391"/>
      <point x="342" y="342"/>
      <point x="342" y="293" type="curve" smooth="yes"/>
      <point x="342" y="180" type="line"/>
      <point x="464" y="67" type="line"/>
      <point x="317" y="67" type="line" smooth="yes"/>
      <point x="232" y="67"/>
      <point x="189" y="99"/>
      <point x="189" y="161" type="curve" smooth="yes"/>
      <point x="189" y="418" type="line" smooth="yes"/>
      <point x="189" y="457"/>
      <point x="209" y="477"/>
      <point x="236" y="493" type="curve"/>
      <point x="283" y="473"/>
      <point x="328" y="461"/>
      <point x="379" y="461" type="curve" smooth="yes"/>
      <point x="469" y="461"/>
      <point x="537" y="507"/>
      <point x="537" y="590" type="curve" smooth="yes"/>
      <point x="537" y="714" type="line"/>
      <point x="445" y="714" type="line"/>
      <point x="445" y="590" type="line" smooth="yes"/>
      <point x="445" y="558"/>
      <point x="420" y="529"/>
      <point x="375" y="529" type="curve" smooth="yes"/>
      <point x="351" y="529"/>
      <point x="334" y="530"/>
      <point x="302" y="539" type="curve"/>
      <point x="320" y="558"/>
      <point x="330" y="576"/>
      <point x="330" y="602" type="curve" smooth="yes"/>
      <point x="330" y="638"/>
      <point x="302" y="677"/>
      <point x="240" y="677" type="curve" smooth="yes"/>
      <point x="181" y="677"/>
      <point x="150" y="641"/>
      <point x="150" y="598" type="curve" smooth="yes"/>
      <point x="150" y="574"/>
      <point x="159" y="557"/>
      <point x="174" y="540" type="curve"/>
      <point x="121" y="515"/>
      <point x="97" y="485"/>
      <point x="97" y="419" type="curve" smooth="yes"/>
      <point x="97" y="161" type="line" smooth="yes"/>
      <point x="97" y="54"/>
      <point x="171" y="0"/>
    </contour>
  </outline>
</glyph>
<glyph name="uni17E6" format="2">
  <advance width="635"/>
  <unicode hex="17E6"/>
  <note>
uni17E6
</note>
  <outline>
    <contour>
      <point x="317" y="0" type="curve" smooth="yes"/>
      <point x="464" y="0"/>
      <point x="537" y="65"/>
      <point x="537" y="195" type="curve" smooth="yes"/>
      <point x="537" y="391" type="line" smooth="yes"/>
      <point x="537" y="521"/>
      <point x="464" y="586"/>
      <point x="317" y="586" type="curve" smooth="yes"/>
      <point x="274" y="586"/>
      <point x="231" y="577"/>
      <point x="189" y="560" type="curve"/>
      <point x="189" y="714" type="line"/>
      <point x="98" y="714" type="line"/>
      <point x="98" y="420" type="line"/>
      <point x="189" y="420" type="line"/>
      <point x="189" y="486"/>
      <point x="232" y="519"/>
      <point x="317" y="519" type="curve" smooth="yes"/>
      <point x="403" y="519"/>
      <point x="445" y="476"/>
      <point x="445" y="391" type="curve" smooth="yes"/>
      <point x="445" y="195" type="line" smooth="yes"/>
      <point x="445" y="110"/>
      <point x="403" y="67"/>
      <point x="317" y="67" type="curve" smooth="yes"/>
      <point x="232" y="67"/>
      <point x="189" y="102"/>
      <point x="189" y="171" type="curve" smooth="yes"/>
      <point x="189" y="240"/>
      <point x="216" y="275"/>
      <point x="269" y="275" type="curve" smooth="yes"/>
      <point x="342" y="275" type="line"/>
      <point x="342" y="342" type="line"/>
      <point x="269" y="342" type="line" smooth="yes"/>
      <point x="155" y="342"/>
      <point x="98" y="285"/>
      <point x="98" y="171" type="curve" smooth="yes"/>
      <point x="98" y="57"/>
      <point x="171" y="0"/>
    </contour>
  </outline>
</glyph>
<glyph name="uni17E7" format="2">
  <advance width="781"/>
  <unicode hex="17E7"/>
  <note>
uni17E7
</note>
  <outline>
    <contour>
      <point x="97" y="0" type="line"/>
      <point x="269" y="0" type="line"/>
      <point x="269" y="67" type="line"/>
      <point x="189" y="67" type="line"/>
      <point x="189" y="451" type="line" smooth="yes"/>
      <point x="189" y="492"/>
      <point x="199" y="513"/>
      <point x="218" y="513" type="curve" smooth="yes"/>
      <point x="233" y="513"/>
      <point x="253" y="498"/>
      <point x="278" y="467" type="curve" smooth="yes"/>
      <point x="286" y="457"/>
      <point x="295" y="452"/>
      <point x="305" y="452" type="curve" smooth="yes"/>
      <point x="315" y="452"/>
      <point x="324" y="457"/>
      <point x="333" y="467" type="curve" smooth="yes"/>
      <point x="359" y="497"/>
      <point x="377" y="513"/>
      <point x="393" y="513" type="curve" smooth="yes"/>
      <point x="412" y="513"/>
      <point x="421" y="492"/>
      <point x="421" y="451" type="curve" smooth="yes"/>
      <point x="421" y="120" type="line" smooth="yes"/>
      <point x="421" y="38"/>
      <point x="467" y="0"/>
      <point x="553" y="0" type="curve" smooth="yes"/>
      <point x="639" y="0"/>
      <point x="684" y="38"/>
      <point x="684" y="120" type="curve" smooth="yes"/>
      <point x="684" y="714" type="line"/>
      <point x="592" y="714" type="line"/>
      <point x="592" y="100" type="line" smooth="yes"/>
      <point x="592" y="79"/>
      <point x="573" y="67"/>
      <point x="553" y="67" type="curve" smooth="yes"/>
      <point x="533" y="67"/>
      <point x="513" y="79"/>
      <point x="513" y="100" type="curve" smooth="yes"/>
      <point x="513" y="451" type="line" smooth="yes"/>
      <point x="513" y="524"/>
      <point x="472" y="586"/>
      <point x="408" y="586" type="curve" smooth="yes"/>
      <point x="372" y="586"/>
      <point x="340" y="566"/>
      <point x="305" y="525" type="curve"/>
      <point x="271" y="566"/>
      <point x="243" y="586"/>
      <point x="204" y="586" type="curve" smooth="yes"/>
      <point x="132" y="586"/>
      <point x="97" y="524"/>
      <point x="97" y="451" type="curve" smooth="yes"/>
    </contour>
  </outline>
</glyph>
<glyph name="uni17E8" format="2">
  <advance width="635"/>
  <unicode hex="17E8"/>
  <note>
uni17E8
</note>
  <outline>
    <contour>
      <point x="98" y="0" type="line"/>
      <point x="205" y="0" type="line"/>
      <point x="318" y="103" type="line"/>
      <point x="431" y="0" type="line"/>
      <point x="537" y="0" type="line"/>
      <point x="537" y="313" type="line" smooth="yes"/>
      <point x="537" y="353"/>
      <point x="517" y="366"/>
      <point x="482" y="366" type="curve" smooth="yes"/>
      <point x="332" y="366" type="line"/>
      <point x="332" y="299" type="line"/>
      <point x="420" y="299" type="line" smooth="yes"/>
      <point x="437" y="299"/>
      <point x="445" y="292"/>
      <point x="445" y="275" type="curve" smooth="yes"/>
      <point x="445" y="82" type="line"/>
      <point x="318" y="198" type="line"/>
      <point x="189" y="81" type="line"/>
      <point x="189" y="430" type="line" smooth="yes"/>
      <point x="189" y="489"/>
      <point x="232" y="519"/>
      <point x="317" y="519" type="curve" smooth="yes"/>
      <point x="403" y="519"/>
      <point x="445" y="489"/>
      <point x="445" y="430" type="curve"/>
      <point x="537" y="430" type="line"/>
      <point x="537" y="714" type="line"/>
      <point x="445" y="714" type="line"/>
      <point x="445" y="560" type="line"/>
      <point x="404" y="577"/>
      <point x="361" y="586"/>
      <point x="317" y="586" type="curve" smooth="yes"/>
      <point x="171" y="586"/>
      <point x="98" y="534"/>
      <point x="98" y="430" type="curve" smooth="yes"/>
    </contour>
  </outline>
</glyph>
<glyph name="uni17E9" format="2">
  <advance width="635"/>
  <unicode hex="17E9"/>
  <note>
uni17E9
</note>
  <outline>
    <contour>
      <point x="317" y="0" type="curve" smooth="yes"/>
      <point x="464" y="0"/>
      <point x="537" y="55"/>
      <point x="537" y="143" type="curve" smooth="yes"/>
      <point x="537" y="219"/>
      <point x="480" y="261"/>
      <point x="366" y="261" type="curve" smooth="yes"/>
      <point x="317" y="261" type="line"/>
      <point x="317" y="199" type="line"/>
      <point x="366" y="199" type="line" smooth="yes"/>
      <point x="419" y="199"/>
      <point x="445" y="178"/>
      <point x="445" y="146" type="curve" smooth="yes"/>
      <point x="445" y="93"/>
      <point x="403" y="67"/>
      <point x="317" y="67" type="curve" smooth="yes"/>
      <point x="232" y="67"/>
      <point x="190" y="94"/>
      <point x="190" y="146" type="curve" smooth="yes"/>
      <point x="190" y="257" type="line" smooth="yes"/>
      <point x="190" y="294"/>
      <point x="210" y="313"/>
      <point x="265" y="313" type="curve" smooth="yes"/>
      <point x="464" y="313" type="line"/>
      <point x="464" y="380" type="line"/>
      <point x="265" y="380" type="line" smooth="yes"/>
      <point x="210" y="380"/>
      <point x="189" y="401"/>
      <point x="189" y="440" type="curve" smooth="yes"/>
      <point x="189" y="493"/>
      <point x="232" y="519"/>
      <point x="317" y="519" type="curve" smooth="yes"/>
      <point x="403" y="519"/>
      <point x="445" y="499"/>
      <point x="445" y="460" type="curve"/>
      <point x="537" y="460" type="line"/>
      <point x="537" y="714" type="line"/>
      <point x="445" y="714" type="line"/>
      <point x="445" y="567" type="line"/>
      <point x="404" y="580"/>
      <point x="361" y="586"/>
      <point x="317" y="586" type="curve" smooth="yes"/>
      <point x="179" y="586"/>
      <point x="98" y="539"/>
      <point x="98" y="450" type="curve" smooth="yes"/>
      <point x="98" y="394"/>
      <point x="133" y="361"/>
      <point x="165" y="347" type="curve"/>
      <point x="133" y="333"/>
      <point x="98" y="301"/>
      <point x="98" y="236" type="curve" smooth="yes"/>
      <point x="98" y="157" type="line" smooth="yes"/>
      <point x="98" y="49"/>
      <point x="171" y="0"/>
    </contour>
  </outline>
</glyph>
<glyph name="uni17F1" format="2">
  <advance width="433"/>
  <unicode hex="17F1"/>
  <note>
uni17F1
</note>
  <outline>
    <contour>
      <point x="50" y="0" type="line"/>
      <point x="121" y="0" type="line"/>
      <point x="216" y="276" type="line"/>
      <point x="312" y="0" type="line"/>
      <point x="383" y="0" type="line"/>
      <point x="265" y="342" type="line"/>
      <point x="167" y="342" type="line"/>
    </contour>
  </outline>
</glyph>
<glyph name="uni17F3" format="2">
  <advance width="715"/>
  <unicode hex="17F3"/>
  <note>
uni17F3
</note>
  <outline>
    <contour>
      <point x="547" y="342" type="line"/>
      <point x="449" y="342" type="line"/>
      <point x="357" y="74" type="line"/>
      <point x="265" y="342" type="line"/>
      <point x="167" y="342" type="line"/>
      <point x="50" y="0" type="line"/>
      <point x="121" y="0" type="line"/>
      <point x="216" y="276" type="line"/>
      <point x="312" y="0" type="line"/>
      <point x="403" y="0" type="line"/>
      <point x="498" y="276" type="line"/>
      <point x="594" y="0" type="line"/>
      <point x="665" y="0" type="line"/>
    </contour>
  </outline>
</glyph>
<glyph name="uni17F4" format="2">
  <advance width="433"/>
  <unicode hex="17F4"/>
  <note>
uni17F4
</note>
  <outline>
    <contour>
      <point x="168" y="0" type="line"/>
      <point x="266" y="0" type="line"/>
      <point x="383" y="342" type="line"/>
      <point x="312" y="342" type="line"/>
      <point x="217" y="66" type="line"/>
      <point x="121" y="342" type="line"/>
      <point x="50" y="342" type="line"/>
    </contour>
  </outline>
</glyph>
<glyph name="uni17F6" format="2">
  <advance width="269"/>
  <unicode hex="17F6"/>
  <note>
uni17F6
</note>
  <outline>
    <contour>
      <point x="168" y="0" type="line"/>
      <point x="239" y="0" type="line"/>
      <point x="120" y="342" type="line"/>
      <point x="49" y="342" type="line"/>
    </contour>
  </outline>
</glyph>
<glyph name="uni17F8" format="2">
  <advance width="287"/>
  <unicode hex="17F8"/>
  <note>
uni17F8
</note>
  <outline>
    <contour>
      <point x="50" y="0" type="line"/>
      <point x="118" y="0" type="line"/>
      <point x="237" y="342" type="line"/>
      <point x="167" y="342" type="line"/>
    </contour>
  </outline>
</glyph>
<glyph name="uni17F9" format="2">
  <advance width="466"/>
  <unicode hex="17F9"/>
  <note>
uni17F9
</note>
  <outline>
    <contour>
      <point x="245" y="-171" type="line"/>
      <point x="367" y="-171"/>
      <point x="416" y="-125"/>
      <point x="416" y="-54" type="curve" smooth="yes"/>
      <point x="416" y="11"/>
      <point x="372" y="49"/>
      <point x="289" y="49" type="curve" smooth="yes"/>
      <point x="152" y="49" type="line"/>
      <point x="369" y="223" type="line"/>
      <point x="335" y="277" type="line"/>
      <point x="50" y="55" type="line"/>
      <point x="69" y="-10" type="line"/>
      <point x="274" y="-10" type="line" smooth="yes"/>
      <point x="327" y="-10"/>
      <point x="338" y="-31"/>
      <point x="338" y="-58" type="curve" smooth="yes"/>
      <point x="338" y="-101"/>
      <point x="297" y="-112"/>
      <point x="245" y="-112" type="curve"/>
    </contour>
  </outline>
</glyph>
<glyph name="uni19E0" format="2">
  <advance width="635"/>
  <unicode hex="19E0"/>
  <note>
uni19E0
</note>
  <outline>
    <contour>
      <point x="317" y="451" type="curve" smooth="yes"/>
      <point x="464" y="451"/>
      <point x="537" y="513"/>
      <point x="537" y="637" type="curve" smooth="yes"/>
      <point x="537" y="851" type="line" smooth="yes"/>
      <point x="537" y="975"/>
      <point x="464" y="1037"/>
      <point x="317" y="1037" type="curve" smooth="yes"/>
      <point x="171" y="1037"/>
      <point x="98" y="975"/>
      <point x="98" y="851" type="curve" smooth="yes"/>
      <point x="98" y="637" type="line" smooth="yes"/>
      <point x="98" y="513"/>
      <point x="171" y="451"/>
    </contour>
    <contour>
      <point x="317" y="518" type="curve" smooth="yes"/>
      <point x="232" y="518"/>
      <point x="189" y="558"/>
      <point x="189" y="637" type="curve" smooth="yes"/>
      <point x="189" y="851" type="line" smooth="yes"/>
      <point x="189" y="930"/>
      <point x="232" y="970"/>
      <point x="317" y="970" type="curve" smooth="yes"/>
      <point x="403" y="970"/>
      <point x="445" y="930"/>
      <point x="445" y="851" type="curve" smooth="yes"/>
      <point x="445" y="637" type="line" smooth="yes"/>
      <point x="445" y="558"/>
      <point x="403" y="518"/>
    </contour>
    <contour>
      <point x="98" y="-288" type="line"/>
      <point x="205" y="-288" type="line"/>
      <point x="318" y="-185" type="line"/>
      <point x="431" y="-288" type="line"/>
      <point x="537" y="-288" type="line"/>
      <point x="537" y="25" type="line" smooth="yes"/>
      <point x="537" y="65"/>
      <point x="517" y="78"/>
      <point x="482" y="78" type="curve" smooth="yes"/>
      <point x="332" y="78" type="line"/>
      <point x="332" y="11" type="line"/>
      <point x="420" y="11" type="line" smooth="yes"/>
      <point x="437" y="11"/>
      <point x="445" y="4"/>
      <point x="445" y="-13" type="curve" smooth="yes"/>
      <point x="445" y="-206" type="line"/>
      <point x="318" y="-90" type="line"/>
      <point x="189" y="-207" type="line"/>
      <point x="189" y="142" type="line" smooth="yes"/>
      <point x="189" y="201"/>
      <point x="232" y="231"/>
      <point x="317" y="231" type="curve" smooth="yes"/>
      <point x="403" y="231"/>
      <point x="445" y="201"/>
      <point x="445" y="142" type="curve"/>
      <point x="537" y="142" type="line"/>
      <point x="537" y="426" type="line"/>
      <point x="445" y="426" type="line"/>
      <point x="445" y="272" type="line"/>
      <point x="404" y="289"/>
      <point x="361" y="298"/>
      <point x="317" y="298" type="curve" smooth="yes"/>
      <point x="171" y="298"/>
      <point x="98" y="246"/>
      <point x="98" y="142" type="curve" smooth="yes"/>
    </contour>
  </outline>
</glyph>
<glyph name="uni19E1" format="2">
  <advance width="635"/>
  <unicode hex="19E1"/>
  <note>
uni19E1
</note>
  <outline>
    <contour>
      <point x="317" y="390" type="curve" smooth="yes"/>
      <point x="464" y="390"/>
      <point x="537" y="442"/>
      <point x="537" y="546" type="curve" smooth="yes"/>
      <point x="537" y="820" type="line" smooth="yes"/>
      <point x="537" y="924"/>
      <point x="464" y="976"/>
      <point x="317" y="976" type="curve" smooth="yes"/>
      <point x="171" y="976"/>
      <point x="98" y="924"/>
      <point x="98" y="820" type="curve" smooth="yes"/>
      <point x="98" y="761" type="line" smooth="yes"/>
      <point x="98" y="683"/>
      <point x="149" y="644"/>
      <point x="251" y="644" type="curve" smooth="yes"/>
      <point x="317" y="644" type="line"/>
      <point x="317" y="720" type="line"/>
      <point x="251" y="720" type="line" smooth="yes"/>
      <point x="210" y="720"/>
      <point x="189" y="735"/>
      <point x="189" y="761" type="curve" smooth="yes"/>
      <point x="189" y="820" type="line" smooth="yes"/>
      <point x="189" y="879"/>
      <point x="232" y="909"/>
      <point x="317" y="909" type="curve" smooth="yes"/>
      <point x="403" y="909"/>
      <point x="445" y="879"/>
      <point x="445" y="820" type="curve" smooth="yes"/>
      <point x="445" y="546" type="line" smooth="yes"/>
      <point x="445" y="487"/>
      <point x="403" y="457"/>
      <point x="317" y="457" type="curve" smooth="yes"/>
      <point x="232" y="457"/>
      <point x="189" y="487"/>
      <point x="189" y="546" type="curve"/>
      <point x="98" y="546" type="line"/>
      <point x="98" y="442"/>
      <point x="171" y="390"/>
    </contour>
    <contour>
      <point x="396" y="-288" type="line"/>
      <point x="488" y="-288" type="line"/>
      <point x="488" y="298" type="line"/>
      <point x="396" y="298" type="line"/>
      <point x="338" y="200"/>
      <point x="299" y="167"/>
      <point x="233" y="167" type="curve" smooth="yes"/>
      <point x="202" y="167"/>
      <point x="189" y="183"/>
      <point x="189" y="201" type="curve" smooth="yes"/>
      <point x="189" y="217"/>
      <point x="202" y="231"/>
      <point x="226" y="231" type="curve" smooth="yes"/>
      <point x="242" y="231" type="line"/>
      <point x="242" y="298" type="line"/>
      <point x="216" y="298" type="line" smooth="yes"/>
      <point x="148" y="298"/>
      <point x="98" y="269"/>
      <point x="98" y="200" type="curve" smooth="yes"/>
      <point x="98" y="148"/>
      <point x="137" y="100"/>
      <point x="228" y="100" type="curve" smooth="yes"/>
      <point x="302" y="100"/>
      <point x="361" y="127"/>
      <point x="396" y="174" type="curve"/>
    </contour>
  </outline>
</glyph>
<glyph name="uni19E2" format="2">
  <advance width="801"/>
  <unicode hex="19E2"/>
  <note>
uni19E2
</note>
  <outline>
    <contour>
      <point x="424" y="391" type="curve" smooth="yes"/>
      <point x="610" y="391"/>
      <point x="703" y="456"/>
      <point x="703" y="586" type="curve" smooth="yes"/>
      <point x="703" y="977" type="line"/>
      <point x="611" y="977" type="line"/>
      <point x="511" y="892" type="line"/>
      <point x="410" y="977" type="line"/>
      <point x="318" y="977" type="line"/>
      <point x="318" y="684" type="line"/>
      <point x="435" y="684" type="line"/>
      <point x="435" y="751" type="line"/>
      <point x="410" y="751" type="line"/>
      <point x="410" y="895" type="line"/>
      <point x="511" y="810" type="line"/>
      <point x="611" y="895" type="line"/>
      <point x="611" y="586" type="line" smooth="yes"/>
      <point x="611" y="501"/>
      <point x="549" y="458"/>
      <point x="424" y="458" type="curve" smooth="yes"/>
      <point x="300" y="458"/>
      <point x="239" y="501"/>
      <point x="239" y="586" type="curve" smooth="yes"/>
      <point x="239" y="1058" type="line" smooth="yes"/>
      <point x="239" y="1085"/>
      <point x="225" y="1099"/>
      <point x="193" y="1099" type="curve" smooth="yes"/>
      <point x="98" y="1099" type="line"/>
      <point x="98" y="1032" type="line"/>
      <point x="147" y="1032" type="line"/>
      <point x="147" y="586" type="line" smooth="yes"/>
      <point x="147" y="456"/>
      <point x="239" y="391"/>
    </contour>
    <contour>
      <point x="503" y="-288" type="line"/>
      <point x="595" y="-288" type="line"/>
      <point x="595" y="298" type="line"/>
      <point x="503" y="298" type="line"/>
      <point x="445" y="200"/>
      <point x="406" y="167"/>
      <point x="340" y="167" type="curve" smooth="yes"/>
      <point x="309" y="167"/>
      <point x="296" y="183"/>
      <point x="296" y="201" type="curve" smooth="yes"/>
      <point x="296" y="217"/>
      <point x="309" y="231"/>
      <point x="333" y="231" type="curve" smooth="yes"/>
      <point x="349" y="231" type="line"/>
      <point x="349" y="298" type="line"/>
      <point x="323" y="298" type="line" smooth="yes"/>
      <point x="255" y="298"/>
      <point x="205" y="269"/>
      <point x="205" y="200" type="curve" smooth="yes"/>
      <point x="205" y="148"/>
      <point x="244" y="100"/>
      <point x="335" y="100" type="curve" smooth="yes"/>
      <point x="409" y="100"/>
      <point x="468" y="127"/>
      <point x="503" y="174" type="curve"/>
    </contour>
  </outline>
</glyph>
<glyph name="uni19E3" format="2">
  <advance width="861"/>
  <unicode hex="19E3"/>
  <note>
uni19E3
</note>
  <outline>
    <contour>
      <point x="98" y="391" type="line"/>
      <point x="238" y="391" type="line"/>
      <point x="238" y="458" type="line"/>
      <point x="190" y="458" type="line"/>
      <point x="190" y="801" type="line" smooth="yes"/>
      <point x="190" y="873"/>
      <point x="222" y="910"/>
      <point x="287" y="910" type="curve" smooth="yes"/>
      <point x="352" y="910"/>
      <point x="385" y="873"/>
      <point x="385" y="816" type="curve" smooth="yes"/>
      <point x="385" y="391" type="line"/>
      <point x="477" y="391" type="line"/>
      <point x="477" y="816" type="line" smooth="yes"/>
      <point x="477" y="873"/>
      <point x="509" y="910"/>
      <point x="574" y="910" type="curve" smooth="yes"/>
      <point x="639" y="910"/>
      <point x="672" y="873"/>
      <point x="672" y="801" type="curve" smooth="yes"/>
      <point x="672" y="391" type="line"/>
      <point x="764" y="391" type="line"/>
      <point x="764" y="801" type="line" smooth="yes"/>
      <point x="764" y="918"/>
      <point x="701" y="977"/>
      <point x="574" y="977" type="curve" smooth="yes"/>
      <point x="509" y="977"/>
      <point x="461" y="962"/>
      <point x="430" y="933" type="curve"/>
      <point x="399" y="962"/>
      <point x="352" y="977"/>
      <point x="287" y="977" type="curve" smooth="yes"/>
      <point x="161" y="977"/>
      <point x="98" y="920"/>
      <point x="98" y="806" type="curve" smooth="yes"/>
    </contour>
    <contour>
      <point x="534" y="-288" type="line"/>
      <point x="626" y="-288" type="line"/>
      <point x="626" y="298" type="line"/>
      <point x="534" y="298" type="line"/>
      <point x="476" y="200"/>
      <point x="437" y="167"/>
      <point x="371" y="167" type="curve" smooth="yes"/>
      <point x="340" y="167"/>
      <point x="327" y="183"/>
      <point x="327" y="201" type="curve" smooth="yes"/>
      <point x="327" y="217"/>
      <point x="340" y="231"/>
      <point x="364" y="231" type="curve" smooth="yes"/>
      <point x="380" y="231" type="line"/>
      <point x="380" y="298" type="line"/>
      <point x="354" y="298" type="line" smooth="yes"/>
      <point x="286" y="298"/>
      <point x="236" y="269"/>
      <point x="236" y="200" type="curve" smooth="yes"/>
      <point x="236" y="148"/>
      <point x="275" y="100"/>
      <point x="366" y="100" type="curve" smooth="yes"/>
      <point x="440" y="100"/>
      <point x="499" y="127"/>
      <point x="534" y="174" type="curve"/>
    </contour>
  </outline>
</glyph>
<glyph name="uni19E4" format="2">
  <advance width="684"/>
  <unicode hex="19E4"/>
  <note>
uni19E4
</note>
  <outline>
    <contour>
      <point x="366" y="391" type="curve" smooth="yes"/>
      <point x="562" y="391" type="line"/>
      <point x="586" y="458" type="line"/>
      <point x="483" y="634" type="line"/>
      <point x="483" y="782" type="line"/>
      <point x="586" y="782" type="line"/>
      <point x="586" y="849" type="line"/>
      <point x="488" y="849" type="line" smooth="yes"/>
      <point x="424" y="849"/>
      <point x="391" y="830"/>
      <point x="391" y="782" type="curve" smooth="yes"/>
      <point x="391" y="610" type="line"/>
      <point x="523" y="458" type="line"/>
      <point x="366" y="458" type="line" smooth="yes"/>
      <point x="281" y="458"/>
      <point x="238" y="501"/>
      <point x="238" y="586" type="curve" smooth="yes"/>
      <point x="238" y="1031" type="line" smooth="yes"/>
      <point x="238" y="1079"/>
      <point x="227" y="1104"/>
      <point x="186" y="1104" type="curve" smooth="yes"/>
      <point x="98" y="1104" type="line"/>
      <point x="98" y="1037" type="line"/>
      <point x="147" y="1037" type="line"/>
      <point x="147" y="586" type="line" smooth="yes"/>
      <point x="147" y="456"/>
      <point x="220" y="391"/>
    </contour>
    <contour>
      <point x="445" y="-288" type="line"/>
      <point x="537" y="-288" type="line"/>
      <point x="537" y="298" type="line"/>
      <point x="445" y="298" type="line"/>
      <point x="387" y="200"/>
      <point x="348" y="167"/>
      <point x="282" y="167" type="curve" smooth="yes"/>
      <point x="251" y="167"/>
      <point x="238" y="183"/>
      <point x="238" y="201" type="curve" smooth="yes"/>
      <point x="238" y="217"/>
      <point x="251" y="231"/>
      <point x="275" y="231" type="curve" smooth="yes"/>
      <point x="291" y="231" type="line"/>
      <point x="291" y="298" type="line"/>
      <point x="265" y="298" type="line" smooth="yes"/>
      <point x="197" y="298"/>
      <point x="147" y="269"/>
      <point x="147" y="200" type="curve" smooth="yes"/>
      <point x="147" y="148"/>
      <point x="186" y="100"/>
      <point x="277" y="100" type="curve" smooth="yes"/>
      <point x="351" y="100"/>
      <point x="410" y="127"/>
      <point x="445" y="174" type="curve"/>
    </contour>
  </outline>
</glyph>
<glyph name="uni19E5" format="2">
  <advance width="636"/>
  <unicode hex="19E5"/>
  <note>
uni19E5
</note>
  <outline>
    <contour>
      <point x="318" y="392" type="curve" smooth="yes"/>
      <point x="513" y="392" type="line"/>
      <point x="538" y="459" type="line"/>
      <point x="435" y="586" type="line"/>
      <point x="435" y="715" type="line"/>
      <point x="538" y="715" type="line"/>
      <point x="538" y="783" type="line"/>
      <point x="435" y="783" type="line" smooth="yes"/>
      <point x="377" y="783"/>
      <point x="343" y="734"/>
      <point x="343" y="685" type="curve" smooth="yes"/>
      <point x="343" y="572" type="line"/>
      <point x="465" y="459" type="line"/>
      <point x="318" y="459" type="line" smooth="yes"/>
      <point x="233" y="459"/>
      <point x="190" y="491"/>
      <point x="190" y="553" type="curve" smooth="yes"/>
      <point x="190" y="810" type="line" smooth="yes"/>
      <point x="190" y="849"/>
      <point x="210" y="869"/>
      <point x="237" y="885" type="curve"/>
      <point x="284" y="865"/>
      <point x="329" y="853"/>
      <point x="380" y="853" type="curve" smooth="yes"/>
      <point x="470" y="853"/>
      <point x="538" y="899"/>
      <point x="538" y="982" type="curve" smooth="yes"/>
      <point x="538" y="1106" type="line"/>
      <point x="446" y="1106" type="line"/>
      <point x="446" y="982" type="line" smooth="yes"/>
      <point x="446" y="950"/>
      <point x="421" y="921"/>
      <point x="376" y="921" type="curve" smooth="yes"/>
      <point x="352" y="921"/>
      <point x="335" y="922"/>
      <point x="303" y="931" type="curve"/>
      <point x="321" y="950"/>
      <point x="331" y="968"/>
      <point x="331" y="994" type="curve" smooth="yes"/>
      <point x="331" y="1030"/>
      <point x="303" y="1069"/>
      <point x="241" y="1069" type="curve" smooth="yes"/>
      <point x="182" y="1069"/>
      <point x="151" y="1033"/>
      <point x="151" y="990" type="curve" smooth="yes"/>
      <point x="151" y="966"/>
      <point x="160" y="949"/>
      <point x="175" y="932" type="curve"/>
      <point x="122" y="907"/>
      <point x="98" y="877"/>
      <point x="98" y="811" type="curve" smooth="yes"/>
      <point x="98" y="553" type="line" smooth="yes"/>
      <point x="98" y="446"/>
      <point x="172" y="392"/>
    </contour>
    <contour>
      <point x="397" y="-288" type="line"/>
      <point x="489" y="-288" type="line"/>
      <point x="489" y="298" type="line"/>
      <point x="397" y="298" type="line"/>
      <point x="339" y="200"/>
      <point x="300" y="167"/>
      <point x="234" y="167" type="curve" smooth="yes"/>
      <point x="203" y="167"/>
      <point x="190" y="183"/>
      <point x="190" y="201" type="curve" smooth="yes"/>
      <point x="190" y="217"/>
      <point x="203" y="231"/>
      <point x="227" y="231" type="curve" smooth="yes"/>
      <point x="243" y="231" type="line"/>
      <point x="243" y="298" type="line"/>
      <point x="217" y="298" type="line" smooth="yes"/>
      <point x="149" y="298"/>
      <point x="99" y="269"/>
      <point x="99" y="200" type="curve" smooth="yes"/>
      <point x="99" y="148"/>
      <point x="138" y="100"/>
      <point x="229" y="100" type="curve" smooth="yes"/>
      <point x="303" y="100"/>
      <point x="362" y="127"/>
      <point x="397" y="174" type="curve"/>
    </contour>
  </outline>
</glyph>
<glyph name="uni19E6" format="2">
  <advance width="635"/>
  <unicode hex="19E6"/>
  <note>
uni19E6
</note>
  <outline>
    <contour>
      <point x="317" y="391" type="curve" smooth="yes"/>
      <point x="464" y="391"/>
      <point x="537" y="456"/>
      <point x="537" y="586" type="curve" smooth="yes"/>
      <point x="537" y="782" type="line" smooth="yes"/>
      <point x="537" y="912"/>
      <point x="464" y="977"/>
      <point x="317" y="977" type="curve" smooth="yes"/>
      <point x="274" y="977"/>
      <point x="231" y="968"/>
      <point x="189" y="951" type="curve"/>
      <point x="189" y="1105" type="line"/>
      <point x="98" y="1105" type="line"/>
      <point x="98" y="811" type="line"/>
      <point x="189" y="811" type="line"/>
      <point x="189" y="877"/>
      <point x="232" y="910"/>
      <point x="317" y="910" type="curve" smooth="yes"/>
      <point x="403" y="910"/>
      <point x="445" y="867"/>
      <point x="445" y="782" type="curve" smooth="yes"/>
      <point x="445" y="586" type="line" smooth="yes"/>
      <point x="445" y="501"/>
      <point x="403" y="458"/>
      <point x="317" y="458" type="curve" smooth="yes"/>
      <point x="232" y="458"/>
      <point x="189" y="493"/>
      <point x="189" y="562" type="curve" smooth="yes"/>
      <point x="189" y="631"/>
      <point x="216" y="666"/>
      <point x="269" y="666" type="curve" smooth="yes"/>
      <point x="342" y="666" type="line"/>
      <point x="342" y="733" type="line"/>
      <point x="269" y="733" type="line" smooth="yes"/>
      <point x="155" y="733"/>
      <point x="98" y="676"/>
      <point x="98" y="562" type="curve" smooth="yes"/>
      <point x="98" y="448"/>
      <point x="171" y="391"/>
    </contour>
    <contour>
      <point x="396" y="-288" type="line"/>
      <point x="488" y="-288" type="line"/>
      <point x="488" y="298" type="line"/>
      <point x="396" y="298" type="line"/>
      <point x="338" y="200"/>
      <point x="299" y="167"/>
      <point x="233" y="167" type="curve" smooth="yes"/>
      <point x="202" y="167"/>
      <point x="189" y="183"/>
      <point x="189" y="201" type="curve" smooth="yes"/>
      <point x="189" y="217"/>
      <point x="202" y="231"/>
      <point x="226" y="231" type="curve" smooth="yes"/>
      <point x="242" y="231" type="line"/>
      <point x="242" y="298" type="line"/>
      <point x="216" y="298" type="line" smooth="yes"/>
      <point x="148" y="298"/>
      <point x="98" y="269"/>
      <point x="98" y="200" type="curve" smooth="yes"/>
      <point x="98" y="148"/>
      <point x="137" y="100"/>
      <point x="228" y="100" type="curve" smooth="yes"/>
      <point x="302" y="100"/>
      <point x="361" y="127"/>
      <point x="396" y="174" type="curve"/>
    </contour>
  </outline>
</glyph>
<glyph name="uni19E7" format="2">
  <advance width="781"/>
  <unicode hex="19E7"/>
  <note>
uni19E7
</note>
  <outline>
    <contour>
      <point x="97" y="391" type="line"/>
      <point x="269" y="391" type="line"/>
      <point x="269" y="458" type="line"/>
      <point x="189" y="458" type="line"/>
      <point x="189" y="842" type="line" smooth="yes"/>
      <point x="189" y="883"/>
      <point x="199" y="904"/>
      <point x="218" y="904" type="curve" smooth="yes"/>
      <point x="233" y="904"/>
      <point x="253" y="889"/>
      <point x="278" y="858" type="curve" smooth="yes"/>
      <point x="286" y="848"/>
      <point x="295" y="843"/>
      <point x="305" y="843" type="curve" smooth="yes"/>
      <point x="315" y="843"/>
      <point x="324" y="848"/>
      <point x="333" y="858" type="curve" smooth="yes"/>
      <point x="359" y="888"/>
      <point x="377" y="904"/>
      <point x="393" y="904" type="curve" smooth="yes"/>
      <point x="412" y="904"/>
      <point x="421" y="883"/>
      <point x="421" y="842" type="curve" smooth="yes"/>
      <point x="421" y="511" type="line" smooth="yes"/>
      <point x="421" y="429"/>
      <point x="467" y="391"/>
      <point x="553" y="391" type="curve" smooth="yes"/>
      <point x="639" y="391"/>
      <point x="684" y="429"/>
      <point x="684" y="511" type="curve" smooth="yes"/>
      <point x="684" y="1105" type="line"/>
      <point x="592" y="1105" type="line"/>
      <point x="592" y="491" type="line" smooth="yes"/>
      <point x="592" y="470"/>
      <point x="573" y="458"/>
      <point x="553" y="458" type="curve" smooth="yes"/>
      <point x="533" y="458"/>
      <point x="513" y="470"/>
      <point x="513" y="491" type="curve" smooth="yes"/>
      <point x="513" y="842" type="line" smooth="yes"/>
      <point x="513" y="915"/>
      <point x="472" y="977"/>
      <point x="408" y="977" type="curve" smooth="yes"/>
      <point x="372" y="977"/>
      <point x="340" y="957"/>
      <point x="305" y="916" type="curve"/>
      <point x="271" y="957"/>
      <point x="243" y="977"/>
      <point x="204" y="977" type="curve" smooth="yes"/>
      <point x="132" y="977"/>
      <point x="97" y="915"/>
      <point x="97" y="842" type="curve" smooth="yes"/>
    </contour>
    <contour>
      <point x="494" y="-288" type="line"/>
      <point x="586" y="-288" type="line"/>
      <point x="586" y="298" type="line"/>
      <point x="494" y="298" type="line"/>
      <point x="436" y="200"/>
      <point x="397" y="167"/>
      <point x="331" y="167" type="curve" smooth="yes"/>
      <point x="300" y="167"/>
      <point x="287" y="183"/>
      <point x="287" y="201" type="curve" smooth="yes"/>
      <point x="287" y="217"/>
      <point x="300" y="231"/>
      <point x="324" y="231" type="curve" smooth="yes"/>
      <point x="340" y="231" type="line"/>
      <point x="340" y="298" type="line"/>
      <point x="314" y="298" type="line" smooth="yes"/>
      <point x="246" y="298"/>
      <point x="196" y="269"/>
      <point x="196" y="200" type="curve" smooth="yes"/>
      <point x="196" y="148"/>
      <point x="235" y="100"/>
      <point x="326" y="100" type="curve" smooth="yes"/>
      <point x="400" y="100"/>
      <point x="459" y="127"/>
      <point x="494" y="174" type="curve"/>
    </contour>
  </outline>
</glyph>
<glyph name="uni19E8" format="2">
  <advance width="635"/>
  <unicode hex="19E8"/>
  <note>
uni19E8
</note>
  <outline>
    <contour>
      <point x="98" y="391" type="line"/>
      <point x="205" y="391" type="line"/>
      <point x="318" y="494" type="line"/>
      <point x="431" y="391" type="line"/>
      <point x="537" y="391" type="line"/>
      <point x="537" y="704" type="line" smooth="yes"/>
      <point x="537" y="744"/>
      <point x="517" y="757"/>
      <point x="482" y="757" type="curve" smooth="yes"/>
      <point x="332" y="757" type="line"/>
      <point x="332" y="690" type="line"/>
      <point x="420" y="690" type="line" smooth="yes"/>
      <point x="437" y="690"/>
      <point x="445" y="683"/>
      <point x="445" y="666" type="curve" smooth="yes"/>
      <point x="445" y="473" type="line"/>
      <point x="318" y="589" type="line"/>
      <point x="189" y="472" type="line"/>
      <point x="189" y="821" type="line" smooth="yes"/>
      <point x="189" y="880"/>
      <point x="232" y="910"/>
      <point x="317" y="910" type="curve" smooth="yes"/>
      <point x="403" y="910"/>
      <point x="445" y="880"/>
      <point x="445" y="821" type="curve"/>
      <point x="537" y="821" type="line"/>
      <point x="537" y="1105" type="line"/>
      <point x="445" y="1105" type="line"/>
      <point x="445" y="951" type="line"/>
      <point x="404" y="968"/>
      <point x="361" y="977"/>
      <point x="317" y="977" type="curve" smooth="yes"/>
      <point x="171" y="977"/>
      <point x="98" y="925"/>
      <point x="98" y="821" type="curve" smooth="yes"/>
    </contour>
    <contour>
      <point x="396" y="-288" type="line"/>
      <point x="488" y="-288" type="line"/>
      <point x="488" y="298" type="line"/>
      <point x="396" y="298" type="line"/>
      <point x="338" y="200"/>
      <point x="299" y="167"/>
      <point x="233" y="167" type="curve" smooth="yes"/>
      <point x="202" y="167"/>
      <point x="189" y="183"/>
      <point x="189" y="201" type="curve" smooth="yes"/>
      <point x="189" y="217"/>
      <point x="202" y="231"/>
      <point x="226" y="231" type="curve" smooth="yes"/>
      <point x="242" y="231" type="line"/>
      <point x="242" y="298" type="line"/>
      <point x="216" y="298" type="line" smooth="yes"/>
      <point x="148" y="298"/>
      <point x="98" y="269"/>
      <point x="98" y="200" type="curve" smooth="yes"/>
      <point x="98" y="148"/>
      <point x="137" y="100"/>
      <point x="228" y="100" type="curve" smooth="yes"/>
      <point x="302" y="100"/>
      <point x="361" y="127"/>
      <point x="396" y="174" type="curve"/>
    </contour>
  </outline>
</glyph>
